{
copyright = "Christopher Cinq-Mars Jarvis & Jocelyn Kraus";
date = "2015-08-07 13:32:56 +0000";
designer = "Christopher Cinq-Mars Jarvis & Jocelyn Kraus";
designerURL = www.musicalfont.com;
familyName = "Adv. Music Notation OSX";
fontMaster = (
{
ascender = 800;
capHeight = 700;
descender = -200;
id = "4084567E-8F17-43C6-B459-5B57676AC7A4";
userData = {
GSCornerRadius = 3;
};
xHeight = 500;
}
);
glyphs = (
{
glyphname = A;
lastChange = "2015-08-07 07:40:10 +0000";
layers = (
{
layerId = "4084567E-8F17-43C6-B459-5B57676AC7A4";
name = Regular;
paths = (
{
closed = 1;
nodes = (
"0 546 LINE",
"304 546 LINE",
"304 551 LINE",
"0 551 LINE"
);
},
{
closed = 1;
nodes = (
"304 422 LINE",
"304 427 LINE",
"0 427 LINE",
"0 422 LINE"
);
},
{
closed = 1;
nodes = (
"304 298 LINE",
"304 303 LINE",
"0 303 LINE",
"0 298 LINE"
);
},
{
closed = 1;
nodes = (
"192 237 LINE",
"192 178 LINE",
"0 178 LINE",
"0 173 LINE",
"192 173 LINE",
"192 54 LINE",
"0 54 LINE",
"0 49 LINE",
"192 49 LINE",
"192 -74 LINE",
"14 -74 LINE",
"14 -79 LINE",
"192 -79 LINE",
"192 -148 LINE",
"187 -141 OFFCURVE",
"158 -131 OFFCURVE",
"129 -137 CURVE SMOOTH",
"80 -147 OFFCURVE",
"55 -172 OFFCURVE",
"46 -195 CURVE",
"12 -195 LINE",
"12 -200 LINE",
"44 -200 LINE",
"42 -210 OFFCURVE",
"42 -220 OFFCURVE",
"45 -227 CURVE SMOOTH",
"56 -255 OFFCURVE",
"87 -258 OFFCURVE",
"110 -258 CURVE SMOOTH",
"157 -258 OFFCURVE",
"201 -233 OFFCURVE",
"209 -200 CURVE",
"268 -200 LINE",
"268 -195 LINE",
"210 -195 LINE",
"210 -79 LINE",
"261 -79 LINE",
"255 -95 LINE",
"268 -95 LINE",
"297 -46 OFFCURVE",
"306 3 OFFCURVE",
"301 49 CURVE",
"304 49 LINE",
"304 54 LINE",
"300 54 LINE",
"294 98 OFFCURVE",
"275 138 OFFCURVE",
"248 173 CURVE",
"304 173 LINE",
"304 178 LINE",
"244 178 LINE",
"231 194 OFFCURVE",
"214 212 OFFCURVE",
"210 237 CURVE"
);
},
{
closed = 1;
nodes = (
"210 54 LINE",
"210 118 LINE",
"241 108 OFFCURVE",
"260 84 OFFCURVE",
"270 54 CURVE"
);
},
{
closed = 1;
nodes = (
"210 -74 LINE",
"210 49 LINE",
"271 49 LINE",
"281 13 OFFCURVE",
"277 -31 OFFCURVE",
"263 -74 CURVE"
);
}
);
width = 304;
}
);
unicode = 0041;
},
{
glyphname = Aacute;
lastChange = "2015-08-07 07:40:10 +0000";
layers = (
{
layerId = "4084567E-8F17-43C6-B459-5B57676AC7A4";
name = Regular;
paths = (
{
closed = 1;
nodes = (
"0 546 LINE",
"50 546 LINE",
"50 551 LINE",
"0 551 LINE"
);
},
{
closed = 1;
nodes = (
"50 422 LINE",
"50 427 LINE",
"0 427 LINE",
"0 422 LINE"
);
},
{
closed = 1;
nodes = (
"49 375 OFFCURVE",
"38 388 OFFCURVE",
"26 388 CURVE SMOOTH",
"11 388 OFFCURVE",
"0 375 OFFCURVE",
"0 362 CURVE SMOOTH",
"0 350 OFFCURVE",
"11 339 OFFCURVE",
"26 339 CURVE SMOOTH",
"38 339 OFFCURVE",
"49 350 OFFCURVE",
"49 362 CURVE SMOOTH"
);
},
{
closed = 1;
nodes = (
"50 298 LINE",
"50 303 LINE",
"0 303 LINE",
"0 298 LINE"
);
},
{
closed = 1;
nodes = (
"50 173 LINE",
"50 178 LINE",
"0 178 LINE",
"0 173 LINE"
);
},
{
closed = 1;
nodes = (
"50 49 LINE",
"50 54 LINE",
"0 54 LINE",
"0 49 LINE"
);
}
);
width = 50;
}
);
unicode = 00C1;
},
{
glyphname = Acircumflex;
lastChange = "2015-08-07 07:40:10 +0000";
layers = (
{
layerId = "4084567E-8F17-43C6-B459-5B57676AC7A4";
name = Regular;
paths = (
{
closed = 1;
nodes = (
"-51 516 LINE",
"-47 596 OFFCURVE",
"134 706 OFFCURVE",
"138 772 CURVE",
"136 774 LINE",
"124 760 OFFCURVE",
"-17 666 OFFCURVE",
"-124 656 CURVE",
"-125 516 LINE",
"-125 -1120 LINE",
"-124 -1239 LINE",
"-26 -1249 OFFCURVE",
"123 -1329 OFFCURVE",
"134 -1350 CURVE",
"136 -1339 LINE",
"132 -1289 OFFCURVE",
"-46 -1190 OFFCURVE",
"-51 -1120 CURVE"
);
},
{
closed = 1;
nodes = (
"5 551 LINE",
"-2 551 LINE",
"-2 -1151 LINE",
"3 -1151 LINE"
);
}
);
width = 600;
}
);
unicode = 00C2;
},
{
glyphname = Aring;
lastChange = "2015-08-07 07:40:10 +0000";
layers = (
{
layerId = "4084567E-8F17-43C6-B459-5B57676AC7A4";
name = Regular;
paths = (
{
closed = 1;
nodes = (
"0 546 LINE",
"270 546 LINE",
"270 551 LINE",
"0 551 LINE"
);
},
{
closed = 1;
nodes = (
"270 422 LINE",
"270 427 LINE",
"0 427 LINE",
"0 422 LINE"
);
},
{
closed = 1;
nodes = (
"270 298 LINE",
"270 303 LINE",
"0 303 LINE",
"0 298 LINE"
);
},
{
closed = 1;
nodes = (
"270 173 LINE",
"270 178 LINE",
"0 178 LINE",
"0 173 LINE"
);
},
{
closed = 1;
nodes = (
"270 49 LINE",
"270 54 LINE",
"0 54 LINE",
"0 49 LINE"
);
},
{
closed = 1;
nodes = (
"270 -76 LINE",
"270 -71 LINE",
"14 -71 LINE",
"14 -76 LINE"
);
},
{
closed = 1;
nodes = (
"212 -160 OFFCURVE",
"175 -131 OFFCURVE",
"127 -135 CURVE SMOOTH",
"63 -140 OFFCURVE",
"42 -170 OFFCURVE",
"39 -195 CURVE",
"14 -195 LINE",
"14 -200 LINE",
"39 -200 LINE",
"39 -207 LINE",
"42 -235 OFFCURVE",
"75 -260 OFFCURVE",
"125 -260 CURVE SMOOTH",
"183 -260 OFFCURVE",
"215 -231 OFFCURVE",
"217 -200 CURVE",
"270 -200 LINE",
"270 -195 LINE",
"217 -195 LINE",
"217 -190 LINE"
);
},
{
closed = 1;
nodes = (
"139 -139 OFFCURVE",
"158 -166 OFFCURVE",
"163 -195 CURVE",
"94 -195 LINE",
"93 -175 OFFCURVE",
"99 -156 OFFCURVE",
"115 -148 CURVE"
);
},
{
closed = 1;
nodes = (
"118 -256 OFFCURVE",
"99 -228 OFFCURVE",
"95 -200 CURVE",
"164 -200 LINE",
"166 -222 OFFCURVE",
"160 -244 OFFCURVE",
"142 -250 CURVE"
);
}
);
width = 270;
}
);
unicode = 00C5;
},
{
glyphname = AE;
lastChange = "2015-08-07 07:40:10 +0000";
layers = (
{
layerId = "4084567E-8F17-43C6-B459-5B57676AC7A4";
name = Regular;
paths = (
{
closed = 1;
nodes = (
"29 1072 LINE SMOOTH",
"29 1051 OFFCURVE",
"9 1031 OFFCURVE",
"-10 1025 CURVE",
"-18 1022 OFFCURVE",
"-26 1021 OFFCURVE",
"-32 1021 CURVE SMOOTH",
"-46 1021 OFFCURVE",
"-55 1026 OFFCURVE",
"-61 1037 CURVE",
"-62 1041 OFFCURVE",
"-63 1046 OFFCURVE",
"-63 1050 CURVE SMOOTH",
"-63 1068 OFFCURVE",
"-51 1084 OFFCURVE",
"-31 1094 CURVE",
"-23 1095 OFFCURVE",
"-16 1097 OFFCURVE",
"-9 1097 CURVE SMOOTH",
"0 1097 OFFCURVE",
"8 1095 OFFCURVE",
"15 1091 CURVE",
"15 1274 LINE",
"29 1274 LINE"
);
},
{
closed = 1;
nodes = (
"295 1137 OFFCURVE",
"302 1122 OFFCURVE",
"302 1106 CURVE SMOOTH",
"302 1101 OFFCURVE",
"301 1096 OFFCURVE",
"300 1090 CURVE",
"292 1059 OFFCURVE",
"258 1042 OFFCURVE",
"231 1060 CURVE SMOOTH",
"208 1075 OFFCURVE",
"206 1107 OFFCURVE",
"212 1141 CURVE SMOOTH",
"218 1179 OFFCURVE",
"246 1206 OFFCURVE",
"281 1211 CURVE",
"282 1211 OFFCURVE",
"284 1212 OFFCURVE",
"287 1212 CURVE SMOOTH",
"290 1212 OFFCURVE",
"291 1210 OFFCURVE",
"291 1208 CURVE SMOOTH",
"291 1207 OFFCURVE",
"291 1206 OFFCURVE",
"290 1205 CURVE",
"267 1198 LINE SMOOTH",
"245 1191 OFFCURVE",
"231 1169 OFFCURVE",
"225 1132 CURVE",
"232 1143 OFFCURVE",
"244 1150 OFFCURVE",
"260 1150 CURVE SMOOTH",
"268 1150 OFFCURVE",
"275 1148 OFFCURVE",
"281 1144 CURVE"
);
},
{
closed = 1;
nodes = (
"410 1211 OFFCURVE",
"426 1177 OFFCURVE",
"426 1131 CURVE SMOOTH",
"426 1089 OFFCURVE",
"413 1050 OFFCURVE",
"376 1050 CURVE SMOOTH",
"357 1050 OFFCURVE",
"344 1061 OFFCURVE",
"336 1081 CURVE",
"330 1094 OFFCURVE",
"327 1105 OFFCURVE",
"327 1119 CURVE",
"326 1172 OFFCURVE",
"341 1203 OFFCURVE",
"368 1209 CURVE",
"372 1209 OFFCURVE",
"373 1210 OFFCURVE",
"377 1210 CURVE SMOOTH"
);
},
{
closed = 1;
nodes = (
"409 1081 OFFCURVE",
"410 1097 OFFCURVE",
"410 1131 CURVE SMOOTH",
"410 1165 OFFCURVE",
"403 1196 OFFCURVE",
"377 1196 CURVE SMOOTH",
"353 1196 OFFCURVE",
"345 1165 OFFCURVE",
"345 1129 CURVE SMOOTH",
"345 1092 OFFCURVE",
"356 1066 OFFCURVE",
"377 1066 CURVE SMOOTH",
"380 1066 OFFCURVE",
"384 1067 OFFCURVE",
"387 1068 CURVE"
);
},
{
closed = 1;
nodes = (
"66 1160 LINE",
"173 1160 LINE",
"173 1147 LINE",
"66 1147 LINE"
);
},
{
closed = 1;
nodes = (
"251 1063 OFFCURVE",
"253 1063 OFFCURVE",
"255 1063 CURVE SMOOTH",
"281 1063 OFFCURVE",
"293 1100 OFFCURVE",
"279 1127 CURVE",
"266 1143 OFFCURVE",
"237 1143 OFFCURVE",
"228 1121 CURVE",
"222 1100 OFFCURVE",
"228 1070 OFFCURVE",
"247 1064 CURVE"
);
},
{
closed = 1;
nodes = (
"66 1110 LINE",
"173 1110 LINE",
"173 1097 LINE",
"66 1097 LINE"
);
}
);
width = 0;
}
);
unicode = 00C6;
},
{
glyphname = B;
lastChange = "2015-08-07 07:40:10 +0000";
layers = (
{
layerId = "4084567E-8F17-43C6-B459-5B57676AC7A4";
name = Regular;
paths = (
{
closed = 1;
nodes = (
"110 739 LINE",
"87 733 LINE",
"87 680 LINE",
"74 676 LINE",
"74 729 LINE",
"39 720 LINE",
"39 666 LINE",
"24 662 LINE",
"24 716 LINE",
"0 710 LINE",
"0 742 LINE",
"24 748 LINE",
"24 806 LINE",
"0 800 LINE",
"0 832 LINE",
"24 838 LINE",
"24 895 LINE",
"39 899 LINE",
"39 842 LINE",
"74 851 LINE",
"74 909 LINE",
"87 912 LINE",
"87 854 LINE",
"110 860 LINE",
"110 828 LINE",
"87 822 LINE",
"87 764 LINE",
"110 770 LINE"
);
},
{
closed = 1;
nodes = (
"74 760 LINE",
"74 818 LINE",
"38 809 LINE",
"38 751 LINE"
);
},
{
closed = 1;
nodes = (
"110 551 LINE",
"110 546 LINE",
"0 546 LINE",
"0 551 LINE"
);
},
{
closed = 1;
nodes = (
"110 427 LINE",
"110 422 LINE",
"0 422 LINE",
"0 427 LINE"
);
},
{
closed = 1;
nodes = (
"110 303 LINE",
"110 298 LINE",
"0 298 LINE",
"0 303 LINE"
);
},
{
closed = 1;
nodes = (
"110 178 LINE",
"110 173 LINE",
"0 173 LINE",
"0 178 LINE"
);
},
{
closed = 1;
nodes = (
"110 54 LINE",
"110 49 LINE",
"0 49 LINE",
"0 54 LINE"
);
}
);
width = 110;
}
);
unicode = 0042;
},
{
glyphname = C;
lastChange = "2015-08-07 07:40:10 +0000";
layers = (
{
layerId = "4084567E-8F17-43C6-B459-5B57676AC7A4";
name = Regular;
paths = (
{
closed = 1;
nodes = (
"110 740 LINE",
"87 734 LINE",
"87 792 LINE",
"74 789 LINE",
"74 731 LINE",
"39 722 LINE",
"39 779 LINE",
"24 775 LINE",
"24 718 LINE",
"0 712 LINE",
"0 680 LINE",
"24 686 LINE",
"24 628 LINE",
"0 622 LINE",
"0 590 LINE",
"24 596 LINE",
"24 551 LINE",
"0 551 LINE",
"0 546 LINE",
"24 546 LINE",
"24 542 LINE",
"39 546 LINE",
"110 546 LINE",
"110 551 LINE",
"39 551 LINE",
"39 600 LINE",
"74 609 LINE",
"74 556 LINE",
"87 560 LINE",
"87 613 LINE",
"110 619 LINE",
"110 650 LINE",
"87 644 LINE",
"87 702 LINE",
"110 708 LINE"
);
},
{
closed = 1;
nodes = (
"38 631 LINE",
"38 689 LINE",
"74 698 LINE",
"74 640 LINE"
);
},
{
closed = 1;
nodes = (
"110 422 LINE",
"110 427 LINE",
"0 427 LINE",
"0 422 LINE"
);
},
{
closed = 1;
nodes = (
"110 298 LINE",
"110 303 LINE",
"0 303 LINE",
"0 298 LINE"
);
},
{
closed = 1;
nodes = (
"110 173 LINE",
"110 178 LINE",
"0 178 LINE",
"0 173 LINE"
);
},
{
closed = 1;
nodes = (
"110 49 LINE",
"110 54 LINE",
"0 54 LINE",
"0 49 LINE"
);
}
);
width = 110;
}
);
unicode = 0043;
},
{
glyphname = Ccedilla;
lastChange = "2015-08-07 07:40:10 +0000";
layers = (
{
layerId = "4084567E-8F17-43C6-B459-5B57676AC7A4";
name = Regular;
paths = (
{
closed = 1;
nodes = (
"133 623 LINE",
"119 623 LINE",
"77 551 LINE",
"61 551 LINE",
"103 623 LINE",
"88 623 LINE",
"47 551 LINE",
"0 551 LINE",
"0 546 LINE",
"44 546 LINE",
"-1 468 LINE",
"13 468 LINE",
"58 546 LINE",
"74 546 LINE",
"29 468 LINE",
"44 468 LINE",
"89 546 LINE",
"135 546 LINE",
"135 551 LINE",
"92 551 LINE"
);
},
{
closed = 1;
nodes = (
"135 422 LINE",
"135 427 LINE",
"0 427 LINE",
"0 422 LINE"
);
},
{
closed = 1;
nodes = (
"135 298 LINE",
"135 303 LINE",
"0 303 LINE",
"0 298 LINE"
);
},
{
closed = 1;
nodes = (
"135 173 LINE",
"135 178 LINE",
"0 178 LINE",
"0 173 LINE"
);
},
{
closed = 1;
nodes = (
"135 49 LINE",
"135 54 LINE",
"0 54 LINE",
"0 49 LINE"
);
}
);
width = 135;
}
);
unicode = 00C7;
},
{
glyphname = D;
lastChange = "2015-08-07 07:40:10 +0000";
layers = (
{
layerId = "4084567E-8F17-43C6-B459-5B57676AC7A4";
name = Regular;
paths = (
{
closed = 1;
nodes = (
"128 551 LINE",
"116 573 LINE",
"103 573 LINE",
"106 566 OFFCURVE",
"109 558 OFFCURVE",
"111 551 CURVE",
"59 551 LINE",
"59 626 LINE",
"64 619 OFFCURVE",
"92 610 OFFCURVE",
"122 617 CURVE SMOOTH",
"170 627 OFFCURVE",
"194 650 OFFCURVE",
"203 672 CURVE",
"256 672 LINE",
"256 677 LINE",
"204 677 LINE",
"208 688 OFFCURVE",
"207 698 OFFCURVE",
"204 706 CURVE SMOOTH",
"194 735 OFFCURVE",
"163 738 OFFCURVE",
"140 738 CURVE SMOOTH",
"92 737 OFFCURVE",
"48 711 OFFCURVE",
"40 677 CURVE",
"0 677 LINE",
"0 672 LINE",
"39 672 LINE",
"39 551 LINE",
"0 551 LINE",
"0 546 LINE",
"39 546 LINE",
"40 427 LINE",
"0 427 LINE",
"0 422 LINE",
"40 422 LINE",
"40 303 LINE",
"0 303 LINE",
"0 298 LINE",
"40 298 LINE",
"40 241 LINE",
"59 241 LINE",
"59 252 LINE",
"62 271 OFFCURVE",
"78 285 OFFCURVE",
"90 298 CURVE",
"270 298 LINE",
"270 303 LINE",
"94 303 LINE",
"96 305 LINE",
"123 339 OFFCURVE",
"142 379 OFFCURVE",
"148 422 CURVE",
"270 422 LINE",
"270 427 LINE",
"148 427 LINE",
"153 465 OFFCURVE",
"148 506 OFFCURVE",
"130 546 CURVE",
"270 546 LINE",
"270 551 LINE"
);
},
{
closed = 1;
nodes = (
"59 427 LINE",
"59 546 LINE",
"113 546 LINE",
"126 505 OFFCURVE",
"129 462 OFFCURVE",
"119 427 CURVE"
);
},
{
closed = 1;
nodes = (
"59 422 LINE",
"118 422 LINE",
"108 393 OFFCURVE",
"89 370 OFFCURVE",
"59 360 CURVE"
);
},
{
closed = 1;
nodes = (
"270 173 LINE",
"270 178 LINE",
"0 178 LINE",
"0 173 LINE"
);
},
{
closed = 1;
nodes = (
"270 49 LINE",
"270 54 LINE",
"0 54 LINE",
"0 49 LINE"
);
}
);
width = 270;
}
);
unicode = 0044;
},
{
glyphname = E;
lastChange = "2015-08-07 07:40:10 +0000";
layers = (
{
layerId = "4084567E-8F17-43C6-B459-5B57676AC7A4";
name = Regular;
paths = (
{
closed = 1;
nodes = (
"0 546 LINE",
"110 546 LINE",
"110 551 LINE",
"0 551 LINE"
);
},
{
closed = 1;
nodes = (
"110 422 LINE",
"110 427 LINE",
"0 427 LINE",
"0 422 LINE"
);
},
{
closed = 1;
nodes = (
"110 298 LINE",
"110 303 LINE",
"0 303 LINE",
"0 298 LINE"
);
},
{
closed = 1;
nodes = (
"78 178 LINE",
"0 178 LINE",
"0 173 LINE",
"74 173 LINE",
"74 119 LINE",
"39 110 LINE",
"39 167 LINE",
"24 163 LINE",
"24 106 LINE",
"0 100 LINE",
"0 68 LINE",
"24 74 LINE",
"24 54 LINE",
"0 54 LINE",
"0 49 LINE",
"24 49 LINE",
"24 16 LINE",
"0 10 LINE",
"0 -22 LINE",
"24 -16 LINE",
"24 -70 LINE",
"39 -66 LINE",
"39 -12 LINE",
"74 -3 LINE",
"74 -56 LINE",
"87 -52 LINE",
"87 1 LINE",
"110 7 LINE",
"110 38 LINE",
"87 32 LINE",
"87 49 LINE",
"110 49 LINE",
"110 54 LINE",
"87 54 LINE",
"87 90 LINE",
"110 96 LINE",
"110 128 LINE",
"87 122 LINE",
"87 173 LINE",
"110 173 LINE",
"110 178 LINE",
"87 178 LINE",
"87 180 LINE"
);
},
{
closed = 1;
nodes = (
"38 77 LINE",
"74 86 LINE",
"74 54 LINE",
"38 54 LINE"
);
},
{
closed = 1;
nodes = (
"38 19 LINE",
"38 49 LINE",
"74 49 LINE",
"74 28 LINE"
);
}
);
width = 110;
}
);
unicode = 0045;
},
{
glyphname = F;
lastChange = "2015-08-07 07:40:10 +0000";
layers = (
{
layerId = "4084567E-8F17-43C6-B459-5B57676AC7A4";
name = Regular;
paths = (
{
closed = 1;
nodes = (
"148 551 LINE",
"143 578 OFFCURVE",
"133 605 OFFCURVE",
"117 632 CURVE",
"104 632 LINE",
"115 606 OFFCURVE",
"122 578 OFFCURVE",
"125 551 CURVE",
"60 551 LINE",
"60 672 LINE",
"256 672 LINE",
"256 677 LINE",
"127 677 LINE",
"199 694 OFFCURVE",
"215 741 OFFCURVE",
"205 765 CURVE",
"195 794 OFFCURVE",
"164 797 OFFCURVE",
"141 797 CURVE SMOOTH",
"92 796 OFFCURVE",
"46 768 OFFCURVE",
"40 733 CURVE",
"40 677 LINE",
"0 677 LINE",
"0 672 LINE",
"40 672 LINE",
"40 551 LINE",
"0 551 LINE",
"0 546 LINE",
"40 546 LINE",
"41 427 LINE",
"0 427 LINE",
"0 422 LINE",
"41 422 LINE",
"41 303 LINE",
"0 303 LINE",
"0 298 LINE",
"270 298 LINE",
"270 303 LINE",
"60 303 LINE",
"60 311 LINE",
"63 333 OFFCURVE",
"85 349 OFFCURVE",
"97 364 CURVE SMOOTH",
"111 382 OFFCURVE",
"123 401 OFFCURVE",
"132 422 CURVE",
"270 422 LINE",
"270 427 LINE",
"134 427 LINE",
"149 464 OFFCURVE",
"155 504 OFFCURVE",
"148 546 CURVE",
"270 546 LINE",
"270 551 LINE"
);
},
{
closed = 1;
nodes = (
"62 682 OFFCURVE",
"67 679 OFFCURVE",
"75 677 CURVE",
"60 677 LINE",
"60 685 LINE"
);
},
{
closed = 1;
nodes = (
"60 427 LINE",
"60 546 LINE",
"125 546 LINE",
"129 495 OFFCURVE",
"115 449 OFFCURVE",
"78 427 CURVE"
);
},
{
closed = 1;
nodes = (
"60 422 LINE",
"68 422 LINE",
"60 419 LINE"
);
},
{
closed = 1;
nodes = (
"270 173 LINE",
"270 178 LINE",
"0 178 LINE",
"0 173 LINE"
);
},
{
closed = 1;
nodes = (
"270 49 LINE",
"270 54 LINE",
"0 54 LINE",
"0 49 LINE"
);
}
);
width = 270;
}
);
unicode = 0046;
},
{
glyphname = G;
lastChange = "2015-08-07 07:40:10 +0000";
layers = (
{
layerId = "4084567E-8F17-43C6-B459-5B57676AC7A4";
name = Regular;
paths = (
{
closed = 1;
nodes = (
"270 546 LINE",
"270 551 LINE",
"150 551 LINE",
"154 590 OFFCURVE",
"148 631 OFFCURVE",
"130 672 CURVE",
"256 672 LINE",
"256 677 LINE",
"127 677 LINE",
"124 683 OFFCURVE",
"121 690 OFFCURVE",
"117 696 CURVE",
"104 696 LINE",
"107 690 OFFCURVE",
"109 683 OFFCURVE",
"111 677 CURVE",
"60 677 LINE",
"60 749 LINE",
"65 742 OFFCURVE",
"93 733 OFFCURVE",
"123 740 CURVE SMOOTH",
"171 750 OFFCURVE",
"195 773 OFFCURVE",
"204 795 CURVE",
"256 795 LINE",
"256 800 LINE",
"205 800 LINE",
"209 811 OFFCURVE",
"208 821 OFFCURVE",
"205 829 CURVE SMOOTH",
"195 858 OFFCURVE",
"164 861 OFFCURVE",
"141 861 CURVE SMOOTH",
"93 860 OFFCURVE",
"49 834 OFFCURVE",
"41 800 CURVE",
"0 800 LINE",
"0 795 LINE",
"40 795 LINE",
"40 677 LINE",
"0 677 LINE",
"0 672 LINE",
"40 672 LINE",
"41 551 LINE",
"0 551 LINE",
"0 546 LINE",
"41 546 LINE",
"41 427 LINE",
"0 427 LINE",
"0 422 LINE",
"41 422 LINE",
"41 364 LINE",
"60 364 LINE",
"60 375 LINE",
"63 394 OFFCURVE",
"79 409 OFFCURVE",
"92 422 CURVE",
"270 422 LINE",
"270 427 LINE",
"96 427 LINE",
"97 428 LINE",
"124 462 OFFCURVE",
"143 503 OFFCURVE",
"149 546 CURVE"
);
},
{
closed = 1;
nodes = (
"113 672 LINE",
"126 630 OFFCURVE",
"130 586 OFFCURVE",
"120 551 CURVE",
"60 551 LINE",
"60 672 LINE"
);
},
{
closed = 1;
nodes = (
"110 516 OFFCURVE",
"91 493 OFFCURVE",
"60 483 CURVE",
"60 546 LINE",
"119 546 LINE"
);
},
{
closed = 1;
nodes = (
"270 298 LINE",
"270 303 LINE",
"0 303 LINE",
"0 298 LINE"
);
},
{
closed = 1;
nodes = (
"270 173 LINE",
"270 178 LINE",
"0 178 LINE",
"0 173 LINE"
);
},
{
closed = 1;
nodes = (
"270 49 LINE",
"270 54 LINE",
"0 54 LINE",
"0 49 LINE"
);
}
);
width = 270;
}
);
unicode = 0047;
},
{
glyphname = H;
lastChange = "2015-08-07 07:40:10 +0000";
layers = (
{
layerId = "4084567E-8F17-43C6-B459-5B57676AC7A4";
name = Regular;
paths = (
{
closed = 1;
nodes = (
"54 915 LINE",
"212 915 LINE",
"212 929 LINE",
"54 929 LINE"
);
}
);
width = 0;
}
);
unicode = 0048;
},
{
glyphname = I;
lastChange = "2015-08-07 07:40:10 +0000";
layers = (
{
layerId = "4084567E-8F17-43C6-B459-5B57676AC7A4";
name = Regular;
paths = (
{
closed = 1;
nodes = (
"0 546 LINE",
"110 546 LINE",
"110 551 LINE",
"0 551 LINE"
);
},
{
closed = 1;
nodes = (
"74 486 LINE",
"74 428 LINE",
"70 427 LINE",
"39 427 LINE",
"39 476 LINE",
"24 472 LINE",
"24 427 LINE",
"0 427 LINE",
"0 422 LINE",
"24 422 LINE",
"24 415 LINE",
"0 409 LINE",
"0 377 LINE",
"24 383 LINE",
"24 325 LINE",
"0 319 LINE",
"0 287 LINE",
"24 293 LINE",
"24 239 LINE",
"39 243 LINE",
"39 297 LINE",
"43 298 LINE",
"74 298 LINE",
"74 253 LINE",
"87 257 LINE",
"87 298 LINE",
"110 298 LINE",
"110 303 LINE",
"87 303 LINE",
"87 310 LINE",
"110 316 LINE",
"110 347 LINE",
"87 341 LINE",
"87 399 LINE",
"110 405 LINE",
"110 437 LINE",
"87 431 LINE",
"87 489 LINE"
);
},
{
closed = 1;
nodes = (
"39 422 LINE",
"51 422 LINE",
"39 419 LINE"
);
},
{
closed = 1;
nodes = (
"74 395 LINE",
"74 337 LINE",
"38 328 LINE",
"38 386 LINE"
);
},
{
closed = 1;
nodes = (
"74 306 LINE",
"74 303 LINE",
"62 303 LINE"
);
},
{
closed = 1;
nodes = (
"110 173 LINE",
"110 178 LINE",
"0 178 LINE",
"0 173 LINE"
);
},
{
closed = 1;
nodes = (
"110 49 LINE",
"110 54 LINE",
"0 54 LINE",
"0 49 LINE"
);
}
);
width = 110;
}
);
unicode = 0049;
},
{
glyphname = Iacute;
lastChange = "2015-08-07 07:40:10 +0000";
layers = (
{
layerId = "4084567E-8F17-43C6-B459-5B57676AC7A4";
name = Regular;
paths = (
{
closed = 1;
nodes = (
"0 546 LINE",
"270 546 LINE",
"270 551 LINE",
"0 551 LINE"
);
},
{
closed = 1;
nodes = (
"270 422 LINE",
"270 427 LINE",
"0 427 LINE",
"0 422 LINE"
);
},
{
closed = 1;
nodes = (
"270 298 LINE",
"270 303 LINE",
"0 303 LINE",
"0 298 LINE"
);
},
{
closed = 1;
nodes = (
"270 173 LINE",
"270 178 LINE",
"0 178 LINE",
"0 173 LINE"
);
},
{
closed = 1;
nodes = (
"270 49 LINE",
"270 54 LINE",
"0 54 LINE",
"0 49 LINE"
);
},
{
closed = 1;
nodes = (
"111 -76 LINE",
"50 -86 OFFCURVE",
"36 -121 OFFCURVE",
"39 -146 CURVE SMOOTH",
"42 -174 OFFCURVE",
"75 -199 OFFCURVE",
"125 -199 CURVE SMOOTH",
"189 -199 OFFCURVE",
"221 -164 OFFCURVE",
"217 -129 CURVE",
"213 -106 OFFCURVE",
"190 -83 OFFCURVE",
"158 -76 CURVE",
"270 -76 LINE",
"270 -71 LINE",
"14 -71 LINE",
"14 -76 LINE"
);
},
{
closed = 1;
nodes = (
"99 -199 OFFCURVE",
"74 -106 OFFCURVE",
"115 -87 CURVE",
"159 -70 OFFCURVE",
"186 -174 OFFCURVE",
"142 -189 CURVE"
);
}
);
width = 270;
}
);
unicode = 00CD;
},
{
glyphname = Icircumflex;
lastChange = "2015-08-07 07:40:10 +0000";
layers = (
{
layerId = "4084567E-8F17-43C6-B459-5B57676AC7A4";
name = Regular;
paths = (
{
closed = 1;
nodes = (
"37 638 OFFCURVE",
"70 613 OFFCURVE",
"120 613 CURVE SMOOTH",
"177 613 OFFCURVE",
"209 641 OFFCURVE",
"212 672 CURVE",
"256 672 LINE",
"256 677 LINE",
"212 677 LINE",
"212 683 LINE",
"207 713 OFFCURVE",
"170 742 OFFCURVE",
"122 738 CURVE SMOOTH",
"58 733 OFFCURVE",
"36 703 OFFCURVE",
"34 677 CURVE",
"0 677 LINE",
"0 672 LINE",
"34 672 LINE",
"34 666 LINE"
);
},
{
closed = 1;
nodes = (
"135 734 OFFCURVE",
"154 706 OFFCURVE",
"158 677 CURVE",
"89 677 LINE",
"88 697 OFFCURVE",
"93 717 OFFCURVE",
"110 725 CURVE"
);
},
{
closed = 1;
nodes = (
"113 617 OFFCURVE",
"94 644 OFFCURVE",
"90 672 CURVE",
"159 672 LINE",
"161 650 OFFCURVE",
"155 629 OFFCURVE",
"137 623 CURVE"
);
},
{
closed = 1;
nodes = (
"0 546 LINE",
"270 546 LINE",
"270 551 LINE",
"0 551 LINE"
);
},
{
closed = 1;
nodes = (
"270 422 LINE",
"270 427 LINE",
"0 427 LINE",
"0 422 LINE"
);
},
{
closed = 1;
nodes = (
"270 298 LINE",
"270 303 LINE",
"0 303 LINE",
"0 298 LINE"
);
},
{
closed = 1;
nodes = (
"270 173 LINE",
"270 178 LINE",
"0 178 LINE",
"0 173 LINE"
);
},
{
closed = 1;
nodes = (
"270 49 LINE",
"270 54 LINE",
"0 54 LINE",
"0 49 LINE"
);
}
);
width = 270;
}
);
unicode = 00CE;
},
{
glyphname = Idieresis;
lastChange = "2015-08-07 07:40:10 +0000";
layers = (
{
layerId = "4084567E-8F17-43C6-B459-5B57676AC7A4";
name = Regular;
paths = (
{
closed = 1;
nodes = (
"145 677 LINE",
"192 685 OFFCURVE",
"215 715 OFFCURVE",
"212 745 CURVE",
"207 775 OFFCURVE",
"170 804 OFFCURVE",
"122 800 CURVE SMOOTH",
"48 794 OFFCURVE",
"31 755 OFFCURVE",
"34 728 CURVE SMOOTH",
"36 705 OFFCURVE",
"60 683 OFFCURVE",
"96 677 CURVE",
"0 677 LINE",
"0 672 LINE",
"256 672 LINE",
"256 677 LINE"
);
},
{
closed = 1;
nodes = (
"154 804 OFFCURVE",
"181 700 OFFCURVE",
"137 685 CURVE",
"94 675 OFFCURVE",
"69 768 OFFCURVE",
"110 787 CURVE"
);
},
{
closed = 1;
nodes = (
"0 546 LINE",
"270 546 LINE",
"270 551 LINE",
"0 551 LINE"
);
},
{
closed = 1;
nodes = (
"270 422 LINE",
"270 427 LINE",
"0 427 LINE",
"0 422 LINE"
);
},
{
closed = 1;
nodes = (
"270 298 LINE",
"270 303 LINE",
"0 303 LINE",
"0 298 LINE"
);
},
{
closed = 1;
nodes = (
"270 173 LINE",
"270 178 LINE",
"0 178 LINE",
"0 173 LINE"
);
},
{
closed = 1;
nodes = (
"270 49 LINE",
"270 54 LINE",
"0 54 LINE",
"0 49 LINE"
);
}
);
width = 270;
}
);
unicode = 00CF;
},
{
glyphname = J;
lastChange = "2015-08-07 07:40:10 +0000";
layers = (
{
layerId = "4084567E-8F17-43C6-B459-5B57676AC7A4";
name = Regular;
paths = (
{
closed = 1;
nodes = (
"241 893 LINE",
"241 928 OFFCURVE",
"217 963 OFFCURVE",
"188 982 CURVE",
"174 989 OFFCURVE",
"162 995 OFFCURVE",
"141 995 CURVE SMOOTH",
"106 995 OFFCURVE",
"70 971 OFFCURVE",
"51 932 CURVE",
"48 927 OFFCURVE",
"45 919 OFFCURVE",
"44 912 CURVE",
"43 912 OFFCURVE",
"42 910 OFFCURVE",
"42 909 CURVE SMOOTH",
"42 902 LINE SMOOTH",
"42 901 OFFCURVE",
"42 900 OFFCURVE",
"41 897 CURVE",
"41 893 LINE",
"30 893 LINE",
"31 912 OFFCURVE",
"37 930 OFFCURVE",
"40 946 CURVE",
"47 963 OFFCURVE",
"54 980 OFFCURVE",
"63 992 CURVE SMOOTH",
"73 1006 OFFCURVE",
"85 1017 OFFCURVE",
"98 1026 CURVE",
"112 1032 OFFCURVE",
"125 1036 OFFCURVE",
"141 1036 CURVE SMOOTH",
"157 1036 OFFCURVE",
"172 1032 OFFCURVE",
"185 1026 CURVE",
"212 1007 OFFCURVE",
"231 982 OFFCURVE",
"242 947 CURVE SMOOTH",
"247 929 OFFCURVE",
"251 912 OFFCURVE",
"253 893 CURVE"
);
},
{
closed = 1;
nodes = (
"159 901 OFFCURVE",
"149 893 OFFCURVE",
"141 893 CURVE SMOOTH",
"137 893 OFFCURVE",
"132 895 OFFCURVE",
"127 899 CURVE",
"123 901 OFFCURVE",
"121 906 OFFCURVE",
"121 912 CURVE SMOOTH",
"121 917 OFFCURVE",
"123 922 OFFCURVE",
"127 927 CURVE",
"128 927 OFFCURVE",
"129 928 OFFCURVE",
"131 930 CURVE",
"134 931 OFFCURVE",
"138 932 OFFCURVE",
"141 932 CURVE SMOOTH",
"146 932 OFFCURVE",
"151 930 OFFCURVE",
"154 927 CURVE",
"158 921 OFFCURVE",
"159 916 OFFCURVE",
"159 912 CURVE SMOOTH"
);
}
);
width = 0;
}
);
unicode = 004A;
},
{
glyphname = K;
lastChange = "2015-08-07 07:40:10 +0000";
layers = (
{
layerId = "4084567E-8F17-43C6-B459-5B57676AC7A4";
name = Regular;
paths = (
{
closed = 1;
nodes = (
"0 551 LINE",
"0 546 LINE",
"174 546 LINE",
"174 551 LINE"
);
},
{
closed = 1;
nodes = (
"17 470 OFFCURVE",
"26 461 OFFCURVE",
"44 461 CURVE SMOOTH",
"64 461 OFFCURVE",
"74 470 OFFCURVE",
"74 486 CURVE SMOOTH",
"74 503 OFFCURVE",
"64 511 OFFCURVE",
"46 511 CURVE SMOOTH",
"44 511 OFFCURVE",
"42 512 OFFCURVE",
"42 514 CURVE SMOOTH",
"42 524 OFFCURVE",
"69 531 OFFCURVE",
"80 531 CURVE SMOOTH",
"109 531 OFFCURVE",
"130 504 OFFCURVE",
"130 476 CURVE SMOOTH",
"130 465 OFFCURVE",
"125 454 OFFCURVE",
"115 446 CURVE",
"104 439 OFFCURVE",
"78 430 OFFCURVE",
"69 431 CURVE",
"69 427 LINE",
"0 427 LINE",
"0 422 LINE",
"69 422 LINE",
"69 418 LINE",
"98 418 OFFCURVE",
"130 391 OFFCURVE",
"130 370 CURVE SMOOTH",
"130 343 OFFCURVE",
"109 314 OFFCURVE",
"80 314 CURVE SMOOTH",
"69 314 OFFCURVE",
"42 322 OFFCURVE",
"42 334 CURVE SMOOTH",
"42 335 OFFCURVE",
"44 336 OFFCURVE",
"46 336 CURVE SMOOTH",
"64 336 OFFCURVE",
"74 345 OFFCURVE",
"74 362 CURVE SMOOTH",
"74 377 OFFCURVE",
"64 386 OFFCURVE",
"44 386 CURVE SMOOTH",
"26 386 OFFCURVE",
"17 377 OFFCURVE",
"17 357 CURVE SMOOTH",
"17 325 OFFCURVE",
"37 307 OFFCURVE",
"79 303 CURVE",
"0 303 LINE",
"0 298 LINE",
"77 298 LINE",
"76 297 OFFCURVE",
"75 284 OFFCURVE",
"70 260 CURVE",
"66 227 OFFCURVE",
"58 200 OFFCURVE",
"48 178 CURVE",
"0 178 LINE",
"0 173 LINE",
"45 173 LINE",
"33 150 OFFCURVE",
"18 133 OFFCURVE",
"0 121 CURVE",
"0 110 LINE",
"90 110 LINE",
"90 75 LINE",
"87 70 OFFCURVE",
"71 63 OFFCURVE",
"65 63 CURVE",
"65 54 LINE",
"0 54 LINE",
"0 49 LINE",
"174 49 LINE",
"174 63 LINE",
"170 63 OFFCURVE",
"154 71 OFFCURVE",
"152 75 CURVE",
"151 82 OFFCURVE",
"150 78 OFFCURVE",
"150 110 CURVE",
"174 110 LINE",
"174 121 LINE",
"150 121 LINE",
"150 173 LINE",
"174 173 LINE",
"174 178 LINE",
"150 178 LINE",
"150 245 LINE",
"90 200 LINE",
"90 178 LINE",
"62 178 LINE",
"69 187 LINE",
"137 282 OFFCURVE",
"140 288 OFFCURVE",
"143 298 CURVE",
"174 298 LINE",
"174 303 LINE",
"113 303 LINE",
"146 308 OFFCURVE",
"174 334 OFFCURVE",
"174 368 CURVE SMOOTH",
"174 392 OFFCURVE",
"162 412 OFFCURVE",
"138 422 CURVE",
"174 422 LINE",
"174 427 LINE",
"144 427 LINE",
"166 439 OFFCURVE",
"174 455 OFFCURVE",
"174 480 CURVE SMOOTH",
"174 519 OFFCURVE",
"139 546 OFFCURVE",
"100 546 CURVE SMOOTH",
"44 546 OFFCURVE",
"17 526 OFFCURVE",
"17 490 CURVE SMOOTH"
);
},
{
closed = 1;
nodes = (
"90 121 LINE",
"21 121 LINE",
"59 173 LINE",
"90 173 LINE"
);
}
);
width = 174;
}
);
unicode = 004B;
},
{
glyphname = L;
lastChange = "2015-08-07 07:40:10 +0000";
layers = (
{
layerId = "4084567E-8F17-43C6-B459-5B57676AC7A4";
name = Regular;
paths = (
{
closed = 1;
nodes = (
"0 551 LINE",
"0 546 LINE",
"174 546 LINE",
"174 551 LINE"
);
},
{
closed = 1;
nodes = (
"17 470 OFFCURVE",
"26 461 OFFCURVE",
"44 461 CURVE SMOOTH",
"64 461 OFFCURVE",
"74 470 OFFCURVE",
"74 486 CURVE SMOOTH",
"74 503 OFFCURVE",
"64 511 OFFCURVE",
"46 511 CURVE SMOOTH",
"44 511 OFFCURVE",
"42 512 OFFCURVE",
"42 514 CURVE SMOOTH",
"42 524 OFFCURVE",
"69 531 OFFCURVE",
"80 531 CURVE SMOOTH",
"109 531 OFFCURVE",
"130 504 OFFCURVE",
"130 476 CURVE SMOOTH",
"130 465 OFFCURVE",
"125 454 OFFCURVE",
"115 446 CURVE",
"104 439 OFFCURVE",
"78 430 OFFCURVE",
"69 431 CURVE",
"69 427 LINE",
"0 427 LINE",
"0 422 LINE",
"69 422 LINE",
"69 418 LINE",
"98 418 OFFCURVE",
"130 391 OFFCURVE",
"130 370 CURVE SMOOTH",
"130 343 OFFCURVE",
"109 314 OFFCURVE",
"80 314 CURVE SMOOTH",
"69 314 OFFCURVE",
"42 322 OFFCURVE",
"42 334 CURVE SMOOTH",
"42 335 OFFCURVE",
"44 336 OFFCURVE",
"46 336 CURVE SMOOTH",
"64 336 OFFCURVE",
"74 345 OFFCURVE",
"74 362 CURVE SMOOTH",
"74 377 OFFCURVE",
"64 386 OFFCURVE",
"44 386 CURVE SMOOTH",
"26 386 OFFCURVE",
"17 377 OFFCURVE",
"17 357 CURVE SMOOTH",
"17 325 OFFCURVE",
"37 307 OFFCURVE",
"79 303 CURVE",
"0 303 LINE",
"0 298 LINE",
"174 298 LINE",
"174 303 LINE",
"113 303 LINE",
"146 308 OFFCURVE",
"174 334 OFFCURVE",
"174 368 CURVE SMOOTH",
"174 392 OFFCURVE",
"162 412 OFFCURVE",
"138 422 CURVE",
"174 422 LINE",
"174 427 LINE",
"144 427 LINE",
"166 439 OFFCURVE",
"174 455 OFFCURVE",
"174 480 CURVE SMOOTH",
"174 519 OFFCURVE",
"139 546 OFFCURVE",
"100 546 CURVE SMOOTH",
"44 546 OFFCURVE",
"17 526 OFFCURVE",
"17 490 CURVE SMOOTH"
);
},
{
closed = 1;
nodes = (
"25 209 OFFCURVE",
"36 191 OFFCURVE",
"57 178 CURVE",
"0 178 LINE",
"0 173 LINE",
"47 173 LINE",
"32 163 OFFCURVE",
"18 145 OFFCURVE",
"18 131 CURVE SMOOTH",
"18 89 OFFCURVE",
"43 60 OFFCURVE",
"80 54 CURVE",
"0 54 LINE",
"0 49 LINE",
"174 49 LINE",
"174 54 LINE",
"108 54 LINE",
"145 60 OFFCURVE",
"170 89 OFFCURVE",
"170 131 CURVE SMOOTH",
"170 144 OFFCURVE",
"160 161 OFFCURVE",
"147 173 CURVE",
"174 173 LINE",
"174 178 LINE",
"142 178 LINE",
"137 182 OFFCURVE",
"132 185 OFFCURVE",
"127 187 CURVE",
"146 195 OFFCURVE",
"163 220 OFFCURVE",
"163 240 CURVE SMOOTH",
"163 276 OFFCURVE",
"132 298 OFFCURVE",
"95 298 CURVE SMOOTH",
"57 298 OFFCURVE",
"25 272 OFFCURVE",
"25 234 CURVE SMOOTH"
);
},
{
closed = 1;
nodes = (
"124 286 OFFCURVE",
"142 265 OFFCURVE",
"142 236 CURVE SMOOTH",
"142 221 OFFCURVE",
"130 203 OFFCURVE",
"114 196 CURVE",
"104 206 OFFCURVE",
"77 225 OFFCURVE",
"67 231 CURVE",
"59 237 OFFCURVE",
"54 243 OFFCURVE",
"54 248 CURVE SMOOTH",
"54 269 OFFCURVE",
"74 286 OFFCURVE",
"95 286 CURVE SMOOTH"
);
},
{
closed = 1;
nodes = (
"61 67 OFFCURVE",
"39 92 OFFCURVE",
"39 126 CURVE SMOOTH",
"39 144 OFFCURVE",
"49 157 OFFCURVE",
"68 168 CURVE",
"106 141 LINE",
"124 132 OFFCURVE",
"140 113 OFFCURVE",
"140 100 CURVE SMOOTH",
"140 78 OFFCURVE",
"118 67 OFFCURVE",
"94 67 CURVE SMOOTH"
);
}
);
width = 174;
}
);
unicode = 004C;
},
{
glyphname = M;
lastChange = "2015-08-07 07:40:10 +0000";
layers = (
{
layerId = "4084567E-8F17-43C6-B459-5B57676AC7A4";
name = Regular;
paths = (
{
closed = 1;
nodes = (
"0 546 LINE",
"15 546 LINE",
"15 551 LINE",
"0 551 LINE"
);
},
{
closed = 1;
nodes = (
"15 422 LINE",
"15 427 LINE",
"0 427 LINE",
"0 422 LINE"
);
},
{
closed = 1;
nodes = (
"15 298 LINE",
"15 303 LINE",
"0 303 LINE",
"0 298 LINE"
);
},
{
closed = 1;
nodes = (
"15 173 LINE",
"15 178 LINE",
"0 178 LINE",
"0 173 LINE"
);
},
{
closed = 1;
nodes = (
"15 49 LINE",
"15 54 LINE",
"0 54 LINE",
"0 49 LINE"
);
}
);
width = 15;
}
);
unicode = 004D;
},
{
glyphname = N;
lastChange = "2015-08-07 07:40:10 +0000";
layers = (
{
layerId = "4084567E-8F17-43C6-B459-5B57676AC7A4";
name = Regular;
paths = (
{
closed = 1;
nodes = (
"195 -334 OFFCURVE",
"171 -312 OFFCURVE",
"139 -275 CURVE",
"174 -334 OFFCURVE",
"226 -361 OFFCURVE",
"322 -361 CURVE SMOOTH",
"416 -361 OFFCURVE",
"471 -334 OFFCURVE",
"505 -275 CURVE",
"472 -312 OFFCURVE",
"430 -339 OFFCURVE",
"322 -342 CURVE"
);
}
);
width = 0;
}
);
unicode = 004E;
},
{
glyphname = O;
lastChange = "2015-08-07 07:40:10 +0000";
layers = (
{
layerId = "4084567E-8F17-43C6-B459-5B57676AC7A4";
name = Regular;
paths = (
{
closed = 1;
nodes = (
"110 551 LINE",
"0 551 LINE",
"0 546 LINE",
"74 546 LINE",
"74 490 LINE",
"39 481 LINE",
"39 538 LINE",
"24 534 LINE",
"24 477 LINE",
"0 471 LINE",
"0 439 LINE",
"24 445 LINE",
"24 427 LINE",
"0 427 LINE",
"0 422 LINE",
"24 422 LINE",
"24 387 LINE",
"0 381 LINE",
"0 349 LINE",
"24 355 LINE",
"24 303 LINE",
"0 303 LINE",
"0 298 LINE",
"110 298 LINE",
"110 303 LINE",
"32 303 LINE",
"39 305 LINE",
"39 359 LINE",
"74 368 LINE",
"74 315 LINE",
"87 319 LINE",
"87 372 LINE",
"110 378 LINE",
"110 409 LINE",
"87 403 LINE",
"87 422 LINE",
"110 422 LINE",
"110 427 LINE",
"87 427 LINE",
"87 461 LINE",
"110 467 LINE",
"110 499 LINE",
"87 493 LINE",
"87 546 LINE",
"110 546 LINE"
);
},
{
closed = 1;
nodes = (
"38 448 LINE",
"74 457 LINE",
"74 427 LINE",
"38 427 LINE"
);
},
{
closed = 1;
nodes = (
"38 390 LINE",
"38 422 LINE",
"74 422 LINE",
"74 399 LINE"
);
},
{
closed = 1;
nodes = (
"110 173 LINE",
"110 178 LINE",
"0 178 LINE",
"0 173 LINE"
);
},
{
closed = 1;
nodes = (
"110 49 LINE",
"110 54 LINE",
"0 54 LINE",
"0 49 LINE"
);
}
);
width = 110;
}
);
unicode = 004F;
},
{
glyphname = Oacute;
lastChange = "2015-08-07 07:40:10 +0000";
layers = (
{
layerId = "4084567E-8F17-43C6-B459-5B57676AC7A4";
name = Regular;
paths = (
{
closed = 1;
nodes = (
"64 -321 LINE",
"222 -321 LINE",
"222 -307 LINE",
"64 -307 LINE"
);
}
);
width = 0;
}
);
unicode = 00D3;
},
{
glyphname = Ocircumflex;
lastChange = "2015-08-07 07:40:10 +0000";
layers = (
{
layerId = "4084567E-8F17-43C6-B459-5B57676AC7A4";
name = Regular;
paths = (
{
closed = 1;
nodes = (
"217 -304 LINE",
"217 -342 OFFCURVE",
"194 -379 OFFCURVE",
"167 -400 CURVE",
"153 -407 OFFCURVE",
"142 -414 OFFCURVE",
"121 -414 CURVE SMOOTH",
"88 -414 OFFCURVE",
"53 -388 OFFCURVE",
"35 -346 CURVE",
"32 -341 OFFCURVE",
"29 -332 OFFCURVE",
"28 -324 CURVE",
"27 -324 OFFCURVE",
"26 -322 OFFCURVE",
"26 -321 CURVE SMOOTH",
"26 -314 LINE SMOOTH",
"26 -313 OFFCURVE",
"26 -312 OFFCURVE",
"25 -308 CURVE",
"25 -304 LINE",
"15 -304 LINE",
"16 -324 OFFCURVE",
"21 -344 OFFCURVE",
"24 -361 CURVE",
"31 -379 OFFCURVE",
"38 -397 OFFCURVE",
"46 -410 CURVE",
"56 -425 OFFCURVE",
"68 -437 OFFCURVE",
"80 -447 CURVE",
"93 -453 OFFCURVE",
"106 -458 OFFCURVE",
"121 -458 CURVE SMOOTH",
"137 -458 OFFCURVE",
"151 -453 OFFCURVE",
"164 -447 CURVE",
"190 -426 OFFCURVE",
"208 -400 OFFCURVE",
"218 -362 CURVE SMOOTH",
"223 -343 OFFCURVE",
"227 -324 OFFCURVE",
"229 -304 CURVE"
);
},
{
closed = 1;
nodes = (
"139 -313 OFFCURVE",
"129 -304 OFFCURVE",
"121 -304 CURVE SMOOTH",
"118 -304 OFFCURVE",
"113 -306 OFFCURVE",
"108 -311 CURVE",
"104 -313 OFFCURVE",
"102 -318 OFFCURVE",
"102 -324 CURVE SMOOTH",
"102 -330 OFFCURVE",
"104 -335 OFFCURVE",
"108 -341 CURVE",
"109 -341 OFFCURVE",
"110 -342 OFFCURVE",
"112 -344 CURVE",
"115 -345 OFFCURVE",
"118 -346 OFFCURVE",
"121 -346 CURVE SMOOTH",
"126 -346 OFFCURVE",
"131 -344 OFFCURVE",
"134 -341 CURVE",
"138 -334 OFFCURVE",
"139 -329 OFFCURVE",
"139 -324 CURVE SMOOTH"
);
}
);
width = 0;
}
);
unicode = 00D4;
},
{
glyphname = Ograve;
lastChange = "2015-08-07 07:40:10 +0000";
layers = (
{
layerId = "4084567E-8F17-43C6-B459-5B57676AC7A4";
name = Regular;
paths = (
{
closed = 1;
nodes = (
"0 546 LINE",
"220 546 LINE",
"220 551 LINE",
"0 551 LINE"
);
},
{
closed = 1;
nodes = (
"111 478 LINE",
"111 427 LINE",
"0 427 LINE",
"0 422 LINE",
"86 422 LINE",
"35 408 OFFCURVE",
"2 359 OFFCURVE",
"2 304 CURVE SMOOTH",
"2 303 LINE",
"0 303 LINE",
"0 298 LINE",
"2 298 LINE",
"5 237 OFFCURVE",
"50 184 OFFCURVE",
"111 179 CURVE",
"111 178 LINE",
"0 178 LINE",
"0 173 LINE",
"111 173 LINE",
"111 127 LINE",
"124 127 LINE",
"124 173 LINE",
"220 173 LINE",
"220 178 LINE",
"124 178 LINE",
"124 179 LINE",
"150 181 OFFCURVE",
"180 198 OFFCURVE",
"198 218 CURVE",
"206 228 OFFCURVE",
"216 255 OFFCURVE",
"216 268 CURVE",
"205 268 LINE",
"205 228 OFFCURVE",
"167 194 OFFCURVE",
"124 193 CURVE",
"124 298 LINE",
"220 298 LINE",
"220 303 LINE",
"124 303 LINE",
"124 415 LINE",
"133 415 LINE SMOOTH",
"153 415 OFFCURVE",
"169 408 OFFCURVE",
"182 396 CURVE",
"185 394 OFFCURVE",
"186 390 OFFCURVE",
"186 389 CURVE SMOOTH",
"186 386 OFFCURVE",
"182 384 OFFCURVE",
"176 384 CURVE SMOOTH",
"156 384 OFFCURVE",
"134 371 OFFCURVE",
"134 353 CURVE SMOOTH",
"134 329 OFFCURVE",
"154 315 OFFCURVE",
"179 315 CURVE SMOOTH",
"196 315 OFFCURVE",
"220 335 OFFCURVE",
"220 353 CURVE SMOOTH",
"220 390 OFFCURVE",
"191 413 OFFCURVE",
"153 422 CURVE",
"220 422 LINE",
"220 427 LINE",
"124 427 LINE",
"124 478 LINE"
);
},
{
closed = 1;
nodes = (
"62 303 LINE",
"62 372 OFFCURVE",
"80 403 OFFCURVE",
"111 412 CURVE",
"111 303 LINE"
);
},
{
closed = 1;
nodes = (
"100 197 OFFCURVE",
"91 202 OFFCURVE",
"84 210 CURVE SMOOTH",
"69 227 OFFCURVE",
"62 257 OFFCURVE",
"62 298 CURVE",
"111 298 LINE",
"111 194 LINE"
);
},
{
closed = 1;
nodes = (
"220 49 LINE",
"220 54 LINE",
"0 54 LINE",
"0 49 LINE"
);
}
);
width = 220;
}
);
unicode = 00D2;
},
{
glyphname = Oslash;
lastChange = "2015-08-07 07:40:10 +0000";
layers = (
{
layerId = "4084567E-8F17-43C6-B459-5B57676AC7A4";
name = Regular;
paths = (
{
closed = 1;
nodes = (
"0 546 LINE",
"50 546 LINE",
"50 551 LINE",
"0 551 LINE"
);
},
{
closed = 1;
nodes = (
"49 503 OFFCURVE",
"38 516 OFFCURVE",
"26 516 CURVE SMOOTH",
"11 516 OFFCURVE",
"0 503 OFFCURVE",
"0 490 CURVE SMOOTH",
"0 478 OFFCURVE",
"11 467 OFFCURVE",
"26 467 CURVE SMOOTH",
"38 467 OFFCURVE",
"49 478 OFFCURVE",
"49 490 CURVE SMOOTH"
);
},
{
closed = 1;
nodes = (
"50 422 LINE",
"50 427 LINE",
"0 427 LINE",
"0 422 LINE"
);
},
{
closed = 1;
nodes = (
"50 298 LINE",
"50 303 LINE",
"0 303 LINE",
"0 298 LINE"
);
},
{
closed = 1;
nodes = (
"50 173 LINE",
"50 178 LINE",
"0 178 LINE",
"0 173 LINE"
);
},
{
closed = 1;
nodes = (
"50 49 LINE",
"50 54 LINE",
"0 54 LINE",
"0 49 LINE"
);
}
);
width = 50;
}
);
unicode = 00D8;
},
{
glyphname = OE;
lastChange = "2015-08-07 07:40:10 +0000";
layers = (
{
layerId = "4084567E-8F17-43C6-B459-5B57676AC7A4";
name = Regular;
paths = (
{
closed = 1;
nodes = (
"0 546 LINE",
"50 546 LINE",
"50 551 LINE",
"0 551 LINE"
);
},
{
closed = 1;
nodes = (
"50 422 LINE",
"50 427 LINE",
"0 427 LINE",
"0 422 LINE"
);
},
{
closed = 1;
nodes = (
"50 298 LINE",
"50 303 LINE",
"0 303 LINE",
"0 298 LINE"
);
},
{
closed = 1;
nodes = (
"50 173 LINE",
"50 178 LINE",
"0 178 LINE",
"0 173 LINE"
);
},
{
closed = 1;
nodes = (
"50 49 LINE",
"50 54 LINE",
"0 54 LINE",
"0 49 LINE"
);
},
{
closed = 1;
nodes = (
"11 -125 OFFCURVE",
"0 -138 OFFCURVE",
"0 -151 CURVE SMOOTH",
"0 -163 OFFCURVE",
"11 -174 OFFCURVE",
"26 -174 CURVE SMOOTH",
"38 -174 OFFCURVE",
"49 -163 OFFCURVE",
"49 -151 CURVE SMOOTH",
"49 -138 OFFCURVE",
"38 -125 OFFCURVE",
"26 -125 CURVE SMOOTH"
);
}
);
width = 50;
}
);
unicode = 0152;
},
{
glyphname = P;
lastChange = "2015-08-07 07:40:10 +0000";
layers = (
{
layerId = "4084567E-8F17-43C6-B459-5B57676AC7A4";
name = Regular;
paths = (
{
closed = 1;
nodes = (
"87 613 LINE",
"74 610 LINE",
"74 552 LINE",
"70 551 LINE",
"39 551 LINE",
"39 600 LINE",
"24 596 LINE",
"24 551 LINE",
"0 551 LINE",
"0 546 LINE",
"24 546 LINE",
"24 539 LINE",
"0 533 LINE",
"0 501 LINE",
"24 507 LINE",
"24 449 LINE",
"0 443 LINE",
"0 411 LINE",
"24 417 LINE",
"24 363 LINE",
"39 367 LINE",
"39 421 LINE",
"43 422 LINE",
"74 422 LINE",
"74 377 LINE",
"87 381 LINE",
"87 422 LINE",
"110 422 LINE",
"110 427 LINE",
"87 427 LINE",
"87 434 LINE",
"110 440 LINE",
"110 471 LINE",
"87 465 LINE",
"87 523 LINE",
"110 529 LINE",
"110 561 LINE",
"87 555 LINE"
);
},
{
closed = 1;
nodes = (
"39 546 LINE",
"51 546 LINE",
"39 543 LINE"
);
},
{
closed = 1;
nodes = (
"74 519 LINE",
"74 461 LINE",
"38 452 LINE",
"38 510 LINE"
);
},
{
closed = 1;
nodes = (
"74 430 LINE",
"74 427 LINE",
"62 427 LINE"
);
},
{
closed = 1;
nodes = (
"110 298 LINE",
"110 303 LINE",
"0 303 LINE",
"0 298 LINE"
);
},
{
closed = 1;
nodes = (
"110 173 LINE",
"110 178 LINE",
"0 178 LINE",
"0 173 LINE"
);
},
{
closed = 1;
nodes = (
"110 49 LINE",
"110 54 LINE",
"0 54 LINE",
"0 49 LINE"
);
}
);
width = 110;
}
);
unicode = 0050;
},
{
glyphname = Q;
lastChange = "2015-08-07 07:40:10 +0000";
layers = (
{
layerId = "4084567E-8F17-43C6-B459-5B57676AC7A4";
name = Regular;
paths = (
{
closed = 1;
nodes = (
"0 546 LINE",
"110 546 LINE",
"110 551 LINE",
"0 551 LINE"
);
},
{
closed = 1;
nodes = (
"110 422 LINE",
"110 427 LINE",
"0 427 LINE",
"0 422 LINE"
);
},
{
closed = 1;
nodes = (
"110 298 LINE",
"110 303 LINE",
"0 303 LINE",
"0 298 LINE"
);
},
{
closed = 1;
nodes = (
"110 173 LINE",
"110 178 LINE",
"0 178 LINE",
"0 173 LINE"
);
},
{
closed = 1;
nodes = (
"83 49 LINE",
"74 47 LINE",
"74 -11 LINE",
"39 -20 LINE",
"39 37 LINE",
"24 33 LINE",
"24 -24 LINE",
"0 -30 LINE",
"0 -62 LINE",
"24 -56 LINE",
"24 -114 LINE",
"0 -120 LINE",
"0 -152 LINE",
"24 -146 LINE",
"24 -200 LINE",
"39 -196 LINE",
"39 -142 LINE",
"74 -133 LINE",
"74 -186 LINE",
"87 -182 LINE",
"87 -129 LINE",
"110 -123 LINE",
"110 -92 LINE",
"87 -98 LINE",
"87 -40 LINE",
"110 -34 LINE",
"110 -2 LINE",
"87 -8 LINE",
"87 49 LINE",
"110 49 LINE",
"110 54 LINE",
"0 54 LINE",
"0 49 LINE"
);
},
{
closed = 1;
nodes = (
"38 -111 LINE",
"38 -53 LINE",
"74 -44 LINE",
"74 -102 LINE"
);
}
);
width = 110;
}
);
unicode = 0051;
},
{
glyphname = R;
lastChange = "2015-08-07 07:40:10 +0000";
layers = (
{
layerId = "4084567E-8F17-43C6-B459-5B57676AC7A4";
name = Regular;
paths = (
{
closed = 1;
nodes = (
"0 546 LINE",
"110 546 LINE",
"110 551 LINE",
"0 551 LINE"
);
},
{
closed = 1;
nodes = (
"110 422 LINE",
"110 427 LINE",
"0 427 LINE",
"0 422 LINE"
);
},
{
closed = 1;
nodes = (
"110 298 LINE",
"110 303 LINE",
"0 303 LINE",
"0 298 LINE"
);
},
{
closed = 1;
nodes = (
"74 245 LINE",
"74 187 LINE",
"39 178 LINE",
"39 235 LINE",
"24 231 LINE",
"24 178 LINE",
"0 178 LINE",
"0 173 LINE",
"20 173 LINE",
"0 168 LINE",
"0 136 LINE",
"24 142 LINE",
"24 84 LINE",
"0 78 LINE",
"0 46 LINE",
"12 49 LINE",
"24 49 LINE",
"24 -2 LINE",
"39 2 LINE",
"39 49 LINE",
"74 49 LINE",
"74 12 LINE",
"87 16 LINE",
"87 49 LINE",
"110 49 LINE",
"110 54 LINE",
"87 54 LINE",
"87 69 LINE",
"110 75 LINE",
"110 106 LINE",
"87 100 LINE",
"87 158 LINE",
"110 164 LINE",
"110 196 LINE",
"87 190 LINE",
"87 248 LINE"
);
},
{
closed = 1;
nodes = (
"74 96 LINE",
"38 87 LINE",
"38 145 LINE",
"74 154 LINE"
);
},
{
closed = 1;
nodes = (
"39 56 LINE",
"74 65 LINE",
"74 54 LINE",
"39 54 LINE"
);
}
);
width = 110;
}
);
unicode = 0052;
},
{
glyphname = S;
lastChange = "2015-08-07 07:40:10 +0000";
layers = (
{
layerId = "4084567E-8F17-43C6-B459-5B57676AC7A4";
name = Regular;
paths = (
{
closed = 1;
nodes = (
"0 546 LINE",
"304 546 LINE",
"304 551 LINE",
"0 551 LINE"
);
},
{
closed = 1;
nodes = (
"304 422 LINE",
"304 427 LINE",
"0 427 LINE",
"0 422 LINE"
);
},
{
closed = 1;
nodes = (
"304 298 LINE",
"304 303 LINE",
"0 303 LINE",
"0 298 LINE"
);
},
{
closed = 1;
nodes = (
"235 249 OFFCURVE",
"214 268 OFFCURVE",
"210 296 CURVE",
"192 296 LINE",
"192 178 LINE",
"0 178 LINE",
"0 173 LINE",
"192 173 LINE",
"192 54 LINE",
"0 54 LINE",
"0 49 LINE",
"192 49 LINE",
"192 -74 LINE",
"14 -74 LINE",
"14 -79 LINE",
"125 -79 LINE",
"53 -96 OFFCURVE",
"35 -144 OFFCURVE",
"45 -168 CURVE SMOOTH",
"56 -196 OFFCURVE",
"87 -199 OFFCURVE",
"110 -199 CURVE SMOOTH",
"159 -199 OFFCURVE",
"204 -172 OFFCURVE",
"210 -137 CURVE",
"210 -79 LINE",
"270 -79 LINE",
"270 -74 LINE",
"210 -74 LINE",
"210 49 LINE",
"276 49 LINE",
"274 21 OFFCURVE",
"267 -8 OFFCURVE",
"255 -36 CURVE",
"268 -36 LINE",
"285 -8 OFFCURVE",
"295 21 OFFCURVE",
"299 49 CURVE",
"304 49 LINE",
"304 54 LINE",
"300 54 LINE",
"306 96 OFFCURVE",
"299 136 OFFCURVE",
"283 173 CURVE",
"304 173 LINE",
"304 178 LINE",
"281 178 LINE",
"272 197 OFFCURVE",
"261 215 OFFCURVE",
"248 232 CURVE SMOOTH"
);
},
{
closed = 1;
nodes = (
"210 54 LINE",
"210 173 LINE",
"220 173 LINE",
"262 153 OFFCURVE",
"279 107 OFFCURVE",
"276 54 CURVE"
);
},
{
closed = 1;
nodes = (
"190 -86 OFFCURVE",
"182 -82 OFFCURVE",
"171 -79 CURVE",
"192 -79 LINE",
"192 -89 LINE"
);
}
);
width = 304;
}
);
unicode = 0053;
},
{
glyphname = T;
lastChange = "2015-08-07 07:40:10 +0000";
layers = (
{
layerId = "4084567E-8F17-43C6-B459-5B57676AC7A4";
name = Regular;
paths = (
{
closed = 1;
nodes = (
"0 546 LINE",
"110 546 LINE",
"110 551 LINE",
"0 551 LINE"
);
},
{
closed = 1;
nodes = (
"110 422 LINE",
"110 427 LINE",
"0 427 LINE",
"0 422 LINE"
);
},
{
closed = 1;
nodes = (
"74 298 LINE",
"74 241 LINE",
"39 232 LINE",
"39 289 LINE",
"24 285 LINE",
"24 228 LINE",
"0 222 LINE",
"0 190 LINE",
"24 196 LINE",
"24 178 LINE",
"0 178 LINE",
"0 173 LINE",
"24 173 LINE",
"24 138 LINE",
"0 132 LINE",
"0 100 LINE",
"24 106 LINE",
"24 54 LINE",
"0 54 LINE",
"0 49 LINE",
"110 49 LINE",
"110 54 LINE",
"32 54 LINE",
"39 56 LINE",
"39 110 LINE",
"74 119 LINE",
"74 66 LINE",
"87 70 LINE",
"87 123 LINE",
"110 129 LINE",
"110 160 LINE",
"87 154 LINE",
"87 173 LINE",
"110 173 LINE",
"110 178 LINE",
"87 178 LINE",
"87 212 LINE",
"110 218 LINE",
"110 250 LINE",
"87 244 LINE",
"87 298 LINE",
"110 298 LINE",
"110 303 LINE",
"0 303 LINE",
"0 298 LINE"
);
},
{
closed = 1;
nodes = (
"38 199 LINE",
"74 208 LINE",
"74 178 LINE",
"38 178 LINE"
);
},
{
closed = 1;
nodes = (
"38 141 LINE",
"38 173 LINE",
"74 173 LINE",
"74 150 LINE"
);
}
);
width = 110;
}
);
unicode = 0054;
},
{
glyphname = U;
lastChange = "2015-08-07 07:40:10 +0000";
layers = (
{
layerId = "4084567E-8F17-43C6-B459-5B57676AC7A4";
name = Regular;
paths = (
{
closed = 1;
nodes = (
"0 546 LINE",
"110 546 LINE",
"110 551 LINE",
"0 551 LINE"
);
},
{
closed = 1;
nodes = (
"0 422 LINE",
"74 422 LINE",
"74 366 LINE",
"39 357 LINE",
"39 414 LINE",
"24 410 LINE",
"24 353 LINE",
"0 347 LINE",
"0 315 LINE",
"24 321 LINE",
"24 303 LINE",
"0 303 LINE",
"0 298 LINE",
"24 298 LINE",
"24 263 LINE",
"0 257 LINE",
"0 225 LINE",
"24 231 LINE",
"24 178 LINE",
"0 178 LINE",
"0 173 LINE",
"110 173 LINE",
"110 178 LINE",
"28 178 LINE",
"39 181 LINE",
"39 235 LINE",
"74 244 LINE",
"74 191 LINE",
"87 195 LINE",
"87 248 LINE",
"110 254 LINE",
"110 285 LINE",
"87 279 LINE",
"87 298 LINE",
"110 298 LINE",
"110 303 LINE",
"87 303 LINE",
"87 337 LINE",
"110 343 LINE",
"110 375 LINE",
"87 369 LINE",
"87 422 LINE",
"110 422 LINE",
"110 427 LINE",
"0 427 LINE"
);
},
{
closed = 1;
nodes = (
"38 324 LINE",
"74 333 LINE",
"74 303 LINE",
"38 303 LINE"
);
},
{
closed = 1;
nodes = (
"38 266 LINE",
"38 298 LINE",
"74 298 LINE",
"74 275 LINE"
);
},
{
closed = 1;
nodes = (
"110 49 LINE",
"110 54 LINE",
"0 54 LINE",
"0 49 LINE"
);
}
);
width = 110;
}
);
unicode = 0055;
},
{
glyphname = Uacute;
lastChange = "2015-08-07 07:40:10 +0000";
layers = (
{
layerId = "4084567E-8F17-43C6-B459-5B57676AC7A4";
name = Regular;
paths = (
{
closed = 1;
nodes = (
"188 -356 LINE",
"206 -356 LINE",
"206 -364 LINE",
"141 -364 LINE",
"141 -356 LINE",
"159 -356 LINE",
"213 -230 LINE",
"215 -223 LINE",
"215 -219 OFFCURVE",
"211 -217 OFFCURVE",
"208 -217 CURVE SMOOTH",
"193 -217 OFFCURVE",
"180 -245 OFFCURVE",
"174 -262 CURVE",
"169 -262 LINE",
"175 -243 OFFCURVE",
"189 -212 OFFCURVE",
"212 -212 CURVE SMOOTH",
"220 -212 OFFCURVE",
"226 -217 OFFCURVE",
"226 -225 CURVE",
"230 -216 OFFCURVE",
"248 -206 OFFCURVE",
"265 -206 CURVE SMOOTH",
"269 -206 OFFCURVE",
"272 -206 OFFCURVE",
"275 -208 CURVE",
"291 -212 OFFCURVE",
"298 -224 OFFCURVE",
"298 -243 CURVE SMOOTH",
"298 -262 OFFCURVE",
"291 -281 OFFCURVE",
"270 -299 CURVE SMOOTH",
"260 -307 OFFCURVE",
"248 -312 OFFCURVE",
"239 -312 CURVE SMOOTH",
"229 -312 OFFCURVE",
"221 -304 OFFCURVE",
"215 -290 CURVE"
);
},
{
closed = 1;
nodes = (
"254 -217 OFFCURVE",
"239 -234 OFFCURVE",
"231 -251 CURVE",
"224 -263 OFFCURVE",
"220 -294 OFFCURVE",
"233 -294 CURVE SMOOTH",
"243 -294 OFFCURVE",
"260 -278 OFFCURVE",
"267 -262 CURVE",
"276 -244 OFFCURVE",
"281 -217 OFFCURVE",
"265 -217 CURVE SMOOTH"
);
},
{
closed = 1;
nodes = (
"34 -247 OFFCURVE",
"45 -221 OFFCURVE",
"17 -231 CURVE",
"0 -238 OFFCURVE",
"-12 -257 OFFCURVE",
"-25 -278 CURVE",
"-18 -278 LINE",
"-18 -278 OFFCURVE",
"31 -212 OFFCURVE",
"17 -256 CURVE SMOOTH",
"-3 -322 LINE",
"21 -322 LINE",
"40 -254 LINE",
"50 -245 OFFCURVE",
"54 -241 OFFCURVE",
"63 -241 CURVE SMOOTH",
"77 -241 OFFCURVE",
"77 -251 OFFCURVE",
"73 -266 CURVE SMOOTH",
"56 -322 LINE",
"81 -322 LINE",
"97 -254 LINE",
"107 -245 OFFCURVE",
"111 -242 OFFCURVE",
"119 -242 CURVE SMOOTH",
"137 -242 OFFCURVE",
"129 -251 OFFCURVE",
"114 -308 CURVE",
"107 -339 OFFCURVE",
"158 -339 OFFCURVE",
"175 -284 CURVE",
"167 -284 LINE",
"161 -303 OFFCURVE",
"133 -327 OFFCURVE",
"135 -315 CURVE",
"149 -250 OFFCURVE",
"161 -228 OFFCURVE",
"135 -228 CURVE SMOOTH",
"121 -228 OFFCURVE",
"108 -231 OFFCURVE",
"97 -244 CURVE",
"95 -234 OFFCURVE",
"85 -228 OFFCURVE",
"71 -228 CURVE SMOOTH",
"58 -228 OFFCURVE",
"50 -231 OFFCURVE",
"36 -245 CURVE SMOOTH"
);
}
);
width = 0;
}
);
unicode = 00DA;
},
{
glyphname = V;
lastChange = "2015-08-07 07:40:10 +0000";
layers = (
{
layerId = "4084567E-8F17-43C6-B459-5B57676AC7A4";
name = Regular;
paths = (
{
closed = 1;
nodes = (
"110 681 LINE",
"87 675 LINE",
"87 622 LINE",
"74 618 LINE",
"74 671 LINE",
"39 662 LINE",
"39 608 LINE",
"24 604 LINE",
"24 658 LINE",
"0 652 LINE",
"0 684 LINE",
"24 690 LINE",
"24 748 LINE",
"0 742 LINE",
"0 774 LINE",
"24 780 LINE",
"24 837 LINE",
"39 841 LINE",
"39 784 LINE",
"74 793 LINE",
"74 851 LINE",
"87 854 LINE",
"87 796 LINE",
"110 802 LINE",
"110 770 LINE",
"87 764 LINE",
"87 706 LINE",
"110 712 LINE"
);
},
{
closed = 1;
nodes = (
"74 702 LINE",
"74 760 LINE",
"38 751 LINE",
"38 693 LINE"
);
},
{
closed = 1;
nodes = (
"110 551 LINE",
"110 546 LINE",
"0 546 LINE",
"0 551 LINE"
);
},
{
closed = 1;
nodes = (
"110 427 LINE",
"110 422 LINE",
"0 422 LINE",
"0 427 LINE"
);
},
{
closed = 1;
nodes = (
"110 303 LINE",
"110 298 LINE",
"0 298 LINE",
"0 303 LINE"
);
},
{
closed = 1;
nodes = (
"110 178 LINE",
"110 173 LINE",
"0 173 LINE",
"0 178 LINE"
);
},
{
closed = 1;
nodes = (
"110 54 LINE",
"110 49 LINE",
"0 49 LINE",
"0 54 LINE"
);
}
);
width = 110;
}
);
unicode = 0056;
},
{
glyphname = W;
lastChange = "2015-08-07 07:40:10 +0000";
layers = (
{
layerId = "4084567E-8F17-43C6-B459-5B57676AC7A4";
name = Regular;
paths = (
{
closed = 1;
nodes = (
"0 546 LINE",
"110 546 LINE",
"110 551 LINE",
"0 551 LINE"
);
},
{
closed = 1;
nodes = (
"110 422 LINE",
"110 427 LINE",
"0 427 LINE",
"0 422 LINE"
);
},
{
closed = 1;
nodes = (
"110 298 LINE",
"110 303 LINE",
"0 303 LINE",
"0 298 LINE"
);
},
{
closed = 1;
nodes = (
"110 173 LINE",
"110 178 LINE",
"0 178 LINE",
"0 173 LINE"
);
},
{
closed = 1;
nodes = (
"74 112 LINE",
"74 54 LINE",
"39 54 LINE",
"39 102 LINE",
"24 98 LINE",
"24 54 LINE",
"0 54 LINE",
"0 49 LINE",
"24 49 LINE",
"24 41 LINE",
"0 35 LINE",
"0 3 LINE",
"24 9 LINE",
"24 -49 LINE",
"0 -55 LINE",
"0 -87 LINE",
"24 -81 LINE",
"24 -135 LINE",
"39 -131 LINE",
"39 -77 LINE",
"74 -68 LINE",
"74 -121 LINE",
"87 -117 LINE",
"87 -64 LINE",
"110 -58 LINE",
"110 -27 LINE",
"87 -33 LINE",
"87 25 LINE",
"110 31 LINE",
"110 63 LINE",
"87 57 LINE",
"87 115 LINE"
);
},
{
closed = 1;
nodes = (
"39 49 LINE",
"55 49 LINE",
"39 45 LINE"
);
},
{
closed = 1;
nodes = (
"38 -46 LINE",
"38 12 LINE",
"74 21 LINE",
"74 -37 LINE"
);
}
);
width = 110;
}
);
unicode = 0057;
},
{
glyphname = X;
lastChange = "2015-08-07 07:40:10 +0000";
layers = (
{
layerId = "4084567E-8F17-43C6-B459-5B57676AC7A4";
name = Regular;
paths = (
{
closed = 1;
nodes = (
"110 551 LINE",
"110 546 LINE",
"0 546 LINE",
"0 551 LINE"
);
},
{
closed = 1;
nodes = (
"110 427 LINE",
"110 422 LINE",
"0 422 LINE",
"0 427 LINE"
);
},
{
closed = 1;
nodes = (
"110 303 LINE",
"110 298 LINE",
"0 298 LINE",
"0 303 LINE"
);
},
{
closed = 1;
nodes = (
"110 178 LINE",
"110 173 LINE",
"0 173 LINE",
"0 178 LINE"
);
},
{
closed = 1;
nodes = (
"110 54 LINE",
"110 49 LINE",
"0 49 LINE",
"0 54 LINE"
);
},
{
closed = 1;
nodes = (
"110 -178 LINE",
"87 -184 LINE",
"87 -237 LINE",
"74 -241 LINE",
"74 -188 LINE",
"39 -197 LINE",
"39 -251 LINE",
"24 -255 LINE",
"24 -201 LINE",
"0 -207 LINE",
"0 -175 LINE",
"24 -169 LINE",
"24 -111 LINE",
"0 -117 LINE",
"0 -85 LINE",
"24 -79 LINE",
"24 -22 LINE",
"39 -18 LINE",
"39 -75 LINE",
"74 -66 LINE",
"74 -8 LINE",
"87 -5 LINE",
"87 -63 LINE",
"110 -57 LINE",
"110 -89 LINE",
"87 -95 LINE",
"87 -153 LINE",
"110 -147 LINE"
);
},
{
closed = 1;
nodes = (
"74 -157 LINE",
"74 -99 LINE",
"38 -108 LINE",
"38 -166 LINE"
);
}
);
width = 110;
}
);
unicode = 0058;
},
{
glyphname = Y;
lastChange = "2015-08-07 07:40:10 +0000";
layers = (
{
layerId = "4084567E-8F17-43C6-B459-5B57676AC7A4";
name = Regular;
paths = (
{
closed = 1;
nodes = (
"0 546 LINE",
"110 546 LINE",
"110 551 LINE",
"0 551 LINE"
);
},
{
closed = 1;
nodes = (
"110 422 LINE",
"110 427 LINE",
"0 427 LINE",
"0 422 LINE"
);
},
{
closed = 1;
nodes = (
"74 362 LINE",
"74 304 LINE",
"70 303 LINE",
"39 303 LINE",
"39 352 LINE",
"24 348 LINE",
"24 303 LINE",
"0 303 LINE",
"0 298 LINE",
"24 298 LINE",
"24 291 LINE",
"0 285 LINE",
"0 253 LINE",
"24 259 LINE",
"24 201 LINE",
"0 195 LINE",
"0 163 LINE",
"24 169 LINE",
"24 115 LINE",
"39 119 LINE",
"39 173 LINE",
"74 173 LINE",
"74 129 LINE",
"87 133 LINE",
"87 173 LINE",
"110 173 LINE",
"110 178 LINE",
"87 178 LINE",
"87 186 LINE",
"110 192 LINE",
"110 223 LINE",
"87 217 LINE",
"87 275 LINE",
"110 281 LINE",
"110 313 LINE",
"87 307 LINE",
"87 365 LINE"
);
},
{
closed = 1;
nodes = (
"39 298 LINE",
"51 298 LINE",
"39 295 LINE"
);
},
{
closed = 1;
nodes = (
"74 271 LINE",
"74 213 LINE",
"38 204 LINE",
"38 262 LINE"
);
},
{
closed = 1;
nodes = (
"74 182 LINE",
"74 178 LINE",
"58 178 LINE"
);
},
{
closed = 1;
nodes = (
"110 49 LINE",
"110 54 LINE",
"0 54 LINE",
"0 49 LINE"
);
}
);
width = 110;
}
);
unicode = 0059;
},
{
glyphname = Z;
lastChange = "2015-08-07 07:40:10 +0000";
layers = (
{
layerId = "4084567E-8F17-43C6-B459-5B57676AC7A4";
name = Regular;
paths = (
{
closed = 1;
nodes = (
"110 551 LINE",
"110 546 LINE",
"0 546 LINE",
"0 551 LINE"
);
},
{
closed = 1;
nodes = (
"110 427 LINE",
"110 422 LINE",
"0 422 LINE",
"0 427 LINE"
);
},
{
closed = 1;
nodes = (
"110 303 LINE",
"110 298 LINE",
"0 298 LINE",
"0 303 LINE"
);
},
{
closed = 1;
nodes = (
"110 178 LINE",
"110 173 LINE",
"0 173 LINE",
"0 178 LINE"
);
},
{
closed = 1;
nodes = (
"110 54 LINE",
"110 49 LINE",
"0 49 LINE",
"0 54 LINE"
);
},
{
closed = 1;
nodes = (
"110 -235 LINE",
"87 -241 LINE",
"87 -294 LINE",
"74 -298 LINE",
"74 -245 LINE",
"39 -254 LINE",
"39 -308 LINE",
"24 -312 LINE",
"24 -258 LINE",
"0 -264 LINE",
"0 -232 LINE",
"24 -226 LINE",
"24 -168 LINE",
"0 -174 LINE",
"0 -142 LINE",
"24 -136 LINE",
"24 -79 LINE",
"39 -75 LINE",
"39 -132 LINE",
"74 -123 LINE",
"74 -65 LINE",
"87 -62 LINE",
"87 -120 LINE",
"110 -114 LINE",
"110 -146 LINE",
"87 -152 LINE",
"87 -210 LINE",
"110 -204 LINE"
);
},
{
closed = 1;
nodes = (
"74 -214 LINE",
"74 -156 LINE",
"38 -165 LINE",
"38 -223 LINE"
);
}
);
width = 110;
}
);
unicode = 005A;
},
{
glyphname = a;
lastChange = "2015-08-07 07:40:10 +0000";
layers = (
{
layerId = "4084567E-8F17-43C6-B459-5B57676AC7A4";
name = Regular;
paths = (
{
closed = 1;
nodes = (
"0 546 LINE",
"270 546 LINE",
"270 551 LINE",
"0 551 LINE"
);
},
{
closed = 1;
nodes = (
"270 422 LINE",
"270 427 LINE",
"0 427 LINE",
"0 422 LINE"
);
},
{
closed = 1;
nodes = (
"270 298 LINE",
"270 303 LINE",
"0 303 LINE",
"0 298 LINE"
);
},
{
closed = 1;
nodes = (
"191 238 LINE",
"191 178 LINE",
"0 178 LINE",
"0 173 LINE",
"191 173 LINE",
"191 54 LINE",
"0 54 LINE",
"0 49 LINE",
"191 49 LINE",
"191 -71 LINE",
"14 -71 LINE",
"14 -76 LINE",
"191 -76 LINE",
"191 -147 LINE",
"186 -140 OFFCURVE",
"157 -130 OFFCURVE",
"128 -136 CURVE SMOOTH",
"78 -147 OFFCURVE",
"53 -172 OFFCURVE",
"45 -195 CURVE",
"11 -195 LINE",
"11 -200 LINE",
"43 -200 LINE",
"41 -210 OFFCURVE",
"41 -219 OFFCURVE",
"44 -226 CURVE SMOOTH",
"55 -254 OFFCURVE",
"86 -257 OFFCURVE",
"109 -257 CURVE SMOOTH",
"156 -257 OFFCURVE",
"199 -232 OFFCURVE",
"208 -199 CURVE",
"267 -199 LINE",
"267 -194 LINE",
"209 -194 LINE",
"209 -76 LINE",
"270 -76 LINE",
"270 -71 LINE",
"209 -71 LINE",
"209 49 LINE",
"270 49 LINE",
"270 54 LINE",
"209 54 LINE",
"209 173 LINE",
"270 173 LINE",
"270 178 LINE",
"209 178 LINE",
"209 238 LINE"
);
}
);
width = 270;
}
);
unicode = 0061;
},
{
glyphname = aring;
lastChange = "2015-08-07 07:40:10 +0000";
layers = (
{
layerId = "4084567E-8F17-43C6-B459-5B57676AC7A4";
name = Regular;
paths = (
{
closed = 1;
nodes = (
"0 546 LINE",
"270 546 LINE",
"270 551 LINE",
"0 551 LINE"
);
},
{
closed = 1;
nodes = (
"270 422 LINE",
"270 427 LINE",
"0 427 LINE",
"0 422 LINE"
);
},
{
closed = 1;
nodes = (
"270 298 LINE",
"270 303 LINE",
"0 303 LINE",
"0 298 LINE"
);
},
{
closed = 1;
nodes = (
"191 237 LINE",
"191 178 LINE",
"0 178 LINE",
"0 173 LINE",
"191 173 LINE",
"191 54 LINE",
"0 54 LINE",
"0 49 LINE",
"191 49 LINE",
"191 -71 LINE",
"14 -71 LINE",
"14 -76 LINE",
"191 -76 LINE",
"191 -148 LINE",
"186 -141 OFFCURVE",
"157 -131 OFFCURVE",
"128 -137 CURVE SMOOTH",
"79 -147 OFFCURVE",
"54 -172 OFFCURVE",
"45 -195 CURVE",
"10 -195 LINE",
"10 -200 LINE",
"43 -200 LINE",
"41 -210 OFFCURVE",
"41 -220 OFFCURVE",
"44 -227 CURVE SMOOTH",
"55 -255 OFFCURVE",
"86 -258 OFFCURVE",
"109 -258 CURVE SMOOTH",
"156 -258 OFFCURVE",
"200 -233 OFFCURVE",
"208 -200 CURVE",
"266 -200 LINE",
"266 -195 LINE",
"209 -195 LINE",
"209 -76 LINE",
"270 -76 LINE",
"270 -71 LINE",
"209 -71 LINE",
"209 49 LINE",
"270 49 LINE",
"270 54 LINE",
"209 54 LINE",
"209 173 LINE",
"270 173 LINE",
"270 178 LINE",
"209 178 LINE",
"209 237 LINE"
);
},
{
closed = 1;
nodes = (
"106 -165 OFFCURVE",
"170 -140 OFFCURVE",
"190 -160 CURVE SMOOTH",
"199 -169 OFFCURVE",
"195 -182 OFFCURVE",
"183 -195 CURVE",
"74 -195 LINE"
);
},
{
closed = 1;
nodes = (
"54 -222 OFFCURVE",
"59 -211 OFFCURVE",
"69 -200 CURVE",
"179 -200 LINE",
"146 -232 OFFCURVE",
"75 -260 OFFCURVE",
"57 -231 CURVE"
);
}
);
width = 270;
}
);
unicode = 00E5;
},
{
glyphname = ae;
lastChange = "2015-08-07 07:40:10 +0000";
layers = (
{
layerId = "4084567E-8F17-43C6-B459-5B57676AC7A4";
name = Regular;
paths = (
{
closed = 1;
nodes = (
"29 1072 LINE SMOOTH",
"29 1051 OFFCURVE",
"9 1031 OFFCURVE",
"-10 1025 CURVE",
"-18 1022 OFFCURVE",
"-26 1021 OFFCURVE",
"-32 1021 CURVE SMOOTH",
"-46 1021 OFFCURVE",
"-55 1026 OFFCURVE",
"-61 1037 CURVE",
"-62 1041 OFFCURVE",
"-63 1046 OFFCURVE",
"-63 1050 CURVE SMOOTH",
"-63 1068 OFFCURVE",
"-51 1084 OFFCURVE",
"-31 1094 CURVE",
"-23 1095 OFFCURVE",
"-16 1097 OFFCURVE",
"-9 1097 CURVE SMOOTH",
"0 1097 OFFCURVE",
"8 1095 OFFCURVE",
"15 1091 CURVE",
"15 1274 LINE",
"29 1274 LINE"
);
},
{
closed = 1;
nodes = (
"317 1135 OFFCURVE",
"329 1120 OFFCURVE",
"330 1100 CURVE",
"328 1070 OFFCURVE",
"303 1052 OFFCURVE",
"277 1052 CURVE SMOOTH",
"261 1052 OFFCURVE",
"248 1057 OFFCURVE",
"238 1067 CURVE",
"232 1077 OFFCURVE",
"229 1081 OFFCURVE",
"229 1093 CURVE SMOOTH",
"229 1111 OFFCURVE",
"243 1123 OFFCURVE",
"263 1139 CURVE",
"245 1150 OFFCURVE",
"235 1162 OFFCURVE",
"234 1175 CURVE",
"234 1201 OFFCURVE",
"253 1221 OFFCURVE",
"279 1221 CURVE SMOOTH",
"299 1221 OFFCURVE",
"320 1210 OFFCURVE",
"324 1191 CURVE",
"325 1182 OFFCURVE",
"325 1175 OFFCURVE",
"317 1165 CURVE SMOOTH",
"312 1159 OFFCURVE",
"302 1153 OFFCURVE",
"295 1146 CURVE"
);
},
{
closed = 1;
nodes = (
"443 1216 OFFCURVE",
"459 1182 OFFCURVE",
"459 1134 CURVE SMOOTH",
"459 1090 OFFCURVE",
"445 1052 OFFCURVE",
"409 1052 CURVE SMOOTH",
"390 1052 OFFCURVE",
"377 1063 OFFCURVE",
"369 1083 CURVE",
"363 1096 OFFCURVE",
"360 1108 OFFCURVE",
"360 1122 CURVE",
"359 1177 OFFCURVE",
"374 1208 OFFCURVE",
"401 1214 CURVE",
"405 1214 OFFCURVE",
"406 1215 OFFCURVE",
"410 1215 CURVE SMOOTH"
);
},
{
closed = 1;
nodes = (
"251 1163 OFFCURVE",
"255 1162 OFFCURVE",
"283 1150 CURVE",
"302 1159 OFFCURVE",
"312 1172 OFFCURVE",
"310 1186 CURVE",
"304 1204 OFFCURVE",
"290 1213 OFFCURVE",
"275 1211 CURVE SMOOTH",
"260 1209 OFFCURVE",
"247 1196 OFFCURVE",
"248 1181 CURVE"
);
},
{
closed = 1;
nodes = (
"442 1079 OFFCURVE",
"443 1099 OFFCURVE",
"443 1134 CURVE SMOOTH",
"443 1169 OFFCURVE",
"436 1200 OFFCURVE",
"410 1200 CURVE SMOOTH",
"386 1200 OFFCURVE",
"378 1169 OFFCURVE",
"378 1132 CURVE SMOOTH",
"378 1094 OFFCURVE",
"389 1069 OFFCURVE",
"410 1069 CURVE SMOOTH",
"413 1069 OFFCURVE",
"417 1070 OFFCURVE",
"420 1071 CURVE SMOOTH"
);
},
{
closed = 1;
nodes = (
"66 1160 LINE",
"173 1160 LINE",
"173 1147 LINE",
"66 1147 LINE"
);
},
{
closed = 1;
nodes = (
"260 1065 OFFCURVE",
"268 1062 OFFCURVE",
"279 1062 CURVE SMOOTH",
"297 1062 OFFCURVE",
"312 1071 OFFCURVE",
"313 1089 CURVE",
"316 1112 OFFCURVE",
"295 1127 OFFCURVE",
"270 1132 CURVE",
"248 1121 OFFCURVE",
"232 1088 OFFCURVE",
"253 1070 CURVE"
);
},
{
closed = 1;
nodes = (
"66 1110 LINE",
"173 1110 LINE",
"173 1097 LINE",
"66 1097 LINE"
);
}
);
width = 0;
}
);
unicode = 00E6;
},
{
glyphname = b;
lastChange = "2015-08-07 07:40:10 +0000";
layers = (
{
layerId = "4084567E-8F17-43C6-B459-5B57676AC7A4";
name = Regular;
paths = (
{
closed = 1;
nodes = (
"108 786 OFFCURVE",
"92 772 OFFCURVE",
"56 743 CURVE",
"39 728 OFFCURVE",
"28 719 OFFCURVE",
"20 709 CURVE",
"20 968 LINE",
"35 968 LINE",
"35 827 LINE",
"46 837 OFFCURVE",
"58 842 OFFCURVE",
"73 842 CURVE SMOOTH",
"92 842 OFFCURVE",
"108 832 OFFCURVE",
"108 809 CURVE SMOOTH"
);
},
{
closed = 1;
nodes = (
"87 817 OFFCURVE",
"76 825 OFFCURVE",
"65 825 CURVE SMOOTH",
"54 825 OFFCURVE",
"46 822 OFFCURVE",
"35 810 CURVE",
"35 741 LINE",
"54 756 OFFCURVE",
"87 786 OFFCURVE",
"87 804 CURVE SMOOTH"
);
},
{
closed = 1;
nodes = (
"110 551 LINE",
"110 546 LINE",
"0 546 LINE",
"0 551 LINE"
);
},
{
closed = 1;
nodes = (
"110 427 LINE",
"110 422 LINE",
"0 422 LINE",
"0 427 LINE"
);
},
{
closed = 1;
nodes = (
"110 303 LINE",
"110 298 LINE",
"0 298 LINE",
"0 303 LINE"
);
},
{
closed = 1;
nodes = (
"110 178 LINE",
"110 173 LINE",
"0 173 LINE",
"0 178 LINE"
);
},
{
closed = 1;
nodes = (
"110 54 LINE",
"110 49 LINE",
"0 49 LINE",
"0 54 LINE"
);
}
);
width = 110;
}
);
unicode = 0062;
},
{
glyphname = c;
lastChange = "2015-08-07 07:40:10 +0000";
layers = (
{
layerId = "4084567E-8F17-43C6-B459-5B57676AC7A4";
name = Regular;
paths = (
{
closed = 1;
nodes = (
"109 677 OFFCURVE",
"93 663 OFFCURVE",
"57 634 CURVE",
"40 619 OFFCURVE",
"29 610 OFFCURVE",
"21 600 CURVE",
"21 859 LINE",
"36 859 LINE",
"36 718 LINE",
"47 728 OFFCURVE",
"59 733 OFFCURVE",
"74 733 CURVE SMOOTH",
"93 733 OFFCURVE",
"109 723 OFFCURVE",
"109 700 CURVE SMOOTH"
);
},
{
closed = 1;
nodes = (
"88 708 OFFCURVE",
"77 716 OFFCURVE",
"66 716 CURVE SMOOTH",
"55 716 OFFCURVE",
"47 713 OFFCURVE",
"36 701 CURVE",
"36 632 LINE",
"55 647 OFFCURVE",
"88 677 OFFCURVE",
"88 695 CURVE SMOOTH"
);
},
{
closed = 1;
nodes = (
"110 551 LINE",
"110 546 LINE",
"0 546 LINE",
"0 551 LINE"
);
},
{
closed = 1;
nodes = (
"110 427 LINE",
"110 422 LINE",
"0 422 LINE",
"0 427 LINE"
);
},
{
closed = 1;
nodes = (
"110 303 LINE",
"110 298 LINE",
"0 298 LINE",
"0 303 LINE"
);
},
{
closed = 1;
nodes = (
"110 178 LINE",
"110 173 LINE",
"0 173 LINE",
"0 178 LINE"
);
},
{
closed = 1;
nodes = (
"110 54 LINE",
"110 49 LINE",
"0 49 LINE",
"0 54 LINE"
);
}
);
width = 110;
}
);
unicode = 0063;
},
{
glyphname = ccedilla;
lastChange = "2015-08-07 07:40:10 +0000";
layers = (
{
layerId = "4084567E-8F17-43C6-B459-5B57676AC7A4";
name = Regular;
paths = (
{
closed = 1;
nodes = (
"101 746 LINE",
"23 722 LINE",
"23 810 LINE",
"6 805 LINE",
"6 581 LINE",
"83 608 LINE",
"83 551 LINE",
"0 551 LINE",
"0 546 LINE",
"83 546 LINE",
"83 517 LINE",
"101 522 LINE",
"101 546 LINE",
"110 546 LINE",
"110 551 LINE",
"101 551 LINE"
);
},
{
closed = 1;
nodes = (
"23 688 LINE",
"83 712 LINE",
"83 640 LINE",
"23 619 LINE"
);
},
{
closed = 1;
nodes = (
"110 422 LINE",
"110 427 LINE",
"0 427 LINE",
"0 422 LINE"
);
},
{
closed = 1;
nodes = (
"110 298 LINE",
"110 303 LINE",
"0 303 LINE",
"0 298 LINE"
);
},
{
closed = 1;
nodes = (
"110 173 LINE",
"110 178 LINE",
"0 178 LINE",
"0 173 LINE"
);
},
{
closed = 1;
nodes = (
"110 49 LINE",
"110 54 LINE",
"0 54 LINE",
"0 49 LINE"
);
}
);
width = 110;
}
);
unicode = 00E7;
},
{
glyphname = d;
lastChange = "2015-08-07 07:40:10 +0000";
layers = (
{
layerId = "4084567E-8F17-43C6-B459-5B57676AC7A4";
name = Regular;
paths = (
{
closed = 1;
nodes = (
"270 551 LINE",
"59 551 LINE",
"59 625 LINE",
"64 618 OFFCURVE",
"91 609 OFFCURVE",
"121 616 CURVE SMOOTH",
"169 626 OFFCURVE",
"194 650 OFFCURVE",
"202 672 CURVE",
"256 672 LINE",
"256 677 LINE",
"204 677 LINE",
"207 687 OFFCURVE",
"206 697 OFFCURVE",
"203 705 CURVE SMOOTH",
"193 734 OFFCURVE",
"162 737 OFFCURVE",
"139 737 CURVE SMOOTH",
"92 736 OFFCURVE",
"48 710 OFFCURVE",
"39 677 CURVE",
"0 677 LINE",
"0 672 LINE",
"38 672 LINE",
"38 551 LINE",
"0 551 LINE",
"0 546 LINE",
"38 546 LINE",
"39 427 LINE",
"0 427 LINE",
"0 422 LINE",
"39 422 LINE",
"39 303 LINE",
"0 303 LINE",
"0 298 LINE",
"39 298 LINE",
"39 240 LINE",
"58 240 LINE",
"58 298 LINE",
"270 298 LINE",
"270 303 LINE",
"58 303 LINE",
"58 422 LINE",
"270 422 LINE",
"270 427 LINE",
"58 427 LINE",
"59 546 LINE",
"270 546 LINE"
);
},
{
closed = 1;
nodes = (
"270 173 LINE",
"270 178 LINE",
"0 178 LINE",
"0 173 LINE"
);
},
{
closed = 1;
nodes = (
"270 49 LINE",
"270 54 LINE",
"0 54 LINE",
"0 49 LINE"
);
}
);
width = 270;
}
);
unicode = 0064;
},
{
glyphname = e;
lastChange = "2015-08-07 07:40:10 +0000";
layers = (
{
layerId = "4084567E-8F17-43C6-B459-5B57676AC7A4";
name = Regular;
paths = (
{
closed = 1;
nodes = (
"0 546 LINE",
"110 546 LINE",
"110 551 LINE",
"0 551 LINE"
);
},
{
closed = 1;
nodes = (
"110 422 LINE",
"110 427 LINE",
"0 427 LINE",
"0 422 LINE"
);
},
{
closed = 1;
nodes = (
"110 298 LINE",
"110 303 LINE",
"0 303 LINE",
"0 298 LINE"
);
},
{
closed = 1;
nodes = (
"21 228 LINE",
"21 178 LINE",
"0 178 LINE",
"0 173 LINE",
"21 173 LINE",
"21 54 LINE",
"0 54 LINE",
"0 49 LINE",
"21 49 LINE",
"21 -31 LINE",
"29 -21 OFFCURVE",
"40 -12 OFFCURVE",
"57 3 CURVE",
"82 23 OFFCURVE",
"97 36 OFFCURVE",
"104 49 CURVE",
"110 49 LINE",
"110 54 LINE",
"106 54 LINE",
"108 59 OFFCURVE",
"109 64 OFFCURVE",
"109 69 CURVE SMOOTH",
"109 92 OFFCURVE",
"93 102 OFFCURVE",
"74 102 CURVE SMOOTH",
"59 102 OFFCURVE",
"47 97 OFFCURVE",
"36 87 CURVE",
"36 173 LINE",
"110 173 LINE",
"110 178 LINE",
"36 178 LINE",
"36 228 LINE"
);
},
{
closed = 1;
nodes = (
"77 85 OFFCURVE",
"88 77 OFFCURVE",
"88 64 CURVE SMOOTH",
"88 61 OFFCURVE",
"87 58 OFFCURVE",
"85 54 CURVE",
"36 54 LINE",
"36 70 LINE",
"47 82 OFFCURVE",
"55 85 OFFCURVE",
"66 85 CURVE SMOOTH"
);
},
{
closed = 1;
nodes = (
"36 49 LINE",
"83 49 LINE",
"73 32 OFFCURVE",
"50 12 OFFCURVE",
"36 1 CURVE"
);
}
);
width = 110;
}
);
unicode = 0065;
},
{
glyphname = f;
lastChange = "2015-08-07 07:40:10 +0000";
layers = (
{
layerId = "4084567E-8F17-43C6-B459-5B57676AC7A4";
name = Regular;
paths = (
{
closed = 1;
nodes = (
"270 551 LINE",
"75 551 LINE",
"75 672 LINE",
"256 672 LINE",
"256 677 LINE",
"137 677 LINE",
"212 693 OFFCURVE",
"229 741 OFFCURVE",
"219 766 CURVE",
"209 795 OFFCURVE",
"178 798 OFFCURVE",
"155 798 CURVE SMOOTH",
"106 797 OFFCURVE",
"60 769 OFFCURVE",
"54 734 CURVE",
"54 677 LINE",
"0 677 LINE",
"0 672 LINE",
"54 672 LINE",
"54 551 LINE",
"0 551 LINE",
"0 546 LINE",
"54 546 LINE",
"55 427 LINE",
"0 427 LINE",
"0 422 LINE",
"55 422 LINE",
"55 303 LINE",
"0 303 LINE",
"0 298 LINE",
"270 298 LINE",
"270 303 LINE",
"74 303 LINE",
"74 422 LINE",
"270 422 LINE",
"270 427 LINE",
"74 427 LINE",
"75 546 LINE",
"270 546 LINE"
);
},
{
closed = 1;
nodes = (
"77 683 OFFCURVE",
"84 679 OFFCURVE",
"93 677 CURVE",
"75 677 LINE",
"75 686 LINE"
);
},
{
closed = 1;
nodes = (
"270 173 LINE",
"270 178 LINE",
"0 178 LINE",
"0 173 LINE"
);
},
{
closed = 1;
nodes = (
"270 49 LINE",
"270 54 LINE",
"0 54 LINE",
"0 49 LINE"
);
}
);
width = 270;
}
);
unicode = 0066;
},
{
glyphname = g;
lastChange = "2015-08-07 07:40:10 +0000";
layers = (
{
layerId = "4084567E-8F17-43C6-B459-5B57676AC7A4";
name = Regular;
paths = (
{
closed = 1;
nodes = (
"270 551 LINE",
"51 551 LINE",
"50 667 LINE",
"256 667 LINE",
"256 672 LINE",
"50 672 LINE",
"50 749 LINE",
"55 742 OFFCURVE",
"86 734 OFFCURVE",
"116 741 CURVE SMOOTH",
"163 751 OFFCURVE",
"187 773 OFFCURVE",
"196 795 CURVE",
"256 795 LINE",
"256 800 LINE",
"198 800 LINE",
"202 811 OFFCURVE",
"201 822 OFFCURVE",
"198 830 CURVE SMOOTH",
"188 859 OFFCURVE",
"157 862 OFFCURVE",
"134 862 CURVE SMOOTH",
"86 861 OFFCURVE",
"41 834 OFFCURVE",
"33 800 CURVE",
"0 800 LINE",
"0 795 LINE",
"33 795 LINE",
"33 672 LINE",
"0 672 LINE",
"0 667 LINE",
"33 667 LINE",
"34 551 LINE",
"0 551 LINE",
"0 546 LINE",
"34 546 LINE",
"34 427 LINE",
"0 427 LINE",
"0 422 LINE",
"34 422 LINE",
"34 365 LINE",
"51 365 LINE",
"51 422 LINE",
"270 422 LINE",
"270 427 LINE",
"51 427 LINE",
"51 546 LINE",
"270 546 LINE"
);
},
{
closed = 1;
nodes = (
"270 298 LINE",
"270 303 LINE",
"0 303 LINE",
"0 298 LINE"
);
},
{
closed = 1;
nodes = (
"270 173 LINE",
"270 178 LINE",
"0 178 LINE",
"0 173 LINE"
);
},
{
closed = 1;
nodes = (
"270 49 LINE",
"270 54 LINE",
"0 54 LINE",
"0 49 LINE"
);
}
);
width = 270;
}
);
unicode = 0067;
},
{
glyphname = h;
lastChange = "2015-08-07 07:40:10 +0000";
layers = (
{
layerId = "4084567E-8F17-43C6-B459-5B57676AC7A4";
name = Regular;
paths = (
{
closed = 1;
nodes = (
"159 901 OFFCURVE",
"149 893 OFFCURVE",
"141 893 CURVE SMOOTH",
"137 893 OFFCURVE",
"132 895 OFFCURVE",
"127 899 CURVE",
"123 901 OFFCURVE",
"121 906 OFFCURVE",
"121 912 CURVE SMOOTH",
"121 917 OFFCURVE",
"123 922 OFFCURVE",
"127 927 CURVE",
"128 927 OFFCURVE",
"129 928 OFFCURVE",
"131 930 CURVE",
"134 931 OFFCURVE",
"138 932 OFFCURVE",
"141 932 CURVE SMOOTH",
"146 932 OFFCURVE",
"151 930 OFFCURVE",
"154 927 CURVE",
"158 921 OFFCURVE",
"159 916 OFFCURVE",
"159 912 CURVE SMOOTH"
);
}
);
width = 0;
}
);
unicode = 0068;
},
{
glyphname = i;
lastChange = "2015-08-07 07:40:10 +0000";
layers = (
{
layerId = "4084567E-8F17-43C6-B459-5B57676AC7A4";
name = Regular;
paths = (
{
closed = 1;
nodes = (
"110 551 LINE",
"0 551 LINE",
"0 546 LINE",
"21 546 LINE",
"21 427 LINE",
"0 427 LINE",
"0 422 LINE",
"21 422 LINE",
"21 303 LINE",
"0 303 LINE",
"0 298 LINE",
"21 298 LINE",
"21 291 LINE",
"27 298 LINE",
"110 298 LINE",
"110 303 LINE",
"32 303 LINE",
"57 325 LINE",
"93 354 OFFCURVE",
"109 368 OFFCURVE",
"109 391 CURVE SMOOTH",
"109 408 OFFCURVE",
"100 418 OFFCURVE",
"88 422 CURVE",
"110 422 LINE",
"110 427 LINE",
"36 427 LINE",
"36 546 LINE",
"110 546 LINE"
);
},
{
closed = 1;
nodes = (
"50 420 OFFCURVE",
"43 415 OFFCURVE",
"36 409 CURVE",
"36 422 LINE",
"59 422 LINE"
);
},
{
closed = 1;
nodes = (
"36 392 LINE",
"47 404 OFFCURVE",
"55 407 OFFCURVE",
"66 407 CURVE SMOOTH",
"77 407 OFFCURVE",
"88 399 OFFCURVE",
"88 386 CURVE SMOOTH",
"88 368 OFFCURVE",
"55 338 OFFCURVE",
"36 323 CURVE"
);
},
{
closed = 1;
nodes = (
"110 173 LINE",
"110 178 LINE",
"0 178 LINE",
"0 173 LINE"
);
},
{
closed = 1;
nodes = (
"110 49 LINE",
"110 54 LINE",
"0 54 LINE",
"0 49 LINE"
);
}
);
width = 110;
}
);
unicode = 0069;
},
{
glyphname = idotless;
lastChange = "2015-08-07 07:40:10 +0000";
layers = (
{
layerId = "4084567E-8F17-43C6-B459-5B57676AC7A4";
name = Regular;
paths = (
{
closed = 1;
nodes = (
"0 546 LINE",
"270 546 LINE",
"270 551 LINE",
"0 551 LINE"
);
},
{
closed = 1;
nodes = (
"211 422 LINE",
"114 303 LINE",
"0 303 LINE",
"0 298 LINE",
"110 298 LINE",
"13 178 LINE",
"0 178 LINE",
"0 173 LINE",
"270 173 LINE",
"270 178 LINE",
"60 178 LINE",
"157 298 LINE",
"270 298 LINE",
"270 303 LINE",
"161 303 LINE",
"257 422 LINE",
"270 422 LINE",
"270 427 LINE",
"0 427 LINE",
"0 422 LINE"
);
},
{
closed = 1;
nodes = (
"80 373 OFFCURVE",
"69 386 OFFCURVE",
"57 386 CURVE SMOOTH",
"42 386 OFFCURVE",
"31 373 OFFCURVE",
"31 360 CURVE SMOOTH",
"31 348 OFFCURVE",
"42 337 OFFCURVE",
"57 337 CURVE SMOOTH",
"69 337 OFFCURVE",
"80 348 OFFCURVE",
"80 360 CURVE SMOOTH"
);
},
{
closed = 1;
nodes = (
"185 214 OFFCURVE",
"196 203 OFFCURVE",
"211 203 CURVE SMOOTH",
"223 203 OFFCURVE",
"234 214 OFFCURVE",
"234 226 CURVE SMOOTH",
"234 239 OFFCURVE",
"223 252 OFFCURVE",
"211 252 CURVE SMOOTH",
"196 252 OFFCURVE",
"185 239 OFFCURVE",
"185 226 CURVE SMOOTH"
);
},
{
closed = 1;
nodes = (
"270 49 LINE",
"270 54 LINE",
"0 54 LINE",
"0 49 LINE"
);
}
);
width = 270;
}
);
unicode = 0131;
},
{
glyphname = j;
lastChange = "2015-08-07 07:40:10 +0000";
layers = (
{
layerId = "4084567E-8F17-43C6-B459-5B57676AC7A4";
name = Regular;
paths = (
{
closed = 1;
nodes = (
"51 962 LINE",
"51 983 LINE",
"208 920 LINE",
"208 912 LINE",
"51 855 LINE",
"51 875 LINE",
"171 916 LINE"
);
}
);
width = 0;
}
);
unicode = 006A;
},
{
glyphname = k;
lastChange = "2015-08-07 07:40:10 +0000";
layers = (
{
layerId = "4084567E-8F17-43C6-B459-5B57676AC7A4";
name = Regular;
paths = (
{
closed = 1;
nodes = (
"174 546 LINE",
"174 551 LINE",
"0 551 LINE",
"0 546 LINE",
"77 546 LINE",
"76 545 OFFCURVE",
"75 532 OFFCURVE",
"70 508 CURVE",
"66 476 OFFCURVE",
"59 449 OFFCURVE",
"48 427 CURVE",
"0 427 LINE",
"0 422 LINE",
"46 422 LINE",
"34 399 OFFCURVE",
"18 382 OFFCURVE",
"0 369 CURVE",
"0 358 LINE",
"90 358 LINE",
"90 323 LINE",
"87 318 OFFCURVE",
"71 311 OFFCURVE",
"65 311 CURVE",
"65 303 LINE",
"0 303 LINE",
"0 298 LINE",
"77 298 LINE",
"76 297 OFFCURVE",
"75 284 OFFCURVE",
"70 260 CURVE",
"66 227 OFFCURVE",
"58 200 OFFCURVE",
"48 178 CURVE",
"0 178 LINE",
"0 173 LINE",
"45 173 LINE",
"33 150 OFFCURVE",
"18 133 OFFCURVE",
"0 121 CURVE",
"0 110 LINE",
"90 110 LINE",
"90 75 LINE",
"87 70 OFFCURVE",
"71 63 OFFCURVE",
"65 63 CURVE",
"65 54 LINE",
"0 54 LINE",
"0 49 LINE",
"174 49 LINE",
"174 63 LINE",
"170 63 OFFCURVE",
"154 71 OFFCURVE",
"152 75 CURVE",
"151 82 OFFCURVE",
"150 78 OFFCURVE",
"150 110 CURVE",
"174 110 LINE",
"174 121 LINE",
"150 121 LINE",
"150 173 LINE",
"174 173 LINE",
"174 178 LINE",
"150 178 LINE",
"150 245 LINE",
"90 200 LINE",
"90 178 LINE",
"62 178 LINE",
"69 187 LINE",
"137 282 OFFCURVE",
"140 288 OFFCURVE",
"143 298 CURVE",
"174 298 LINE",
"174 311 LINE",
"170 311 OFFCURVE",
"154 319 OFFCURVE",
"152 323 CURVE",
"151 330 OFFCURVE",
"150 326 OFFCURVE",
"150 358 CURVE",
"174 358 LINE",
"174 369 LINE",
"150 369 LINE",
"150 422 LINE",
"174 422 LINE",
"174 427 LINE",
"150 427 LINE",
"150 493 LINE",
"90 448 LINE",
"90 427 LINE",
"63 427 LINE",
"69 435 LINE SMOOTH",
"137 530 OFFCURVE",
"140 536 OFFCURVE",
"143 546 CURVE"
);
},
{
closed = 1;
nodes = (
"90 369 LINE",
"21 369 LINE",
"60 422 LINE",
"90 422 LINE"
);
},
{
closed = 1;
nodes = (
"90 121 LINE",
"21 121 LINE",
"59 173 LINE",
"90 173 LINE"
);
}
);
width = 174;
}
);
unicode = 006B;
},
{
glyphname = l;
lastChange = "2015-08-07 07:40:10 +0000";
layers = (
{
layerId = "4084567E-8F17-43C6-B459-5B57676AC7A4";
name = Regular;
paths = (
{
closed = 1;
nodes = (
"0 551 LINE",
"0 546 LINE",
"174 546 LINE",
"174 551 LINE"
);
},
{
closed = 1;
nodes = (
"0 427 LINE",
"0 422 LINE",
"7 422 LINE",
"8 366 OFFCURVE",
"33 311 OFFCURVE",
"82 303 CURVE",
"0 303 LINE",
"0 298 LINE",
"174 298 LINE",
"174 303 LINE",
"107 303 LINE",
"142 308 OFFCURVE",
"166 336 OFFCURVE",
"166 373 CURVE SMOOTH",
"166 392 OFFCURVE",
"160 410 OFFCURVE",
"149 422 CURVE",
"174 422 LINE",
"174 427 LINE",
"144 427 LINE",
"136 434 OFFCURVE",
"126 439 OFFCURVE",
"114 439 CURVE SMOOTH",
"95 439 OFFCURVE",
"81 438 OFFCURVE",
"71 427 CURVE",
"62 427 LINE",
"55 441 OFFCURVE",
"59 480 OFFCURVE",
"65 501 CURVE SMOOTH",
"71 525 OFFCURVE",
"83 537 OFFCURVE",
"100 537 CURVE SMOOTH",
"109 537 OFFCURVE",
"118 533 OFFCURVE",
"126 527 CURVE",
"128 522 LINE",
"114 522 OFFCURVE",
"102 505 OFFCURVE",
"102 491 CURVE SMOOTH",
"102 471 OFFCURVE",
"110 460 OFFCURVE",
"128 460 CURVE SMOOTH",
"132 460 LINE",
"147 462 OFFCURVE",
"158 476 OFFCURVE",
"158 491 CURVE SMOOTH",
"158 525 OFFCURVE",
"135 546 OFFCURVE",
"100 546 CURVE SMOOTH",
"46 546 OFFCURVE",
"7 482 OFFCURVE",
"7 427 CURVE"
);
},
{
closed = 1;
nodes = (
"77 312 OFFCURVE",
"67 330 OFFCURVE",
"67 367 CURVE SMOOTH",
"67 406 OFFCURVE",
"77 420 OFFCURVE",
"97 420 CURVE SMOOTH",
"116 420 OFFCURVE",
"125 406 OFFCURVE",
"125 367 CURVE SMOOTH",
"125 330 OFFCURVE",
"116 312 OFFCURVE",
"97 312 CURVE SMOOTH"
);
},
{
closed = 1;
nodes = (
"25 209 OFFCURVE",
"36 191 OFFCURVE",
"57 178 CURVE",
"0 178 LINE",
"0 173 LINE",
"47 173 LINE",
"32 163 OFFCURVE",
"18 145 OFFCURVE",
"18 131 CURVE SMOOTH",
"18 89 OFFCURVE",
"43 60 OFFCURVE",
"80 54 CURVE",
"0 54 LINE",
"0 49 LINE",
"174 49 LINE",
"174 54 LINE",
"108 54 LINE",
"145 60 OFFCURVE",
"170 89 OFFCURVE",
"170 131 CURVE SMOOTH",
"170 144 OFFCURVE",
"160 161 OFFCURVE",
"147 173 CURVE",
"174 173 LINE",
"174 178 LINE",
"142 178 LINE",
"137 182 OFFCURVE",
"132 185 OFFCURVE",
"127 187 CURVE",
"146 195 OFFCURVE",
"163 220 OFFCURVE",
"163 240 CURVE SMOOTH",
"163 276 OFFCURVE",
"132 298 OFFCURVE",
"95 298 CURVE SMOOTH",
"57 298 OFFCURVE",
"25 272 OFFCURVE",
"25 234 CURVE SMOOTH"
);
},
{
closed = 1;
nodes = (
"124 286 OFFCURVE",
"142 265 OFFCURVE",
"142 236 CURVE SMOOTH",
"142 221 OFFCURVE",
"130 203 OFFCURVE",
"114 196 CURVE",
"104 206 OFFCURVE",
"77 225 OFFCURVE",
"67 231 CURVE",
"59 237 OFFCURVE",
"54 243 OFFCURVE",
"54 248 CURVE SMOOTH",
"54 269 OFFCURVE",
"74 286 OFFCURVE",
"95 286 CURVE SMOOTH"
);
},
{
closed = 1;
nodes = (
"61 67 OFFCURVE",
"39 92 OFFCURVE",
"39 126 CURVE SMOOTH",
"39 144 OFFCURVE",
"49 157 OFFCURVE",
"68 168 CURVE",
"106 141 LINE",
"124 132 OFFCURVE",
"140 113 OFFCURVE",
"140 100 CURVE SMOOTH",
"140 78 OFFCURVE",
"118 67 OFFCURVE",
"94 67 CURVE SMOOTH"
);
}
);
width = 174;
}
);
unicode = 006C;
},
{
glyphname = m;
lastChange = "2015-08-07 07:40:10 +0000";
layers = (
{
layerId = "4084567E-8F17-43C6-B459-5B57676AC7A4";
name = Regular;
paths = (
{
closed = 1;
nodes = (
"0 546 LINE",
"45 546 LINE",
"45 551 LINE",
"0 551 LINE"
);
},
{
closed = 1;
nodes = (
"45 422 LINE",
"45 427 LINE",
"0 427 LINE",
"0 422 LINE"
);
},
{
closed = 1;
nodes = (
"45 298 LINE",
"45 303 LINE",
"0 303 LINE",
"0 298 LINE"
);
},
{
closed = 1;
nodes = (
"45 173 LINE",
"45 178 LINE",
"0 178 LINE",
"0 173 LINE"
);
},
{
closed = 1;
nodes = (
"45 49 LINE",
"45 54 LINE",
"0 54 LINE",
"0 49 LINE"
);
}
);
width = 45;
}
);
unicode = 006D;
},
{
glyphname = n;
lastChange = "2015-08-07 07:40:10 +0000";
layers = (
{
layerId = "4084567E-8F17-43C6-B459-5B57676AC7A4";
name = Regular;
paths = (
{
closed = 1;
nodes = (
"284 -382 OFFCURVE",
"234 -353 OFFCURVE",
"168 -304 CURVE",
"239 -382 OFFCURVE",
"350 -417 OFFCURVE",
"545 -417 CURVE SMOOTH",
"739 -417 OFFCURVE",
"851 -382 OFFCURVE",
"923 -304 CURVE",
"856 -353 OFFCURVE",
"770 -388 OFFCURVE",
"545 -393 CURVE"
);
}
);
width = 0;
}
);
unicode = 006E;
},
{
glyphname = o;
lastChange = "2015-08-07 07:40:10 +0000";
layers = (
{
layerId = "4084567E-8F17-43C6-B459-5B57676AC7A4";
name = Regular;
paths = (
{
closed = 1;
nodes = (
"110 551 LINE",
"36 551 LINE",
"36 604 LINE",
"21 604 LINE",
"21 551 LINE",
"0 551 LINE",
"0 546 LINE",
"21 546 LINE",
"21 427 LINE",
"0 427 LINE",
"0 422 LINE",
"21 422 LINE",
"21 345 LINE",
"29 355 OFFCURVE",
"40 364 OFFCURVE",
"57 379 CURVE",
"80 397 OFFCURVE",
"94 410 OFFCURVE",
"102 422 CURVE",
"110 422 LINE",
"110 427 LINE",
"105 427 LINE",
"108 433 OFFCURVE",
"109 438 OFFCURVE",
"109 445 CURVE SMOOTH",
"109 468 OFFCURVE",
"93 478 OFFCURVE",
"74 478 CURVE SMOOTH",
"59 478 OFFCURVE",
"47 473 OFFCURVE",
"36 463 CURVE",
"36 546 LINE",
"110 546 LINE"
);
},
{
closed = 1;
nodes = (
"77 461 OFFCURVE",
"88 453 OFFCURVE",
"88 440 CURVE SMOOTH",
"88 436 OFFCURVE",
"86 432 OFFCURVE",
"84 427 CURVE",
"36 427 LINE",
"36 446 LINE",
"47 458 OFFCURVE",
"55 461 OFFCURVE",
"66 461 CURVE SMOOTH"
);
},
{
closed = 1;
nodes = (
"36 422 LINE",
"81 422 LINE",
"70 406 OFFCURVE",
"49 388 OFFCURVE",
"36 377 CURVE"
);
},
{
closed = 1;
nodes = (
"110 298 LINE",
"110 303 LINE",
"0 303 LINE",
"0 298 LINE"
);
},
{
closed = 1;
nodes = (
"110 173 LINE",
"110 178 LINE",
"0 178 LINE",
"0 173 LINE"
);
},
{
closed = 1;
nodes = (
"110 49 LINE",
"110 54 LINE",
"0 54 LINE",
"0 49 LINE"
);
}
);
width = 110;
}
);
unicode = 006F;
},
{
glyphname = oslash;
lastChange = "2015-08-07 07:40:10 +0000";
layers = (
{
layerId = "4084567E-8F17-43C6-B459-5B57676AC7A4";
name = Regular;
paths = (
{
closed = 1;
nodes = (
"110 551 LINE",
"23 551 LINE",
"23 573 LINE",
"6 568 LINE",
"6 551 LINE",
"0 551 LINE",
"0 546 LINE",
"6 546 LINE",
"6 427 LINE",
"0 427 LINE",
"0 422 LINE",
"6 422 LINE",
"6 344 LINE",
"83 371 LINE",
"83 303 LINE",
"0 303 LINE",
"0 298 LINE",
"83 298 LINE",
"83 280 LINE",
"101 285 LINE",
"101 298 LINE",
"110 298 LINE",
"110 303 LINE",
"101 303 LINE",
"101 422 LINE",
"110 422 LINE",
"110 427 LINE",
"101 427 LINE",
"101 509 LINE",
"23 485 LINE",
"23 546 LINE",
"110 546 LINE"
);
},
{
closed = 1;
nodes = (
"83 427 LINE",
"23 427 LINE",
"23 451 LINE",
"83 475 LINE"
);
},
{
closed = 1;
nodes = (
"23 382 LINE",
"23 422 LINE",
"83 422 LINE",
"83 403 LINE"
);
},
{
closed = 1;
nodes = (
"110 173 LINE",
"110 178 LINE",
"0 178 LINE",
"0 173 LINE"
);
},
{
closed = 1;
nodes = (
"110 49 LINE",
"110 54 LINE",
"0 54 LINE",
"0 49 LINE"
);
}
);
width = 110;
}
);
unicode = 00F8;
},
{
glyphname = oe;
lastChange = "2015-08-07 07:40:10 +0000";
layers = (
{
layerId = "4084567E-8F17-43C6-B459-5B57676AC7A4";
name = Regular;
paths = (
{
closed = 1;
nodes = (
"0 546 LINE",
"110 546 LINE",
"110 551 LINE",
"0 551 LINE"
);
},
{
closed = 1;
nodes = (
"110 422 LINE",
"110 427 LINE",
"0 427 LINE",
"0 422 LINE"
);
},
{
closed = 1;
nodes = (
"110 298 LINE",
"110 303 LINE",
"0 303 LINE",
"0 298 LINE"
);
},
{
closed = 1;
nodes = (
"110 173 LINE",
"110 178 LINE",
"0 178 LINE",
"0 173 LINE"
);
},
{
closed = 1;
nodes = (
"6 64 LINE",
"6 54 LINE",
"0 54 LINE",
"0 49 LINE",
"6 49 LINE",
"6 -160 LINE",
"83 -133 LINE",
"83 -224 LINE",
"101 -219 LINE",
"101 5 LINE",
"23 -19 LINE",
"23 49 LINE",
"110 49 LINE",
"110 54 LINE",
"23 54 LINE",
"23 69 LINE"
);
},
{
closed = 1;
nodes = (
"83 -101 LINE",
"23 -122 LINE",
"23 -53 LINE",
"83 -29 LINE"
);
}
);
width = 110;
}
);
unicode = 0153;
},
{
glyphname = p;
lastChange = "2015-08-07 07:40:10 +0000";
layers = (
{
layerId = "4084567E-8F17-43C6-B459-5B57676AC7A4";
name = Regular;
paths = (
{
closed = 1;
nodes = (
"36 551 LINE",
"36 674 LINE",
"21 674 LINE",
"21 551 LINE",
"0 551 LINE",
"0 546 LINE",
"21 546 LINE",
"21 427 LINE",
"0 427 LINE",
"0 422 LINE",
"21 422 LINE",
"21 415 LINE",
"27 422 LINE",
"110 422 LINE",
"110 427 LINE",
"32 427 LINE",
"57 449 LINE",
"93 478 OFFCURVE",
"109 492 OFFCURVE",
"109 515 CURVE SMOOTH",
"109 532 OFFCURVE",
"100 542 OFFCURVE",
"88 546 CURVE",
"110 546 LINE",
"110 551 LINE"
);
},
{
closed = 1;
nodes = (
"36 546 LINE",
"59 546 LINE",
"50 544 OFFCURVE",
"43 539 OFFCURVE",
"36 533 CURVE"
);
},
{
closed = 1;
nodes = (
"36 516 LINE",
"47 528 OFFCURVE",
"55 531 OFFCURVE",
"66 531 CURVE SMOOTH",
"77 531 OFFCURVE",
"88 523 OFFCURVE",
"88 510 CURVE SMOOTH",
"88 492 OFFCURVE",
"55 462 OFFCURVE",
"36 447 CURVE"
);
},
{
closed = 1;
nodes = (
"110 298 LINE",
"110 303 LINE",
"0 303 LINE",
"0 298 LINE"
);
},
{
closed = 1;
nodes = (
"110 173 LINE",
"110 178 LINE",
"0 178 LINE",
"0 173 LINE"
);
},
{
closed = 1;
nodes = (
"110 49 LINE",
"110 54 LINE",
"0 54 LINE",
"0 49 LINE"
);
}
);
width = 110;
}
);
unicode = 0070;
},
{
glyphname = q;
lastChange = "2015-08-07 07:40:10 +0000";
layers = (
{
layerId = "4084567E-8F17-43C6-B459-5B57676AC7A4";
name = Regular;
paths = (
{
closed = 1;
nodes = (
"0 546 LINE",
"110 546 LINE",
"110 551 LINE",
"0 551 LINE"
);
},
{
closed = 1;
nodes = (
"110 422 LINE",
"110 427 LINE",
"0 427 LINE",
"0 422 LINE"
);
},
{
closed = 1;
nodes = (
"110 298 LINE",
"110 303 LINE",
"0 303 LINE",
"0 298 LINE"
);
},
{
closed = 1;
nodes = (
"110 173 LINE",
"110 178 LINE",
"0 178 LINE",
"0 173 LINE"
);
},
{
closed = 1;
nodes = (
"21 111 LINE",
"21 54 LINE",
"0 54 LINE",
"0 49 LINE",
"21 49 LINE",
"21 -148 LINE",
"29 -138 OFFCURVE",
"40 -129 OFFCURVE",
"57 -114 CURVE",
"93 -85 OFFCURVE",
"109 -71 OFFCURVE",
"109 -48 CURVE SMOOTH",
"109 -25 OFFCURVE",
"93 -15 OFFCURVE",
"74 -15 CURVE SMOOTH",
"59 -15 OFFCURVE",
"47 -20 OFFCURVE",
"36 -30 CURVE",
"36 49 LINE",
"110 49 LINE",
"110 54 LINE",
"36 54 LINE",
"36 111 LINE"
);
},
{
closed = 1;
nodes = (
"77 -32 OFFCURVE",
"88 -40 OFFCURVE",
"88 -53 CURVE SMOOTH",
"88 -71 OFFCURVE",
"55 -101 OFFCURVE",
"36 -116 CURVE",
"36 -47 LINE",
"47 -35 OFFCURVE",
"55 -32 OFFCURVE",
"66 -32 CURVE SMOOTH"
);
}
);
width = 110;
}
);
unicode = 0071;
},
{
glyphname = r;
lastChange = "2015-08-07 07:40:10 +0000";
layers = (
{
layerId = "4084567E-8F17-43C6-B459-5B57676AC7A4";
name = Regular;
paths = (
{
closed = 1;
nodes = (
"0 546 LINE",
"110 546 LINE",
"110 551 LINE",
"0 551 LINE"
);
},
{
closed = 1;
nodes = (
"110 422 LINE",
"110 427 LINE",
"0 427 LINE",
"0 422 LINE"
);
},
{
closed = 1;
nodes = (
"0 303 LINE",
"0 298 LINE",
"21 298 LINE",
"21 178 LINE",
"0 178 LINE",
"0 173 LINE",
"21 173 LINE",
"21 54 LINE",
"0 54 LINE",
"0 49 LINE",
"21 49 LINE",
"21 44 LINE",
"22 46 OFFCURVE",
"24 47 OFFCURVE",
"25 49 CURVE",
"110 49 LINE",
"110 54 LINE",
"30 54 LINE",
"37 61 OFFCURVE",
"46 68 OFFCURVE",
"57 78 CURVE",
"93 107 OFFCURVE",
"109 121 OFFCURVE",
"109 144 CURVE SMOOTH",
"109 159 OFFCURVE",
"102 168 OFFCURVE",
"93 173 CURVE",
"110 173 LINE",
"110 178 LINE",
"36 178 LINE",
"36 298 LINE",
"110 298 LINE",
"110 303 LINE"
);
},
{
closed = 1;
nodes = (
"47 171 OFFCURVE",
"41 167 OFFCURVE",
"36 162 CURVE",
"36 173 LINE",
"53 173 LINE"
);
},
{
closed = 1;
nodes = (
"36 145 LINE",
"47 157 OFFCURVE",
"55 160 OFFCURVE",
"66 160 CURVE SMOOTH",
"77 160 OFFCURVE",
"88 152 OFFCURVE",
"88 139 CURVE SMOOTH",
"88 121 OFFCURVE",
"55 91 OFFCURVE",
"36 76 CURVE"
);
}
);
width = 110;
}
);
unicode = 0072;
},
{
glyphname = s;
lastChange = "2015-08-07 07:40:10 +0000";
layers = (
{
layerId = "4084567E-8F17-43C6-B459-5B57676AC7A4";
name = Regular;
paths = (
{
closed = 1;
nodes = (
"0 546 LINE",
"270 546 LINE",
"270 551 LINE",
"0 551 LINE"
);
},
{
closed = 1;
nodes = (
"270 422 LINE",
"270 427 LINE",
"0 427 LINE",
"0 422 LINE"
);
},
{
closed = 1;
nodes = (
"193 298 LINE",
"193 178 LINE",
"0 178 LINE",
"0 173 LINE",
"193 173 LINE",
"193 54 LINE",
"0 54 LINE",
"0 49 LINE",
"193 49 LINE",
"193 -71 LINE",
"14 -71 LINE",
"14 -76 LINE",
"130 -76 LINE",
"55 -92 OFFCURVE",
"36 -141 OFFCURVE",
"46 -166 CURVE SMOOTH",
"57 -194 OFFCURVE",
"88 -197 OFFCURVE",
"111 -197 CURVE SMOOTH",
"160 -197 OFFCURVE",
"205 -170 OFFCURVE",
"211 -135 CURVE",
"211 -76 LINE",
"270 -76 LINE",
"270 -71 LINE",
"211 -71 LINE",
"211 49 LINE",
"270 49 LINE",
"270 54 LINE",
"211 54 LINE",
"211 173 LINE",
"270 173 LINE",
"270 178 LINE",
"211 178 LINE",
"211 298 LINE",
"270 298 LINE",
"270 303 LINE",
"0 303 LINE",
"0 298 LINE"
);
},
{
closed = 1;
nodes = (
"190 -83 OFFCURVE",
"181 -79 OFFCURVE",
"168 -76 CURVE",
"193 -76 LINE",
"193 -87 LINE"
);
}
);
width = 270;
}
);
unicode = 0073;
},
{
glyphname = germandbls;
lastChange = "2015-08-07 07:40:10 +0000";
layers = (
{
layerId = "4084567E-8F17-43C6-B459-5B57676AC7A4";
name = Regular;
paths = (
{
closed = 1;
nodes = (
"0 546 LINE",
"270 546 LINE",
"270 551 LINE",
"0 551 LINE"
);
},
{
closed = 1;
nodes = (
"270 422 LINE",
"270 427 LINE",
"0 427 LINE",
"0 422 LINE"
);
},
{
closed = 1;
nodes = (
"193 298 LINE",
"193 178 LINE",
"0 178 LINE",
"0 173 LINE",
"193 173 LINE",
"193 54 LINE",
"0 54 LINE",
"0 49 LINE",
"193 49 LINE",
"193 -71 LINE",
"14 -71 LINE",
"14 -76 LINE",
"126 -76 LINE",
"54 -93 OFFCURVE",
"36 -141 OFFCURVE",
"46 -165 CURVE SMOOTH",
"57 -193 OFFCURVE",
"88 -196 OFFCURVE",
"111 -196 CURVE SMOOTH",
"160 -196 OFFCURVE",
"205 -169 OFFCURVE",
"211 -134 CURVE",
"211 -76 LINE",
"270 -76 LINE",
"270 -71 LINE",
"211 -71 LINE",
"211 49 LINE",
"270 49 LINE",
"270 54 LINE",
"211 54 LINE",
"211 173 LINE",
"270 173 LINE",
"270 178 LINE",
"211 178 LINE",
"211 298 LINE",
"270 298 LINE",
"270 303 LINE",
"0 303 LINE",
"0 298 LINE"
);
},
{
closed = 1;
nodes = (
"191 -83 OFFCURVE",
"183 -79 OFFCURVE",
"172 -76 CURVE",
"193 -76 LINE",
"193 -86 LINE"
);
},
{
closed = 1;
nodes = (
"47 -133 OFFCURVE",
"163 -69 OFFCURVE",
"192 -98 CURVE SMOOTH",
"224 -132 OFFCURVE",
"85 -211 OFFCURVE",
"59 -169 CURVE"
);
}
);
width = 270;
}
);
unicode = 00DF;
},
{
glyphname = t;
lastChange = "2015-08-07 07:40:10 +0000";
layers = (
{
layerId = "4084567E-8F17-43C6-B459-5B57676AC7A4";
name = Regular;
paths = (
{
closed = 1;
nodes = (
"0 546 LINE",
"110 546 LINE",
"110 551 LINE",
"0 551 LINE"
);
},
{
closed = 1;
nodes = (
"110 422 LINE",
"110 427 LINE",
"0 427 LINE",
"0 422 LINE"
);
},
{
closed = 1;
nodes = (
"21 354 LINE",
"21 303 LINE",
"0 303 LINE",
"0 298 LINE",
"21 298 LINE",
"21 178 LINE",
"0 178 LINE",
"0 173 LINE",
"21 173 LINE",
"21 95 LINE",
"29 105 OFFCURVE",
"40 114 OFFCURVE",
"57 129 CURVE SMOOTH",
"80 148 OFFCURVE",
"95 160 OFFCURVE",
"103 173 CURVE",
"110 173 LINE",
"110 178 LINE",
"105 178 LINE",
"108 183 OFFCURVE",
"109 189 OFFCURVE",
"109 195 CURVE SMOOTH",
"109 218 OFFCURVE",
"93 228 OFFCURVE",
"74 228 CURVE SMOOTH",
"59 228 OFFCURVE",
"47 223 OFFCURVE",
"36 213 CURVE",
"36 298 LINE",
"110 298 LINE",
"110 303 LINE",
"36 303 LINE",
"36 354 LINE"
);
},
{
closed = 1;
nodes = (
"77 211 OFFCURVE",
"88 203 OFFCURVE",
"88 190 CURVE SMOOTH",
"88 186 OFFCURVE",
"87 182 OFFCURVE",
"84 178 CURVE",
"36 178 LINE",
"36 196 LINE",
"47 208 OFFCURVE",
"55 211 OFFCURVE",
"66 211 CURVE SMOOTH"
);
},
{
closed = 1;
nodes = (
"36 173 LINE",
"81 173 LINE",
"71 157 OFFCURVE",
"50 138 OFFCURVE",
"36 127 CURVE"
);
},
{
closed = 1;
nodes = (
"110 49 LINE",
"110 54 LINE",
"0 54 LINE",
"0 49 LINE"
);
}
);
width = 110;
}
);
unicode = 0074;
},
{
glyphname = u;
lastChange = "2015-08-07 07:40:10 +0000";
layers = (
{
layerId = "4084567E-8F17-43C6-B459-5B57676AC7A4";
name = Regular;
paths = (
{
closed = 1;
nodes = (
"0 546 LINE",
"110 546 LINE",
"110 551 LINE",
"0 551 LINE"
);
},
{
closed = 1;
nodes = (
"21 480 LINE",
"21 427 LINE",
"0 427 LINE",
"0 422 LINE",
"21 422 LINE",
"21 303 LINE",
"0 303 LINE",
"0 298 LINE",
"21 298 LINE",
"21 221 LINE",
"29 231 OFFCURVE",
"40 240 OFFCURVE",
"57 255 CURVE",
"80 273 OFFCURVE",
"94 286 OFFCURVE",
"102 298 CURVE",
"110 298 LINE",
"110 303 LINE",
"105 303 LINE",
"108 309 OFFCURVE",
"109 314 OFFCURVE",
"109 321 CURVE SMOOTH",
"109 344 OFFCURVE",
"93 354 OFFCURVE",
"74 354 CURVE SMOOTH",
"59 354 OFFCURVE",
"47 349 OFFCURVE",
"36 339 CURVE",
"36 422 LINE",
"110 422 LINE",
"110 427 LINE",
"36 427 LINE",
"36 480 LINE"
);
},
{
closed = 1;
nodes = (
"77 337 OFFCURVE",
"88 329 OFFCURVE",
"88 316 CURVE SMOOTH",
"88 312 OFFCURVE",
"86 308 OFFCURVE",
"84 303 CURVE",
"36 303 LINE",
"36 322 LINE",
"47 334 OFFCURVE",
"55 337 OFFCURVE",
"66 337 CURVE SMOOTH"
);
},
{
closed = 1;
nodes = (
"36 298 LINE",
"81 298 LINE",
"70 282 OFFCURVE",
"49 264 OFFCURVE",
"36 253 CURVE"
);
},
{
closed = 1;
nodes = (
"110 173 LINE",
"110 178 LINE",
"0 178 LINE",
"0 173 LINE"
);
},
{
closed = 1;
nodes = (
"110 49 LINE",
"110 54 LINE",
"0 54 LINE",
"0 49 LINE"
);
}
);
width = 110;
}
);
unicode = 0075;
},
{
glyphname = v;
lastChange = "2015-08-07 07:40:10 +0000";
layers = (
{
layerId = "4084567E-8F17-43C6-B459-5B57676AC7A4";
name = Regular;
paths = (
{
closed = 1;
nodes = (
"108 724 OFFCURVE",
"92 710 OFFCURVE",
"56 681 CURVE",
"39 666 OFFCURVE",
"28 657 OFFCURVE",
"20 647 CURVE",
"20 906 LINE",
"35 906 LINE",
"35 765 LINE",
"46 775 OFFCURVE",
"58 780 OFFCURVE",
"73 780 CURVE SMOOTH",
"92 780 OFFCURVE",
"108 770 OFFCURVE",
"108 747 CURVE SMOOTH"
);
},
{
closed = 1;
nodes = (
"87 755 OFFCURVE",
"76 763 OFFCURVE",
"65 763 CURVE SMOOTH",
"54 763 OFFCURVE",
"46 760 OFFCURVE",
"35 748 CURVE",
"35 679 LINE",
"54 694 OFFCURVE",
"87 724 OFFCURVE",
"87 742 CURVE SMOOTH"
);
},
{
closed = 1;
nodes = (
"110 551 LINE",
"110 546 LINE",
"0 546 LINE",
"0 551 LINE"
);
},
{
closed = 1;
nodes = (
"110 427 LINE",
"110 422 LINE",
"0 422 LINE",
"0 427 LINE"
);
},
{
closed = 1;
nodes = (
"110 303 LINE",
"110 298 LINE",
"0 298 LINE",
"0 303 LINE"
);
},
{
closed = 1;
nodes = (
"110 178 LINE",
"110 173 LINE",
"0 173 LINE",
"0 178 LINE"
);
},
{
closed = 1;
nodes = (
"110 54 LINE",
"110 49 LINE",
"0 49 LINE",
"0 54 LINE"
);
}
);
width = 110;
}
);
unicode = 0076;
},
{
glyphname = w;
lastChange = "2015-08-07 07:40:10 +0000";
layers = (
{
layerId = "4084567E-8F17-43C6-B459-5B57676AC7A4";
name = Regular;
paths = (
{
closed = 1;
nodes = (
"0 546 LINE",
"110 546 LINE",
"110 551 LINE",
"0 551 LINE"
);
},
{
closed = 1;
nodes = (
"110 422 LINE",
"110 427 LINE",
"0 427 LINE",
"0 422 LINE"
);
},
{
closed = 1;
nodes = (
"110 298 LINE",
"110 303 LINE",
"0 303 LINE",
"0 298 LINE"
);
},
{
closed = 1;
nodes = (
"21 173 LINE",
"21 54 LINE",
"0 54 LINE",
"0 49 LINE",
"21 49 LINE",
"21 -83 LINE",
"29 -73 OFFCURVE",
"40 -64 OFFCURVE",
"57 -49 CURVE",
"93 -20 OFFCURVE",
"109 -6 OFFCURVE",
"109 17 CURVE SMOOTH",
"109 36 OFFCURVE",
"98 46 OFFCURVE",
"84 49 CURVE",
"110 49 LINE",
"110 54 LINE",
"36 54 LINE",
"36 173 LINE",
"110 173 LINE",
"110 178 LINE",
"0 178 LINE",
"0 173 LINE"
);
},
{
closed = 1;
nodes = (
"53 47 OFFCURVE",
"44 42 OFFCURVE",
"36 35 CURVE",
"36 49 LINE",
"63 49 LINE"
);
},
{
closed = 1;
nodes = (
"36 18 LINE",
"47 30 OFFCURVE",
"55 33 OFFCURVE",
"66 33 CURVE SMOOTH",
"77 33 OFFCURVE",
"88 25 OFFCURVE",
"88 12 CURVE SMOOTH",
"88 -6 OFFCURVE",
"55 -36 OFFCURVE",
"36 -51 CURVE"
);
}
);
width = 110;
}
);
unicode = 0077;
},
{
glyphname = x;
lastChange = "2015-08-07 07:40:10 +0000";
layers = (
{
layerId = "4084567E-8F17-43C6-B459-5B57676AC7A4";
name = Regular;
paths = (
{
closed = 1;
nodes = (
"0 546 LINE",
"110 546 LINE",
"110 551 LINE",
"0 551 LINE"
);
},
{
closed = 1;
nodes = (
"110 422 LINE",
"110 427 LINE",
"0 427 LINE",
"0 422 LINE"
);
},
{
closed = 1;
nodes = (
"110 298 LINE",
"110 303 LINE",
"0 303 LINE",
"0 298 LINE"
);
},
{
closed = 1;
nodes = (
"110 173 LINE",
"110 178 LINE",
"0 178 LINE",
"0 173 LINE"
);
},
{
closed = 1;
nodes = (
"0 54 LINE",
"0 49 LINE",
"21 49 LINE",
"21 -205 LINE",
"29 -195 OFFCURVE",
"40 -186 OFFCURVE",
"57 -171 CURVE",
"93 -142 OFFCURVE",
"109 -128 OFFCURVE",
"109 -105 CURVE SMOOTH",
"109 -82 OFFCURVE",
"93 -72 OFFCURVE",
"74 -72 CURVE SMOOTH",
"59 -72 OFFCURVE",
"47 -77 OFFCURVE",
"36 -87 CURVE",
"36 49 LINE",
"110 49 LINE",
"110 54 LINE"
);
},
{
closed = 1;
nodes = (
"77 -89 OFFCURVE",
"88 -97 OFFCURVE",
"88 -110 CURVE SMOOTH",
"88 -128 OFFCURVE",
"55 -158 OFFCURVE",
"36 -173 CURVE",
"36 -104 LINE",
"47 -92 OFFCURVE",
"55 -89 OFFCURVE",
"66 -89 CURVE SMOOTH"
);
}
);
width = 110;
}
);
unicode = 0078;
},
{
glyphname = y;
lastChange = "2015-08-07 07:40:10 +0000";
layers = (
{
layerId = "4084567E-8F17-43C6-B459-5B57676AC7A4";
name = Regular;
paths = (
{
closed = 1;
nodes = (
"0 546 LINE",
"110 546 LINE",
"110 551 LINE",
"0 551 LINE"
);
},
{
closed = 1;
nodes = (
"0 427 LINE",
"0 422 LINE",
"21 422 LINE",
"21 303 LINE",
"0 303 LINE",
"0 298 LINE",
"21 298 LINE",
"21 178 LINE",
"0 178 LINE",
"0 173 LINE",
"21 173 LINE",
"21 168 LINE",
"22 170 OFFCURVE",
"24 171 OFFCURVE",
"25 173 CURVE",
"110 173 LINE",
"110 178 LINE",
"30 178 LINE",
"37 185 OFFCURVE",
"46 192 OFFCURVE",
"57 202 CURVE",
"93 231 OFFCURVE",
"109 245 OFFCURVE",
"109 268 CURVE SMOOTH",
"109 284 OFFCURVE",
"101 294 OFFCURVE",
"90 298 CURVE",
"110 298 LINE",
"110 303 LINE",
"36 303 LINE",
"36 422 LINE",
"110 422 LINE",
"110 427 LINE"
);
},
{
closed = 1;
nodes = (
"48 296 OFFCURVE",
"42 292 OFFCURVE",
"36 286 CURVE",
"36 298 LINE",
"55 298 LINE"
);
},
{
closed = 1;
nodes = (
"36 269 LINE",
"47 281 OFFCURVE",
"55 284 OFFCURVE",
"66 284 CURVE SMOOTH",
"77 284 OFFCURVE",
"88 276 OFFCURVE",
"88 263 CURVE SMOOTH",
"88 245 OFFCURVE",
"55 215 OFFCURVE",
"36 200 CURVE"
);
},
{
closed = 1;
nodes = (
"110 49 LINE",
"110 54 LINE",
"0 54 LINE",
"0 49 LINE"
);
}
);
width = 110;
}
);
unicode = 0079;
},
{
glyphname = z;
lastChange = "2015-08-07 07:40:10 +0000";
layers = (
{
layerId = "4084567E-8F17-43C6-B459-5B57676AC7A4";
name = Regular;
paths = (
{
closed = 1;
nodes = (
"110 551 LINE",
"110 546 LINE",
"0 546 LINE",
"0 551 LINE"
);
},
{
closed = 1;
nodes = (
"110 427 LINE",
"110 422 LINE",
"0 422 LINE",
"0 427 LINE"
);
},
{
closed = 1;
nodes = (
"110 303 LINE",
"110 298 LINE",
"0 298 LINE",
"0 303 LINE"
);
},
{
closed = 1;
nodes = (
"110 178 LINE",
"110 173 LINE",
"0 173 LINE",
"0 178 LINE"
);
},
{
closed = 1;
nodes = (
"110 54 LINE",
"110 49 LINE",
"0 49 LINE",
"0 54 LINE"
);
},
{
closed = 1;
nodes = (
"109 -193 OFFCURVE",
"93 -207 OFFCURVE",
"57 -236 CURVE",
"40 -251 OFFCURVE",
"29 -260 OFFCURVE",
"21 -270 CURVE",
"21 -11 LINE",
"36 -11 LINE",
"36 -152 LINE",
"47 -142 OFFCURVE",
"59 -137 OFFCURVE",
"74 -137 CURVE SMOOTH",
"93 -137 OFFCURVE",
"109 -147 OFFCURVE",
"109 -170 CURVE SMOOTH"
);
},
{
closed = 1;
nodes = (
"88 -162 OFFCURVE",
"77 -154 OFFCURVE",
"66 -154 CURVE SMOOTH",
"55 -154 OFFCURVE",
"47 -157 OFFCURVE",
"36 -169 CURVE",
"36 -238 LINE",
"55 -223 OFFCURVE",
"88 -193 OFFCURVE",
"88 -175 CURVE SMOOTH"
);
}
);
width = 110;
}
);
unicode = 007A;
},
{
glyphname = fi;
lastChange = "2015-08-07 07:40:10 +0000";
layers = (
{
layerId = "4084567E-8F17-43C6-B459-5B57676AC7A4";
name = Regular;
paths = (
{
closed = 1;
nodes = (
"0 546 LINE",
"270 546 LINE",
"270 551 LINE",
"0 551 LINE"
);
},
{
closed = 1;
nodes = (
"270 422 LINE",
"270 427 LINE",
"0 427 LINE",
"0 422 LINE"
);
},
{
closed = 1;
nodes = (
"270 298 LINE",
"270 303 LINE",
"0 303 LINE",
"0 298 LINE"
);
},
{
closed = 1;
nodes = (
"213 213 OFFCURVE",
"176 242 OFFCURVE",
"128 238 CURVE SMOOTH",
"64 233 OFFCURVE",
"43 203 OFFCURVE",
"40 178 CURVE",
"0 178 LINE",
"0 173 LINE",
"40 173 LINE",
"40 166 LINE",
"43 138 OFFCURVE",
"76 113 OFFCURVE",
"126 113 CURVE SMOOTH",
"184 113 OFFCURVE",
"216 142 OFFCURVE",
"218 173 CURVE",
"270 173 LINE",
"270 178 LINE",
"218 178 LINE",
"218 183 LINE"
);
},
{
closed = 1;
nodes = (
"140 234 OFFCURVE",
"159 207 OFFCURVE",
"164 178 CURVE",
"95 178 LINE",
"94 198 OFFCURVE",
"100 217 OFFCURVE",
"116 225 CURVE"
);
},
{
closed = 1;
nodes = (
"119 117 OFFCURVE",
"100 145 OFFCURVE",
"96 173 CURVE",
"165 173 LINE",
"167 151 OFFCURVE",
"161 129 OFFCURVE",
"143 123 CURVE"
);
},
{
closed = 1;
nodes = (
"270 49 LINE",
"270 54 LINE",
"0 54 LINE",
"0 49 LINE"
);
}
);
width = 270;
}
);
leftMetricsKey = f;
rightMetricsKey = i;
unicode = FB01;
},
{
glyphname = fl;
lastChange = "2015-08-07 07:40:10 +0000";
layers = (
{
layerId = "4084567E-8F17-43C6-B459-5B57676AC7A4";
name = Regular;
paths = (
{
closed = 1;
nodes = (
"0 546 LINE",
"270 546 LINE",
"270 551 LINE",
"0 551 LINE"
);
},
{
closed = 1;
nodes = (
"270 422 LINE",
"270 427 LINE",
"0 427 LINE",
"0 422 LINE"
);
},
{
closed = 1;
nodes = (
"112 298 LINE",
"51 288 OFFCURVE",
"37 253 OFFCURVE",
"40 228 CURVE SMOOTH",
"42 206 OFFCURVE",
"64 185 OFFCURVE",
"97 178 CURVE",
"0 178 LINE",
"0 173 LINE",
"270 173 LINE",
"270 178 LINE",
"157 178 LINE",
"200 187 OFFCURVE",
"221 216 OFFCURVE",
"218 245 CURVE",
"214 268 OFFCURVE",
"191 291 OFFCURVE",
"159 298 CURVE",
"270 298 LINE",
"270 303 LINE",
"0 303 LINE",
"0 298 LINE"
);
},
{
closed = 1;
nodes = (
"100 175 OFFCURVE",
"75 268 OFFCURVE",
"116 287 CURVE",
"160 304 OFFCURVE",
"187 200 OFFCURVE",
"143 185 CURVE"
);
},
{
closed = 1;
nodes = (
"270 49 LINE",
"270 54 LINE",
"0 54 LINE",
"0 49 LINE"
);
}
);
width = 270;
}
);
leftMetricsKey = f;
rightMetricsKey = l;
unicode = FB02;
},
{
glyphname = ordfeminine;
lastChange = "2015-08-07 07:40:10 +0000";
layers = (
{
layerId = "4084567E-8F17-43C6-B459-5B57676AC7A4";
name = Regular;
paths = (
{
closed = 1;
nodes = (
"0 546 LINE",
"270 546 LINE",
"270 551 LINE",
"0 551 LINE"
);
},
{
closed = 1;
nodes = (
"182 484 OFFCURVE",
"151 487 OFFCURVE",
"128 487 CURVE SMOOTH",
"81 486 OFFCURVE",
"37 460 OFFCURVE",
"28 427 CURVE",
"0 427 LINE",
"0 422 LINE",
"27 422 LINE",
"27 303 LINE",
"0 303 LINE",
"0 298 LINE",
"27 298 LINE",
"28 178 LINE",
"0 178 LINE",
"0 173 LINE",
"28 173 LINE",
"28 54 LINE",
"0 54 LINE",
"0 49 LINE",
"28 49 LINE",
"28 -10 LINE",
"47 -10 LINE",
"47 49 LINE",
"270 49 LINE",
"270 54 LINE",
"47 54 LINE",
"47 173 LINE",
"270 173 LINE",
"270 178 LINE",
"47 178 LINE",
"48 298 LINE",
"270 298 LINE",
"270 303 LINE",
"48 303 LINE",
"48 375 LINE",
"53 368 OFFCURVE",
"80 359 OFFCURVE",
"110 366 CURVE SMOOTH",
"158 376 OFFCURVE",
"183 400 OFFCURVE",
"191 422 CURVE",
"270 422 LINE",
"270 427 LINE",
"193 427 LINE",
"196 437 OFFCURVE",
"195 447 OFFCURVE",
"192 455 CURVE SMOOTH"
);
},
{
closed = 1;
nodes = (
"181 449 OFFCURVE",
"177 438 OFFCURVE",
"167 427 CURVE",
"60 427 LINE",
"93 458 OFFCURVE",
"160 486 OFFCURVE",
"178 458 CURVE"
);
},
{
closed = 1;
nodes = (
"36 394 OFFCURVE",
"42 408 OFFCURVE",
"55 422 CURVE",
"162 422 LINE",
"132 391 OFFCURVE",
"68 363 OFFCURVE",
"46 384 CURVE SMOOTH"
);
}
);
width = 270;
}
);
unicode = 00AA;
},
{
glyphname = ordmasculine;
lastChange = "2015-08-07 07:40:10 +0000";
layers = (
{
layerId = "4084567E-8F17-43C6-B459-5B57676AC7A4";
name = Regular;
paths = (
{
closed = 1;
nodes = (
"0 551 LINE",
"0 546 LINE",
"110 546 LINE",
"70 539 OFFCURVE",
"35 514 OFFCURVE",
"30 484 CURVE",
"30 427 LINE",
"0 427 LINE",
"0 422 LINE",
"30 422 LINE",
"30 303 LINE",
"0 303 LINE",
"0 298 LINE",
"30 298 LINE",
"31 178 LINE",
"0 178 LINE",
"0 173 LINE",
"31 173 LINE",
"31 54 LINE",
"0 54 LINE",
"0 49 LINE",
"270 49 LINE",
"270 54 LINE",
"50 54 LINE",
"50 173 LINE",
"270 173 LINE",
"270 178 LINE",
"50 178 LINE",
"51 298 LINE",
"270 298 LINE",
"270 303 LINE",
"51 303 LINE",
"51 422 LINE",
"270 422 LINE",
"270 427 LINE",
"113 427 LINE",
"188 443 OFFCURVE",
"205 491 OFFCURVE",
"195 516 CURVE SMOOTH",
"188 535 OFFCURVE",
"173 543 OFFCURVE",
"156 546 CURVE",
"270 546 LINE",
"270 551 LINE"
);
},
{
closed = 1;
nodes = (
"194 485 OFFCURVE",
"80 418 OFFCURVE",
"49 447 CURVE SMOOTH",
"17 479 OFFCURVE",
"154 563 OFFCURVE",
"181 521 CURVE"
);
},
{
closed = 1;
nodes = (
"51 436 LINE",
"53 433 OFFCURVE",
"60 429 OFFCURVE",
"69 427 CURVE",
"51 427 LINE"
);
}
);
width = 270;
}
);
unicode = 00BA;
},
{
glyphname = Omega;
lastChange = "2015-08-07 07:40:10 +0000";
layers = (
{
layerId = "4084567E-8F17-43C6-B459-5B57676AC7A4";
name = Regular;
paths = (
{
closed = 1;
nodes = (
"110 551 LINE",
"110 546 LINE",
"0 546 LINE",
"0 551 LINE"
);
},
{
closed = 1;
nodes = (
"110 427 LINE",
"110 422 LINE",
"0 422 LINE",
"0 427 LINE"
);
},
{
closed = 1;
nodes = (
"110 303 LINE",
"110 298 LINE",
"0 298 LINE",
"0 303 LINE"
);
},
{
closed = 1;
nodes = (
"110 178 LINE",
"110 173 LINE",
"0 173 LINE",
"0 178 LINE"
);
},
{
closed = 1;
nodes = (
"110 54 LINE",
"110 49 LINE",
"0 49 LINE",
"0 54 LINE"
);
},
{
closed = 1;
nodes = (
"6 -281 LINE",
"6 -57 LINE",
"23 -52 LINE",
"23 -140 LINE",
"101 -116 LINE",
"101 -340 LINE",
"83 -345 LINE",
"83 -254 LINE"
);
},
{
closed = 1;
nodes = (
"23 -243 LINE",
"83 -222 LINE",
"83 -150 LINE",
"23 -174 LINE"
);
}
);
width = 110;
}
);
unicode = 03A9;
},
{
glyphname = pi;
lastChange = "2015-08-07 07:40:10 +0000";
layers = (
{
layerId = "4084567E-8F17-43C6-B459-5B57676AC7A4";
name = Regular;
paths = (
{
closed = 1;
nodes = (
"110 551 LINE",
"101 551 LINE",
"101 567 LINE",
"49 551 LINE",
"23 551 LINE",
"23 631 LINE",
"6 626 LINE",
"6 551 LINE",
"0 551 LINE",
"0 546 LINE",
"6 546 LINE",
"6 427 LINE",
"0 427 LINE",
"0 422 LINE",
"6 422 LINE",
"6 402 LINE",
"63 422 LINE",
"83 422 LINE",
"83 338 LINE",
"101 343 LINE",
"101 422 LINE",
"110 422 LINE",
"110 427 LINE",
"101 427 LINE",
"101 546 LINE",
"110 546 LINE"
);
},
{
closed = 1;
nodes = (
"23 546 LINE",
"33 546 LINE",
"23 543 LINE"
);
},
{
closed = 1;
nodes = (
"83 533 LINE",
"83 461 LINE",
"23 440 LINE",
"23 509 LINE"
);
},
{
closed = 1;
nodes = (
"83 429 LINE",
"83 427 LINE",
"77 427 LINE"
);
},
{
closed = 1;
nodes = (
"110 298 LINE",
"110 303 LINE",
"0 303 LINE",
"0 298 LINE"
);
},
{
closed = 1;
nodes = (
"110 173 LINE",
"110 178 LINE",
"0 178 LINE",
"0 173 LINE"
);
},
{
closed = 1;
nodes = (
"110 49 LINE",
"110 54 LINE",
"0 54 LINE",
"0 49 LINE"
);
}
);
width = 110;
}
);
unicode = 03C0;
},
{
glyphname = zero;
lastChange = "2015-08-07 07:40:10 +0000";
layers = (
{
layerId = "4084567E-8F17-43C6-B459-5B57676AC7A4";
name = Regular;
paths = (
{
closed = 1;
nodes = (
"0 551 LINE",
"0 546 LINE",
"104 546 LINE",
"64 539 OFFCURVE",
"29 514 OFFCURVE",
"24 484 CURVE",
"24 427 LINE",
"0 427 LINE",
"0 422 LINE",
"24 422 LINE",
"24 303 LINE",
"0 303 LINE",
"0 298 LINE",
"24 298 LINE",
"25 178 LINE",
"0 178 LINE",
"0 173 LINE",
"25 173 LINE",
"25 54 LINE",
"0 54 LINE",
"0 49 LINE",
"270 49 LINE",
"270 54 LINE",
"44 54 LINE",
"44 173 LINE",
"270 173 LINE",
"270 178 LINE",
"44 178 LINE",
"45 298 LINE",
"270 298 LINE",
"270 303 LINE",
"45 303 LINE",
"45 422 LINE",
"270 422 LINE",
"270 427 LINE",
"107 427 LINE",
"182 443 OFFCURVE",
"199 491 OFFCURVE",
"189 516 CURVE SMOOTH",
"182 535 OFFCURVE",
"167 543 OFFCURVE",
"150 546 CURVE",
"270 546 LINE",
"270 551 LINE"
);
},
{
closed = 1;
nodes = (
"45 436 LINE",
"47 433 OFFCURVE",
"54 429 OFFCURVE",
"63 427 CURVE",
"45 427 LINE"
);
}
);
width = 270;
}
);
unicode = 0030;
},
{
glyphname = one;
lastChange = "2015-08-07 07:40:10 +0000";
layers = (
{
layerId = "4084567E-8F17-43C6-B459-5B57676AC7A4";
name = Regular;
paths = (
{
closed = 1;
nodes = (
"0 546 LINE",
"270 546 LINE",
"270 551 LINE",
"0 551 LINE"
);
},
{
closed = 1;
nodes = (
"270 422 LINE",
"270 427 LINE",
"0 427 LINE",
"0 422 LINE"
);
},
{
closed = 1;
nodes = (
"193 361 LINE",
"193 303 LINE",
"0 303 LINE",
"0 298 LINE",
"193 298 LINE",
"193 178 LINE",
"0 178 LINE",
"0 173 LINE",
"193 173 LINE",
"193 54 LINE",
"0 54 LINE",
"0 49 LINE",
"193 49 LINE",
"193 -24 LINE",
"188 -17 OFFCURVE",
"159 -7 OFFCURVE",
"130 -13 CURVE SMOOTH",
"81 -23 OFFCURVE",
"56 -48 OFFCURVE",
"47 -71 CURVE",
"14 -71 LINE",
"14 -76 LINE",
"45 -76 LINE",
"43 -86 OFFCURVE",
"43 -96 OFFCURVE",
"46 -103 CURVE SMOOTH",
"57 -131 OFFCURVE",
"88 -134 OFFCURVE",
"111 -134 CURVE SMOOTH",
"158 -134 OFFCURVE",
"202 -109 OFFCURVE",
"210 -76 CURVE",
"270 -76 LINE",
"270 -71 LINE",
"211 -71 LINE",
"211 49 LINE",
"270 49 LINE",
"270 54 LINE",
"211 54 LINE",
"211 173 LINE",
"270 173 LINE",
"270 178 LINE",
"211 178 LINE",
"211 298 LINE",
"270 298 LINE",
"270 303 LINE",
"211 303 LINE",
"211 361 LINE"
);
}
);
width = 270;
}
);
unicode = 0031;
},
{
glyphname = two;
lastChange = "2015-08-07 07:40:10 +0000";
layers = (
{
layerId = "4084567E-8F17-43C6-B459-5B57676AC7A4";
name = Regular;
paths = (
{
closed = 1;
nodes = (
"0 546 LINE",
"270 546 LINE",
"270 551 LINE",
"0 551 LINE"
);
},
{
closed = 1;
nodes = (
"193 422 LINE",
"193 303 LINE",
"0 303 LINE",
"0 298 LINE",
"193 298 LINE",
"193 178 LINE",
"0 178 LINE",
"0 173 LINE",
"193 173 LINE",
"193 54 LINE",
"0 54 LINE",
"0 49 LINE",
"136 49 LINE",
"134 49 OFFCURVE",
"132 48 OFFCURVE",
"130 48 CURVE",
"55 32 OFFCURVE",
"36 -17 OFFCURVE",
"46 -42 CURVE SMOOTH",
"57 -70 OFFCURVE",
"88 -73 OFFCURVE",
"111 -73 CURVE SMOOTH",
"160 -73 OFFCURVE",
"205 -46 OFFCURVE",
"211 -11 CURVE",
"211 49 LINE",
"270 49 LINE",
"270 54 LINE",
"211 54 LINE",
"211 173 LINE",
"270 173 LINE",
"270 178 LINE",
"211 178 LINE",
"211 298 LINE",
"270 298 LINE",
"270 303 LINE",
"211 303 LINE",
"211 422 LINE",
"270 422 LINE",
"270 427 LINE",
"0 427 LINE",
"0 422 LINE"
);
},
{
closed = 1;
nodes = (
"190 41 OFFCURVE",
"177 47 OFFCURVE",
"161 49 CURVE",
"193 49 LINE",
"193 37 LINE"
);
}
);
width = 270;
}
);
unicode = 0032;
},
{
glyphname = three;
lastChange = "2015-08-07 07:40:10 +0000";
layers = (
{
layerId = "4084567E-8F17-43C6-B459-5B57676AC7A4";
name = Regular;
paths = (
{
closed = 1;
nodes = (
"0 546 LINE",
"270 546 LINE",
"270 551 LINE",
"0 551 LINE"
);
},
{
closed = 1;
nodes = (
"191 485 LINE",
"191 427 LINE",
"0 427 LINE",
"0 422 LINE",
"191 422 LINE",
"191 303 LINE",
"0 303 LINE",
"0 298 LINE",
"191 298 LINE",
"191 178 LINE",
"0 178 LINE",
"0 173 LINE",
"191 173 LINE",
"191 100 LINE",
"186 107 OFFCURVE",
"158 117 OFFCURVE",
"129 111 CURVE SMOOTH",
"81 101 OFFCURVE",
"55 77 OFFCURVE",
"46 54 CURVE",
"0 54 LINE",
"0 49 LINE",
"45 49 LINE",
"42 39 OFFCURVE",
"42 29 OFFCURVE",
"45 21 CURVE SMOOTH",
"56 -7 OFFCURVE",
"87 -10 OFFCURVE",
"110 -10 CURVE SMOOTH",
"158 -10 OFFCURVE",
"201 15 OFFCURVE",
"209 49 CURVE",
"270 49 LINE",
"270 54 LINE",
"210 54 LINE",
"210 173 LINE",
"270 173 LINE",
"270 178 LINE",
"210 178 LINE",
"210 298 LINE",
"270 298 LINE",
"270 303 LINE",
"210 303 LINE",
"210 422 LINE",
"270 422 LINE",
"270 427 LINE",
"210 427 LINE",
"210 485 LINE"
);
}
);
width = 270;
}
);
unicode = 0033;
},
{
glyphname = four;
lastChange = "2015-08-07 07:40:10 +0000";
layers = (
{
layerId = "4084567E-8F17-43C6-B459-5B57676AC7A4";
name = Regular;
paths = (
{
closed = 1;
nodes = (
"270 551 LINE",
"0 551 LINE",
"0 546 LINE",
"192 546 LINE",
"192 427 LINE",
"0 427 LINE",
"0 422 LINE",
"192 422 LINE",
"192 303 LINE",
"0 303 LINE",
"0 298 LINE",
"192 298 LINE",
"192 178 LINE",
"0 178 LINE",
"0 173 LINE",
"130 173 LINE",
"55 157 OFFCURVE",
"36 108 OFFCURVE",
"46 83 CURVE SMOOTH",
"53 65 OFFCURVE",
"69 57 OFFCURVE",
"85 54 CURVE",
"0 54 LINE",
"0 49 LINE",
"270 49 LINE",
"270 54 LINE",
"134 54 LINE",
"173 61 OFFCURVE",
"206 85 OFFCURVE",
"211 114 CURVE",
"211 173 LINE",
"270 173 LINE",
"270 178 LINE",
"211 178 LINE",
"211 298 LINE",
"270 298 LINE",
"270 303 LINE",
"211 303 LINE",
"211 422 LINE",
"270 422 LINE",
"270 427 LINE",
"211 427 LINE",
"211 546 LINE",
"270 546 LINE"
);
},
{
closed = 1;
nodes = (
"189 166 OFFCURVE",
"180 170 OFFCURVE",
"167 173 CURVE",
"192 173 LINE",
"192 162 LINE"
);
}
);
width = 270;
}
);
unicode = 0034;
},
{
glyphname = five;
lastChange = "2015-08-07 07:40:10 +0000";
layers = (
{
layerId = "4084567E-8F17-43C6-B459-5B57676AC7A4";
name = Regular;
paths = (
{
closed = 1;
nodes = (
"270 551 LINE",
"211 551 LINE",
"211 610 LINE",
"192 610 LINE",
"192 551 LINE",
"0 551 LINE",
"0 546 LINE",
"192 546 LINE",
"192 427 LINE",
"0 427 LINE",
"0 422 LINE",
"192 422 LINE",
"192 303 LINE",
"0 303 LINE",
"0 298 LINE",
"192 298 LINE",
"192 225 LINE",
"187 232 OFFCURVE",
"159 242 OFFCURVE",
"130 236 CURVE SMOOTH",
"81 226 OFFCURVE",
"56 201 OFFCURVE",
"47 178 CURVE",
"0 178 LINE",
"0 173 LINE",
"45 173 LINE",
"43 163 OFFCURVE",
"43 153 OFFCURVE",
"46 146 CURVE SMOOTH",
"57 118 OFFCURVE",
"88 115 OFFCURVE",
"111 115 CURVE SMOOTH",
"158 115 OFFCURVE",
"202 140 OFFCURVE",
"210 173 CURVE",
"270 173 LINE",
"270 178 LINE",
"211 178 LINE",
"211 298 LINE",
"270 298 LINE",
"270 303 LINE",
"211 303 LINE",
"211 422 LINE",
"270 422 LINE",
"270 427 LINE",
"211 427 LINE",
"211 546 LINE",
"270 546 LINE"
);
},
{
closed = 1;
nodes = (
"270 49 LINE",
"270 54 LINE",
"0 54 LINE",
"0 49 LINE"
);
}
);
width = 270;
}
);
unicode = 0035;
},
{
glyphname = six;
lastChange = "2015-08-07 07:40:10 +0000";
layers = (
{
layerId = "4084567E-8F17-43C6-B459-5B57676AC7A4";
name = Regular;
paths = (
{
closed = 1;
nodes = (
"270 551 LINE",
"211 551 LINE",
"211 672 LINE",
"192 672 LINE",
"192 551 LINE",
"0 551 LINE",
"0 546 LINE",
"192 546 LINE",
"192 427 LINE",
"0 427 LINE",
"0 422 LINE",
"192 422 LINE",
"192 303 LINE",
"0 303 LINE",
"0 298 LINE",
"130 298 LINE",
"55 282 OFFCURVE",
"36 233 OFFCURVE",
"46 208 CURVE SMOOTH",
"54 187 OFFCURVE",
"73 180 OFFCURVE",
"92 178 CURVE",
"0 178 LINE",
"0 173 LINE",
"270 173 LINE",
"270 178 LINE",
"127 178 LINE",
"170 183 OFFCURVE",
"206 208 OFFCURVE",
"211 239 CURVE",
"211 298 LINE",
"270 298 LINE",
"270 303 LINE",
"211 303 LINE",
"211 422 LINE",
"270 422 LINE",
"270 427 LINE",
"211 427 LINE",
"211 546 LINE",
"270 546 LINE"
);
},
{
closed = 1;
nodes = (
"189 291 OFFCURVE",
"180 295 OFFCURVE",
"167 298 CURVE",
"192 298 LINE",
"192 287 LINE"
);
},
{
closed = 1;
nodes = (
"270 49 LINE",
"270 54 LINE",
"0 54 LINE",
"0 49 LINE"
);
}
);
width = 270;
}
);
unicode = 0036;
},
{
glyphname = seven;
lastChange = "2015-08-07 07:40:10 +0000";
layers = (
{
layerId = "4084567E-8F17-43C6-B459-5B57676AC7A4";
name = Regular;
paths = (
{
closed = 1;
nodes = (
"270 551 LINE",
"211 551 LINE",
"211 735 LINE",
"192 735 LINE",
"192 551 LINE",
"0 551 LINE",
"0 546 LINE",
"192 546 LINE",
"192 427 LINE",
"0 427 LINE",
"0 422 LINE",
"192 422 LINE",
"192 350 LINE",
"187 357 OFFCURVE",
"159 367 OFFCURVE",
"130 361 CURVE SMOOTH",
"81 351 OFFCURVE",
"56 326 OFFCURVE",
"47 303 CURVE",
"0 303 LINE",
"0 298 LINE",
"45 298 LINE",
"43 288 OFFCURVE",
"43 278 OFFCURVE",
"46 271 CURVE SMOOTH",
"57 243 OFFCURVE",
"88 240 OFFCURVE",
"111 240 CURVE SMOOTH",
"158 240 OFFCURVE",
"202 265 OFFCURVE",
"210 298 CURVE",
"270 298 LINE",
"270 303 LINE",
"211 303 LINE",
"211 422 LINE",
"270 422 LINE",
"270 427 LINE",
"211 427 LINE",
"211 546 LINE",
"270 546 LINE"
);
},
{
closed = 1;
nodes = (
"270 173 LINE",
"270 178 LINE",
"0 178 LINE",
"0 173 LINE"
);
},
{
closed = 1;
nodes = (
"270 49 LINE",
"270 54 LINE",
"0 54 LINE",
"0 49 LINE"
);
}
);
width = 270;
}
);
unicode = 0037;
},
{
glyphname = eight;
lastChange = "2015-08-07 07:40:10 +0000";
layers = (
{
layerId = "4084567E-8F17-43C6-B459-5B57676AC7A4";
name = Regular;
paths = (
{
closed = 1;
nodes = (
"0 546 LINE",
"270 546 LINE",
"270 551 LINE",
"0 551 LINE"
);
},
{
closed = 1;
nodes = (
"102 422 LINE",
"64 414 OFFCURVE",
"32 390 OFFCURVE",
"27 361 CURVE",
"27 303 LINE",
"0 303 LINE",
"0 298 LINE",
"27 298 LINE",
"27 178 LINE",
"0 178 LINE",
"0 173 LINE",
"27 173 LINE",
"28 54 LINE",
"0 54 LINE",
"0 49 LINE",
"28 49 LINE",
"28 -72 LINE",
"47 -72 LINE",
"47 49 LINE",
"270 49 LINE",
"270 54 LINE",
"47 54 LINE",
"48 173 LINE",
"270 173 LINE",
"270 178 LINE",
"48 178 LINE",
"48 298 LINE",
"270 298 LINE",
"270 303 LINE",
"105 303 LINE",
"107 303 OFFCURVE",
"108 304 OFFCURVE",
"110 304 CURVE",
"185 320 OFFCURVE",
"202 368 OFFCURVE",
"192 393 CURVE",
"186 410 OFFCURVE",
"173 418 OFFCURVE",
"158 422 CURVE",
"270 422 LINE",
"270 427 LINE",
"0 427 LINE",
"0 422 LINE"
);
},
{
closed = 1;
nodes = (
"48 313 LINE",
"51 309 OFFCURVE",
"59 305 OFFCURVE",
"71 303 CURVE",
"48 303 LINE"
);
}
);
width = 270;
}
);
unicode = 0038;
},
{
glyphname = nine;
lastChange = "2015-08-07 07:40:10 +0000";
layers = (
{
layerId = "4084567E-8F17-43C6-B459-5B57676AC7A4";
name = Regular;
paths = (
{
closed = 1;
nodes = (
"0 546 LINE",
"270 546 LINE",
"270 551 LINE",
"0 551 LINE"
);
},
{
closed = 1;
nodes = (
"185 482 OFFCURVE",
"154 485 OFFCURVE",
"131 485 CURVE SMOOTH",
"85 484 OFFCURVE",
"41 459 OFFCURVE",
"31 427 CURVE",
"0 427 LINE",
"0 422 LINE",
"30 422 LINE",
"30 303 LINE",
"0 303 LINE",
"0 298 LINE",
"30 298 LINE",
"31 178 LINE",
"0 178 LINE",
"0 173 LINE",
"31 173 LINE",
"31 54 LINE",
"0 54 LINE",
"0 49 LINE",
"31 49 LINE",
"31 -12 LINE",
"50 -12 LINE",
"50 49 LINE",
"270 49 LINE",
"270 54 LINE",
"50 54 LINE",
"49 173 LINE",
"270 173 LINE",
"270 178 LINE",
"49 178 LINE",
"48 298 LINE",
"270 298 LINE",
"270 303 LINE",
"48 303 LINE",
"48 375 LINE",
"53 368 OFFCURVE",
"83 357 OFFCURVE",
"113 364 CURVE SMOOTH",
"163 375 OFFCURVE",
"187 399 OFFCURVE",
"195 422 CURVE",
"270 422 LINE",
"270 427 LINE",
"196 427 LINE",
"199 437 OFFCURVE",
"198 446 OFFCURVE",
"195 453 CURVE"
);
}
);
width = 270;
}
);
unicode = 0039;
},
{
glyphname = fraction;
lastChange = "2015-08-07 07:40:10 +0000";
layers = (
{
layerId = "4084567E-8F17-43C6-B459-5B57676AC7A4";
name = Regular;
paths = (
{
closed = 1;
nodes = (
"0 546 LINE",
"320 546 LINE",
"320 551 LINE",
"0 551 LINE"
);
},
{
closed = 1;
nodes = (
"320 422 LINE",
"320 427 LINE",
"0 427 LINE",
"0 422 LINE"
);
},
{
closed = 1;
nodes = (
"320 298 LINE",
"320 303 LINE",
"0 303 LINE",
"0 298 LINE"
);
},
{
closed = 1;
nodes = (
"320 173 LINE",
"320 178 LINE",
"0 178 LINE",
"0 173 LINE"
);
},
{
closed = 1;
nodes = (
"320 49 LINE",
"320 54 LINE",
"0 54 LINE",
"0 49 LINE"
);
},
{
closed = 1;
nodes = (
"214 -34 OFFCURVE",
"177 -5 OFFCURVE",
"129 -9 CURVE SMOOTH",
"64 -14 OFFCURVE",
"43 -45 OFFCURVE",
"41 -71 CURVE",
"14 -71 LINE",
"14 -76 LINE",
"41 -76 LINE",
"41 -81 LINE",
"44 -109 OFFCURVE",
"77 -134 OFFCURVE",
"127 -134 CURVE SMOOTH",
"184 -134 OFFCURVE",
"215 -107 OFFCURVE",
"219 -76 CURVE",
"270 -76 LINE",
"270 -71 LINE",
"219 -71 LINE",
"219 -64 LINE"
);
},
{
closed = 1;
nodes = (
"142 -12 OFFCURVE",
"161 -41 OFFCURVE",
"166 -71 CURVE",
"97 -71 LINE",
"94 -50 OFFCURVE",
"100 -30 OFFCURVE",
"117 -22 CURVE"
);
},
{
closed = 1;
nodes = (
"120 -130 OFFCURVE",
"102 -104 OFFCURVE",
"97 -76 CURVE",
"166 -76 LINE",
"168 -97 OFFCURVE",
"162 -118 OFFCURVE",
"144 -124 CURVE"
);
}
);
width = 320;
}
);
unicode = 2044;
},
{
glyphname = asterisk;
lastChange = "2015-08-07 07:40:10 +0000";
layers = (
{
layerId = "4084567E-8F17-43C6-B459-5B57676AC7A4";
name = Regular;
paths = (
{
closed = 1;
nodes = (
"0 546 LINE",
"270 546 LINE",
"270 551 LINE",
"0 551 LINE"
);
},
{
closed = 1;
nodes = (
"99 422 LINE",
"61 414 OFFCURVE",
"29 390 OFFCURVE",
"24 361 CURVE",
"24 303 LINE",
"0 303 LINE",
"0 298 LINE",
"24 298 LINE",
"24 178 LINE",
"0 178 LINE",
"0 173 LINE",
"24 173 LINE",
"25 54 LINE",
"0 54 LINE",
"0 49 LINE",
"25 49 LINE",
"25 -72 LINE",
"44 -72 LINE",
"44 -61 LINE",
"47 -39 OFFCURVE",
"69 -23 OFFCURVE",
"81 -8 CURVE SMOOTH",
"95 10 OFFCURVE",
"107 29 OFFCURVE",
"115 49 CURVE",
"270 49 LINE",
"270 54 LINE",
"118 54 LINE",
"133 91 OFFCURVE",
"139 131 OFFCURVE",
"133 173 CURVE",
"270 173 LINE",
"270 178 LINE",
"132 178 LINE",
"127 205 OFFCURVE",
"117 233 OFFCURVE",
"101 260 CURVE",
"88 260 LINE",
"99 233 OFFCURVE",
"106 205 OFFCURVE",
"109 178 CURVE",
"44 178 LINE",
"44 298 LINE",
"270 298 LINE",
"270 303 LINE",
"102 303 LINE",
"104 303 OFFCURVE",
"105 304 OFFCURVE",
"107 304 CURVE",
"182 320 OFFCURVE",
"199 368 OFFCURVE",
"189 393 CURVE",
"183 410 OFFCURVE",
"170 418 OFFCURVE",
"155 422 CURVE",
"270 422 LINE",
"270 427 LINE",
"0 427 LINE",
"0 422 LINE"
);
},
{
closed = 1;
nodes = (
"44 313 LINE",
"47 309 OFFCURVE",
"55 305 OFFCURVE",
"67 303 CURVE",
"44 303 LINE"
);
},
{
closed = 1;
nodes = (
"113 122 OFFCURVE",
"98 75 OFFCURVE",
"60 54 CURVE",
"44 54 LINE",
"44 173 LINE",
"109 173 LINE"
);
},
{
closed = 1;
nodes = (
"44 49 LINE",
"49 49 LINE",
"48 48 OFFCURVE",
"46 48 OFFCURVE",
"44 47 CURVE"
);
}
);
width = 270;
}
);
unicode = 002A;
},
{
glyphname = backslash;
lastChange = "2015-08-07 07:40:10 +0000";
layers = (
{
layerId = "4084567E-8F17-43C6-B459-5B57676AC7A4";
name = Regular;
paths = (
{
closed = 1;
nodes = (
"0 546 LINE",
"270 546 LINE",
"270 551 LINE",
"0 551 LINE"
);
},
{
closed = 1;
nodes = (
"103 476 LINE",
"124 446 OFFCURVE",
"130 437 OFFCURVE",
"131 427 CURVE",
"0 427 LINE",
"0 422 LINE",
"131 422 LINE",
"128 382 OFFCURVE",
"103 353 OFFCURVE",
"80 327 CURVE",
"102 303 LINE",
"0 303 LINE",
"0 298 LINE",
"107 298 LINE",
"163 238 LINE",
"144 246 OFFCURVE",
"127 249 OFFCURVE",
"113 249 CURVE SMOOTH",
"88 249 OFFCURVE",
"79 236 OFFCURVE",
"79 218 CURVE SMOOTH",
"79 206 OFFCURVE",
"83 193 OFFCURVE",
"92 178 CURVE",
"0 178 LINE",
"0 173 LINE",
"95 173 LINE",
"108 154 OFFCURVE",
"127 132 OFFCURVE",
"153 107 CURVE",
"141 129 OFFCURVE",
"132 155 OFFCURVE",
"131 173 CURVE",
"270 173 LINE",
"270 178 LINE",
"131 178 LINE",
"132 183 OFFCURVE",
"133 187 OFFCURVE",
"135 190 CURVE",
"142 204 OFFCURVE",
"164 210 OFFCURVE",
"199 209 CURVE",
"203 218 LINE",
"168 244 OFFCURVE",
"145 268 OFFCURVE",
"142 298 CURVE",
"270 298 LINE",
"270 303 LINE",
"142 303 LINE",
"141 329 OFFCURVE",
"156 359 OFFCURVE",
"191 396 CURVE",
"167 422 LINE",
"270 422 LINE",
"270 427 LINE",
"162 427 LINE",
"116 476 LINE"
);
},
{
closed = 1;
nodes = (
"270 49 LINE",
"270 54 LINE",
"0 54 LINE",
"0 49 LINE"
);
}
);
width = 270;
}
);
unicode = 005C;
},
{
glyphname = periodcentered;
lastChange = "2015-08-07 07:40:10 +0000";
layers = (
{
layerId = "4084567E-8F17-43C6-B459-5B57676AC7A4";
name = Regular;
paths = (
{
closed = 1;
nodes = (
"0 546 LINE",
"270 546 LINE",
"270 551 LINE",
"0 551 LINE"
);
},
{
closed = 1;
nodes = (
"213 462 OFFCURVE",
"176 491 OFFCURVE",
"128 487 CURVE SMOOTH",
"64 482 OFFCURVE",
"43 452 OFFCURVE",
"40 427 CURVE",
"0 427 LINE",
"0 422 LINE",
"40 422 LINE",
"40 415 LINE",
"43 387 OFFCURVE",
"76 362 OFFCURVE",
"126 362 CURVE SMOOTH",
"184 362 OFFCURVE",
"216 391 OFFCURVE",
"218 422 CURVE",
"270 422 LINE",
"270 427 LINE",
"218 427 LINE",
"218 432 LINE"
);
},
{
closed = 1;
nodes = (
"140 483 OFFCURVE",
"159 456 OFFCURVE",
"164 427 CURVE",
"95 427 LINE",
"94 447 OFFCURVE",
"100 466 OFFCURVE",
"116 474 CURVE"
);
},
{
closed = 1;
nodes = (
"119 366 OFFCURVE",
"100 394 OFFCURVE",
"96 422 CURVE",
"165 422 LINE",
"167 400 OFFCURVE",
"161 378 OFFCURVE",
"143 372 CURVE"
);
},
{
closed = 1;
nodes = (
"270 298 LINE",
"270 303 LINE",
"0 303 LINE",
"0 298 LINE"
);
},
{
closed = 1;
nodes = (
"270 173 LINE",
"270 178 LINE",
"0 178 LINE",
"0 173 LINE"
);
},
{
closed = 1;
nodes = (
"270 49 LINE",
"270 54 LINE",
"0 54 LINE",
"0 49 LINE"
);
}
);
width = 270;
}
);
unicode = 00B7;
},
{
glyphname = bullet;
lastChange = "2015-08-07 07:40:10 +0000";
layers = (
{
layerId = "4084567E-8F17-43C6-B459-5B57676AC7A4";
name = Regular;
paths = (
{
closed = 1;
nodes = (
"0 546 LINE",
"270 546 LINE",
"270 551 LINE",
"0 551 LINE"
);
},
{
closed = 1;
nodes = (
"102 422 LINE",
"64 414 OFFCURVE",
"32 390 OFFCURVE",
"27 361 CURVE",
"27 303 LINE",
"0 303 LINE",
"0 298 LINE",
"27 298 LINE",
"27 178 LINE",
"0 178 LINE",
"0 173 LINE",
"27 173 LINE",
"28 54 LINE",
"0 54 LINE",
"0 49 LINE",
"28 49 LINE",
"28 -72 LINE",
"47 -72 LINE",
"47 49 LINE",
"270 49 LINE",
"270 54 LINE",
"47 54 LINE",
"48 173 LINE",
"270 173 LINE",
"270 178 LINE",
"48 178 LINE",
"48 298 LINE",
"270 298 LINE",
"270 303 LINE",
"105 303 LINE",
"107 303 OFFCURVE",
"108 304 OFFCURVE",
"110 304 CURVE",
"185 320 OFFCURVE",
"202 368 OFFCURVE",
"192 393 CURVE",
"186 410 OFFCURVE",
"173 418 OFFCURVE",
"158 422 CURVE",
"270 422 LINE",
"270 427 LINE",
"0 427 LINE",
"0 422 LINE"
);
},
{
closed = 1;
nodes = (
"191 361 OFFCURVE",
"77 294 OFFCURVE",
"46 323 CURVE SMOOTH",
"14 355 OFFCURVE",
"151 439 OFFCURVE",
"178 397 CURVE"
);
},
{
closed = 1;
nodes = (
"48 313 LINE",
"51 309 OFFCURVE",
"59 305 OFFCURVE",
"71 303 CURVE",
"48 303 LINE"
);
}
);
width = 270;
}
);
unicode = 2022;
},
{
glyphname = colon;
lastChange = "2015-08-07 07:40:10 +0000";
layers = (
{
layerId = "4084567E-8F17-43C6-B459-5B57676AC7A4";
name = Regular;
paths = (
{
closed = 1;
nodes = (
"70 -373 LINE",
"90 -373 LINE",
"90 -381 LINE",
"17 -381 LINE",
"17 -373 LINE",
"37 -373 LINE",
"98 -231 LINE",
"101 -223 LINE",
"101 -219 OFFCURVE",
"96 -217 OFFCURVE",
"92 -217 CURVE SMOOTH",
"76 -217 OFFCURVE",
"61 -248 OFFCURVE",
"54 -268 CURVE",
"48 -267 LINE",
"55 -246 OFFCURVE",
"71 -211 OFFCURVE",
"97 -211 CURVE SMOOTH",
"106 -211 OFFCURVE",
"113 -217 OFFCURVE",
"113 -225 CURVE",
"117 -216 OFFCURVE",
"138 -204 OFFCURVE",
"157 -204 CURVE SMOOTH",
"161 -204 OFFCURVE",
"164 -205 OFFCURVE",
"168 -207 CURVE",
"186 -211 OFFCURVE",
"194 -224 OFFCURVE",
"194 -246 CURVE SMOOTH",
"194 -268 OFFCURVE",
"187 -289 OFFCURVE",
"163 -308 CURVE SMOOTH",
"151 -318 OFFCURVE",
"138 -323 OFFCURVE",
"127 -323 CURVE SMOOTH",
"116 -323 OFFCURVE",
"107 -314 OFFCURVE",
"100 -299 CURVE"
);
},
{
closed = 1;
nodes = (
"144 -217 OFFCURVE",
"127 -236 OFFCURVE",
"118 -255 CURVE",
"110 -268 OFFCURVE",
"106 -302 OFFCURVE",
"121 -302 CURVE SMOOTH",
"132 -302 OFFCURVE",
"151 -285 OFFCURVE",
"159 -268 CURVE SMOOTH",
"169 -247 OFFCURVE",
"175 -217 OFFCURVE",
"157 -217 CURVE SMOOTH"
);
}
);
width = 0;
}
);
unicode = 003A;
},
{
glyphname = comma;
lastChange = "2015-08-07 07:40:10 +0000";
layers = (
{
layerId = "4084567E-8F17-43C6-B459-5B57676AC7A4";
name = Regular;
paths = (
{
closed = 1;
nodes = (
"0 49 LINE",
"5 49 LINE",
"5 551 LINE",
"0 551 LINE"
);
}
);
width = 5;
}
);
unicode = 002C;
},
{
glyphname = ellipsis;
lastChange = "2015-08-07 07:40:10 +0000";
layers = (
{
layerId = "4084567E-8F17-43C6-B459-5B57676AC7A4";
name = Regular;
paths = (
{
closed = 1;
nodes = (
"290 -265 LINE",
"290 -271 LINE",
"257 -271 LINE",
"257 -272 OFFCURVE",
"255 -276 OFFCURVE",
"254 -284 CURVE",
"236 -339 OFFCURVE",
"220 -370 OFFCURVE",
"183 -388 CURVE",
"169 -396 OFFCURVE",
"144 -396 OFFCURVE",
"137 -384 CURVE",
"135 -380 OFFCURVE",
"133 -377 OFFCURVE",
"133 -373 CURVE SMOOTH",
"133 -363 OFFCURVE",
"145 -354 OFFCURVE",
"155 -356 CURVE",
"164 -356 OFFCURVE",
"169 -360 OFFCURVE",
"169 -368 CURVE SMOOTH",
"169 -374 OFFCURVE",
"166 -380 OFFCURVE",
"157 -382 CURVE",
"151 -382 OFFCURVE",
"155 -389 OFFCURVE",
"163 -388 CURVE",
"168 -388 OFFCURVE",
"173 -384 OFFCURVE",
"179 -376 CURVE SMOOTH",
"195 -356 OFFCURVE",
"205 -327 OFFCURVE",
"216 -290 CURVE",
"218 -281 OFFCURVE",
"220 -275 OFFCURVE",
"220 -271 CURVE",
"197 -271 LINE",
"197 -265 LINE",
"222 -265 LINE",
"222 -263 OFFCURVE",
"224 -259 OFFCURVE",
"227 -252 CURVE SMOOTH",
"235 -233 OFFCURVE",
"252 -215 OFFCURVE",
"280 -208 CURVE",
"306 -204 OFFCURVE",
"329 -211 OFFCURVE",
"329 -230 CURVE SMOOTH",
"329 -240 OFFCURVE",
"322 -245 OFFCURVE",
"313 -245 CURVE SMOOTH",
"306 -245 OFFCURVE",
"301 -241 OFFCURVE",
"301 -234 CURVE SMOOTH",
"301 -228 OFFCURVE",
"306 -223 OFFCURVE",
"313 -222 CURVE",
"318 -222 OFFCURVE",
"320 -221 OFFCURVE",
"321 -221 CURVE",
"321 -217 OFFCURVE",
"317 -214 OFFCURVE",
"308 -214 CURVE SMOOTH",
"278 -214 OFFCURVE",
"263 -237 OFFCURVE",
"259 -265 CURVE"
);
},
{
closed = 1;
nodes = (
"53 -270 OFFCURVE",
"64 -247 OFFCURVE",
"36 -256 CURVE SMOOTH",
"20 -261 OFFCURVE",
"8 -279 OFFCURVE",
"-4 -297 CURVE",
"3 -297 LINE",
"3 -297 OFFCURVE",
"49 -239 OFFCURVE",
"37 -278 CURVE SMOOTH",
"17 -336 LINE",
"40 -336 LINE",
"59 -276 LINE",
"68 -268 OFFCURVE",
"72 -265 OFFCURVE",
"81 -265 CURVE SMOOTH",
"94 -265 OFFCURVE",
"94 -273 OFFCURVE",
"90 -286 CURVE SMOOTH",
"74 -336 LINE",
"98 -336 LINE",
"113 -276 LINE",
"123 -268 OFFCURVE",
"127 -265 OFFCURVE",
"135 -265 CURVE SMOOTH",
"152 -265 OFFCURVE",
"144 -273 OFFCURVE",
"130 -323 CURVE SMOOTH",
"123 -350 OFFCURVE",
"172 -350 OFFCURVE",
"189 -302 CURVE",
"181 -302 LINE",
"175 -319 OFFCURVE",
"148 -340 OFFCURVE",
"150 -330 CURVE",
"164 -273 OFFCURVE",
"175 -253 OFFCURVE",
"150 -253 CURVE SMOOTH",
"137 -253 OFFCURVE",
"124 -255 OFFCURVE",
"113 -267 CURVE",
"112 -258 OFFCURVE",
"101 -253 OFFCURVE",
"89 -253 CURVE SMOOTH",
"75 -253 OFFCURVE",
"68 -256 OFFCURVE",
"55 -268 CURVE"
);
}
);
width = 0;
}
);
unicode = 2026;
},
{
glyphname = exclam;
lastChange = "2015-08-07 07:40:10 +0000";
layers = (
{
layerId = "4084567E-8F17-43C6-B459-5B57676AC7A4";
name = Regular;
paths = (
{
closed = 1;
nodes = (
"0 546 LINE",
"320 546 LINE",
"320 551 LINE",
"0 551 LINE"
);
},
{
closed = 1;
nodes = (
"304 422 LINE",
"304 427 LINE",
"0 427 LINE",
"0 422 LINE"
);
},
{
closed = 1;
nodes = (
"193 362 LINE",
"193 303 LINE",
"0 303 LINE",
"0 298 LINE",
"193 298 LINE",
"193 178 LINE",
"0 178 LINE",
"0 173 LINE",
"193 173 LINE",
"193 54 LINE",
"0 54 LINE",
"0 49 LINE",
"193 49 LINE",
"193 -23 LINE",
"188 -16 OFFCURVE",
"159 -6 OFFCURVE",
"130 -12 CURVE SMOOTH",
"78 -23 OFFCURVE",
"53 -50 OFFCURVE",
"46 -74 CURVE",
"14 -74 LINE",
"14 -79 LINE",
"44 -79 LINE",
"43 -88 OFFCURVE",
"43 -96 OFFCURVE",
"46 -102 CURVE",
"57 -130 OFFCURVE",
"88 -133 OFFCURVE",
"111 -133 CURVE SMOOTH",
"156 -133 OFFCURVE",
"198 -110 OFFCURVE",
"209 -79 CURVE",
"270 -79 LINE",
"270 -74 LINE",
"210 -74 LINE",
"211 -73 OFFCURVE",
"211 -72 OFFCURVE",
"211 -71 CURVE SMOOTH",
"211 49 LINE",
"263 49 LINE",
"261 43 OFFCURVE",
"259 36 OFFCURVE",
"256 30 CURVE",
"269 30 LINE",
"273 36 OFFCURVE",
"276 43 OFFCURVE",
"279 49 CURVE",
"304 49 LINE",
"304 54 LINE",
"282 54 LINE",
"300 94 OFFCURVE",
"306 135 OFFCURVE",
"302 173 CURVE",
"304 173 LINE",
"304 178 LINE",
"301 178 LINE",
"295 222 OFFCURVE",
"277 263 OFFCURVE",
"249 298 CURVE",
"304 298 LINE",
"304 303 LINE",
"245 303 LINE",
"232 319 OFFCURVE",
"215 337 OFFCURVE",
"211 362 CURVE"
);
},
{
closed = 1;
nodes = (
"211 178 LINE",
"211 243 LINE",
"242 233 OFFCURVE",
"262 209 OFFCURVE",
"271 178 CURVE"
);
},
{
closed = 1;
nodes = (
"211 54 LINE",
"211 173 LINE",
"272 173 LINE",
"281 138 OFFCURVE",
"278 95 OFFCURVE",
"265 54 CURVE"
);
}
);
width = 304;
}
);
unicode = 0021;
},
{
glyphname = exclamdown;
lastChange = "2015-08-07 07:40:10 +0000";
layers = (
{
layerId = "4084567E-8F17-43C6-B459-5B57676AC7A4";
name = Regular;
paths = (
{
closed = 1;
nodes = (
"0 546 LINE",
"270 546 LINE",
"270 551 LINE",
"0 551 LINE"
);
},
{
closed = 1;
nodes = (
"270 422 LINE",
"270 427 LINE",
"0 427 LINE",
"0 422 LINE"
);
},
{
closed = 1;
nodes = (
"193 361 LINE",
"193 303 LINE",
"0 303 LINE",
"0 298 LINE",
"193 298 LINE",
"193 178 LINE",
"0 178 LINE",
"0 173 LINE",
"193 173 LINE",
"193 54 LINE",
"0 54 LINE",
"0 49 LINE",
"193 49 LINE",
"193 -24 LINE",
"188 -17 OFFCURVE",
"159 -7 OFFCURVE",
"130 -13 CURVE SMOOTH",
"81 -23 OFFCURVE",
"56 -48 OFFCURVE",
"47 -71 CURVE",
"14 -71 LINE",
"14 -76 LINE",
"45 -76 LINE",
"43 -86 OFFCURVE",
"43 -96 OFFCURVE",
"46 -103 CURVE SMOOTH",
"57 -131 OFFCURVE",
"88 -134 OFFCURVE",
"111 -134 CURVE SMOOTH",
"158 -134 OFFCURVE",
"202 -109 OFFCURVE",
"210 -76 CURVE",
"270 -76 LINE",
"270 -71 LINE",
"211 -71 LINE",
"211 49 LINE",
"270 49 LINE",
"270 54 LINE",
"211 54 LINE",
"211 173 LINE",
"270 173 LINE",
"270 178 LINE",
"211 178 LINE",
"211 298 LINE",
"270 298 LINE",
"270 303 LINE",
"211 303 LINE",
"211 361 LINE"
);
},
{
closed = 1;
nodes = (
"108 -41 OFFCURVE",
"172 -16 OFFCURVE",
"192 -36 CURVE SMOOTH",
"201 -45 OFFCURVE",
"197 -58 OFFCURVE",
"185 -71 CURVE",
"76 -71 LINE"
);
},
{
closed = 1;
nodes = (
"56 -98 OFFCURVE",
"61 -87 OFFCURVE",
"71 -76 CURVE",
"181 -76 LINE",
"148 -108 OFFCURVE",
"77 -136 OFFCURVE",
"59 -107 CURVE"
);
}
);
width = 270;
}
);
unicode = 00A1;
},
{
glyphname = numbersign;
lastChange = "2015-08-07 07:40:10 +0000";
layers = (
{
layerId = "4084567E-8F17-43C6-B459-5B57676AC7A4";
name = Regular;
paths = (
{
closed = 1;
nodes = (
"0 546 LINE",
"304 546 LINE",
"304 551 LINE",
"0 551 LINE"
);
},
{
closed = 1;
nodes = (
"191 485 LINE",
"191 427 LINE",
"0 427 LINE",
"0 422 LINE",
"191 422 LINE",
"191 303 LINE",
"0 303 LINE",
"0 298 LINE",
"191 298 LINE",
"191 178 LINE",
"0 178 LINE",
"0 173 LINE",
"191 173 LINE",
"191 100 LINE",
"186 107 OFFCURVE",
"158 117 OFFCURVE",
"129 111 CURVE SMOOTH",
"81 101 OFFCURVE",
"55 77 OFFCURVE",
"46 54 CURVE",
"0 54 LINE",
"0 49 LINE",
"45 49 LINE",
"42 39 OFFCURVE",
"42 29 OFFCURVE",
"45 21 CURVE SMOOTH",
"56 -7 OFFCURVE",
"87 -10 OFFCURVE",
"110 -10 CURVE SMOOTH",
"158 -10 OFFCURVE",
"201 15 OFFCURVE",
"209 49 CURVE",
"304 49 LINE",
"304 54 LINE",
"210 54 LINE",
"210 173 LINE",
"263 173 LINE",
"255 153 LINE",
"268 153 LINE",
"279 173 LINE",
"304 173 LINE",
"304 178 LINE",
"281 178 LINE",
"300 219 OFFCURVE",
"305 260 OFFCURVE",
"301 298 CURVE",
"304 298 LINE",
"304 303 LINE",
"300 303 LINE",
"294 346 OFFCURVE",
"275 387 OFFCURVE",
"248 421 CURVE",
"247 422 LINE",
"304 422 LINE",
"304 427 LINE",
"243 427 LINE",
"230 443 OFFCURVE",
"214 460 OFFCURVE",
"210 485 CURVE"
);
},
{
closed = 1;
nodes = (
"210 303 LINE",
"210 366 LINE",
"241 356 OFFCURVE",
"260 333 OFFCURVE",
"269 303 CURVE"
);
},
{
closed = 1;
nodes = (
"210 178 LINE",
"210 298 LINE",
"271 298 LINE",
"280 263 OFFCURVE",
"277 220 OFFCURVE",
"264 178 CURVE"
);
}
);
width = 304;
}
);
unicode = 0023;
},
{
glyphname = period;
lastChange = "2015-08-07 07:40:10 +0000";
layers = (
{
layerId = "4084567E-8F17-43C6-B459-5B57676AC7A4";
name = Regular;
paths = (
{
closed = 1;
nodes = (
"0 551 LINE",
"0 49 LINE",
"57 49 LINE",
"57 551 LINE"
);
},
{
closed = 1;
nodes = (
"9 427 LINE",
"9 546 LINE",
"32 546 LINE",
"32 427 LINE"
);
},
{
closed = 1;
nodes = (
"9 303 LINE",
"9 422 LINE",
"32 422 LINE",
"32 303 LINE"
);
},
{
closed = 1;
nodes = (
"9 178 LINE",
"9 298 LINE",
"32 298 LINE",
"32 178 LINE"
);
},
{
closed = 1;
nodes = (
"9 54 LINE",
"9 173 LINE",
"32 173 LINE",
"32 54 LINE"
);
}
);
width = 57;
}
);
unicode = 002E;
},
{
glyphname = question;
lastChange = "2015-08-07 07:40:10 +0000";
layers = (
{
layerId = "4084567E-8F17-43C6-B459-5B57676AC7A4";
name = Regular;
paths = (
{
closed = 1;
nodes = (
"1 -273 LINE",
"1 -252 LINE",
"847 -315 LINE",
"847 -323 LINE",
"1 -380 LINE",
"1 -360 LINE",
"810 -319 LINE"
);
}
);
width = 0;
}
);
unicode = 003F;
},
{
glyphname = questiondown;
lastChange = "2015-08-07 07:40:10 +0000";
layers = (
{
layerId = "4084567E-8F17-43C6-B459-5B57676AC7A4";
name = Regular;
paths = (
{
closed = 1;
nodes = (
"2 -393 LINE",
"2 -368 LINE",
"2017 -442 LINE",
"2017 -452 LINE",
"2 -519 LINE",
"2 -495 LINE",
"1928 -447 LINE"
);
}
);
width = 0;
}
);
unicode = 00BF;
},
{
glyphname = quotedbl;
lastChange = "2015-08-07 07:40:10 +0000";
layers = (
{
layerId = "4084567E-8F17-43C6-B459-5B57676AC7A4";
name = Regular;
paths = (
{
closed = 1;
nodes = (
"29 1072 LINE SMOOTH",
"29 1051 OFFCURVE",
"9 1031 OFFCURVE",
"-10 1025 CURVE",
"-18 1022 OFFCURVE",
"-26 1021 OFFCURVE",
"-32 1021 CURVE SMOOTH",
"-46 1021 OFFCURVE",
"-55 1026 OFFCURVE",
"-61 1037 CURVE",
"-62 1041 OFFCURVE",
"-63 1046 OFFCURVE",
"-63 1050 CURVE SMOOTH",
"-63 1068 OFFCURVE",
"-51 1084 OFFCURVE",
"-31 1094 CURVE",
"-23 1095 OFFCURVE",
"-16 1097 OFFCURVE",
"-9 1097 CURVE SMOOTH",
"0 1097 OFFCURVE",
"8 1095 OFFCURVE",
"15 1091 CURVE",
"15 1274 LINE",
"29 1274 LINE"
);
},
{
closed = 1;
nodes = (
"398 1221 OFFCURVE",
"414 1186 OFFCURVE",
"414 1138 CURVE SMOOTH",
"414 1095 OFFCURVE",
"401 1055 OFFCURVE",
"364 1055 CURVE SMOOTH",
"345 1055 OFFCURVE",
"332 1066 OFFCURVE",
"324 1087 CURVE",
"318 1100 OFFCURVE",
"315 1112 OFFCURVE",
"315 1126 CURVE",
"314 1181 OFFCURVE",
"329 1213 OFFCURVE",
"356 1219 CURVE",
"360 1219 OFFCURVE",
"361 1220 OFFCURVE",
"365 1220 CURVE SMOOTH"
);
},
{
closed = 1;
nodes = (
"534 1221 OFFCURVE",
"550 1186 OFFCURVE",
"550 1138 CURVE SMOOTH",
"550 1095 OFFCURVE",
"537 1055 OFFCURVE",
"500 1055 CURVE SMOOTH",
"481 1055 OFFCURVE",
"468 1066 OFFCURVE",
"460 1087 CURVE",
"454 1100 OFFCURVE",
"451 1112 OFFCURVE",
"451 1126 CURVE",
"450 1181 OFFCURVE",
"465 1213 OFFCURVE",
"492 1219 CURVE",
"496 1219 OFFCURVE",
"497 1220 OFFCURVE",
"501 1220 CURVE SMOOTH"
);
},
{
closed = 1;
nodes = (
"274 1068 LINE",
"277 1066 OFFCURVE",
"277 1065 OFFCURVE",
"277 1063 CURVE SMOOTH",
"277 1061 OFFCURVE",
"277 1059 OFFCURVE",
"274 1058 CURVE",
"219 1058 LINE",
"217 1059 OFFCURVE",
"216 1061 OFFCURVE",
"216 1063 CURVE SMOOTH",
"216 1065 OFFCURVE",
"217 1068 OFFCURVE",
"219 1068 CURVE SMOOTH",
"237 1068 LINE",
"237 1183 LINE SMOOTH",
"237 1188 OFFCURVE",
"235 1192 OFFCURVE",
"231 1194 CURVE",
"212 1194 LINE SMOOTH",
"211 1194 OFFCURVE",
"211 1196 OFFCURVE",
"211 1199 CURVE SMOOTH",
"211 1200 OFFCURVE",
"211 1202 OFFCURVE",
"212 1202 CURVE",
"229 1207 LINE SMOOTH",
"236 1209 OFFCURVE",
"243 1213 OFFCURVE",
"250 1217 CURVE",
"254 1218 LINE",
"256 1218 OFFCURVE",
"257 1217 OFFCURVE",
"258 1215 CURVE",
"258 1068 LINE"
);
},
{
closed = 1;
nodes = (
"397 1087 OFFCURVE",
"398 1103 OFFCURVE",
"398 1138 CURVE SMOOTH",
"398 1173 OFFCURVE",
"391 1205 OFFCURVE",
"365 1205 CURVE SMOOTH",
"341 1205 OFFCURVE",
"333 1173 OFFCURVE",
"333 1136 CURVE SMOOTH",
"333 1098 OFFCURVE",
"344 1072 OFFCURVE",
"365 1072 CURVE SMOOTH",
"368 1072 OFFCURVE",
"372 1073 OFFCURVE",
"375 1074 CURVE"
);
},
{
closed = 1;
nodes = (
"533 1087 OFFCURVE",
"534 1103 OFFCURVE",
"534 1138 CURVE SMOOTH",
"534 1173 OFFCURVE",
"527 1205 OFFCURVE",
"501 1205 CURVE SMOOTH",
"477 1205 OFFCURVE",
"469 1173 OFFCURVE",
"469 1136 CURVE SMOOTH",
"469 1098 OFFCURVE",
"480 1072 OFFCURVE",
"501 1072 CURVE SMOOTH",
"504 1072 OFFCURVE",
"508 1073 OFFCURVE",
"511 1074 CURVE"
);
},
{
closed = 1;
nodes = (
"66 1160 LINE",
"173 1160 LINE",
"173 1147 LINE",
"66 1147 LINE"
);
},
{
closed = 1;
nodes = (
"66 1110 LINE",
"173 1110 LINE",
"173 1097 LINE",
"66 1097 LINE"
);
}
);
width = 0;
}
);
unicode = 0022;
},
{
glyphname = quotesingle;
lastChange = "2015-08-07 07:40:10 +0000";
layers = (
{
layerId = "4084567E-8F17-43C6-B459-5B57676AC7A4";
name = Regular;
paths = (
{
closed = 1;
nodes = (
"29 1072 LINE SMOOTH",
"29 1051 OFFCURVE",
"9 1031 OFFCURVE",
"-10 1025 CURVE",
"-18 1022 OFFCURVE",
"-26 1021 OFFCURVE",
"-32 1021 CURVE SMOOTH",
"-46 1021 OFFCURVE",
"-55 1026 OFFCURVE",
"-61 1037 CURVE",
"-62 1041 OFFCURVE",
"-63 1046 OFFCURVE",
"-63 1050 CURVE SMOOTH",
"-63 1068 OFFCURVE",
"-51 1084 OFFCURVE",
"-31 1094 CURVE",
"-23 1095 OFFCURVE",
"-16 1097 OFFCURVE",
"-9 1097 CURVE SMOOTH",
"0 1097 OFFCURVE",
"8 1095 OFFCURVE",
"15 1091 CURVE",
"15 1274 LINE",
"29 1274 LINE"
);
},
{
closed = 1;
nodes = (
"534 1221 OFFCURVE",
"550 1186 OFFCURVE",
"550 1138 CURVE SMOOTH",
"550 1095 OFFCURVE",
"537 1055 OFFCURVE",
"500 1055 CURVE SMOOTH",
"481 1055 OFFCURVE",
"468 1066 OFFCURVE",
"460 1087 CURVE",
"454 1100 OFFCURVE",
"451 1112 OFFCURVE",
"451 1126 CURVE",
"450 1181 OFFCURVE",
"465 1213 OFFCURVE",
"492 1219 CURVE",
"496 1219 OFFCURVE",
"497 1220 OFFCURVE",
"501 1220 CURVE SMOOTH"
);
},
{
closed = 1;
nodes = (
"274 1068 LINE",
"277 1066 OFFCURVE",
"277 1065 OFFCURVE",
"277 1063 CURVE SMOOTH",
"277 1061 OFFCURVE",
"277 1059 OFFCURVE",
"274 1058 CURVE",
"219 1058 LINE",
"217 1059 OFFCURVE",
"216 1061 OFFCURVE",
"216 1063 CURVE SMOOTH",
"216 1065 OFFCURVE",
"217 1068 OFFCURVE",
"219 1068 CURVE SMOOTH",
"237 1068 LINE",
"237 1183 LINE SMOOTH",
"237 1188 OFFCURVE",
"235 1192 OFFCURVE",
"231 1194 CURVE",
"212 1194 LINE SMOOTH",
"211 1194 OFFCURVE",
"211 1196 OFFCURVE",
"211 1199 CURVE SMOOTH",
"211 1200 OFFCURVE",
"211 1202 OFFCURVE",
"212 1202 CURVE",
"229 1207 LINE SMOOTH",
"236 1209 OFFCURVE",
"243 1213 OFFCURVE",
"250 1217 CURVE",
"254 1218 LINE",
"256 1218 OFFCURVE",
"257 1217 OFFCURVE",
"258 1215 CURVE",
"258 1068 LINE"
);
},
{
closed = 1;
nodes = (
"418 1086 OFFCURVE",
"423 1089 OFFCURVE",
"426 1089 CURVE SMOOTH",
"427 1089 OFFCURVE",
"428 1088 OFFCURVE",
"430 1087 CURVE",
"430 1084 OFFCURVE",
"430 1084 OFFCURVE",
"428 1080 CURVE",
"418 1058 LINE",
"313 1058 LINE",
"311 1064 LINE",
"312 1068 OFFCURVE",
"316 1075 OFFCURVE",
"321 1084 CURVE",
"339 1104 OFFCURVE",
"359 1124 OFFCURVE",
"384 1146 CURVE SMOOTH",
"396 1157 OFFCURVE",
"402 1169 OFFCURVE",
"402 1181 CURVE SMOOTH",
"402 1195 OFFCURVE",
"389 1207 OFFCURVE",
"370 1207 CURVE SMOOTH",
"356 1207 OFFCURVE",
"346 1202 OFFCURVE",
"339 1192 CURVE",
"338 1188 OFFCURVE",
"336 1186 OFFCURVE",
"336 1183 CURVE SMOOTH",
"336 1178 OFFCURVE",
"339 1173 OFFCURVE",
"342 1169 CURVE",
"342 1166 OFFCURVE",
"342 1164 OFFCURVE",
"340 1162 CURVE",
"338 1162 OFFCURVE",
"335 1160 OFFCURVE",
"333 1160 CURVE SMOOTH",
"324 1160 OFFCURVE",
"319 1163 OFFCURVE",
"318 1171 CURVE",
"317 1173 OFFCURVE",
"317 1174 OFFCURVE",
"317 1177 CURVE SMOOTH",
"317 1200 OFFCURVE",
"347 1218 OFFCURVE",
"374 1218 CURVE SMOOTH",
"400 1218 OFFCURVE",
"426 1202 OFFCURVE",
"426 1180 CURVE SMOOTH",
"426 1164 OFFCURVE",
"415 1148 OFFCURVE",
"400 1136 CURVE SMOOTH",
"370 1113 OFFCURVE",
"349 1094 OFFCURVE",
"336 1077 CURVE",
"336 1075 LINE",
"402 1075 LINE",
"405 1076 OFFCURVE",
"409 1077 OFFCURVE",
"412 1080 CURVE SMOOTH"
);
},
{
closed = 1;
nodes = (
"533 1087 OFFCURVE",
"534 1103 OFFCURVE",
"534 1138 CURVE SMOOTH",
"534 1173 OFFCURVE",
"527 1205 OFFCURVE",
"501 1205 CURVE SMOOTH",
"477 1205 OFFCURVE",
"469 1173 OFFCURVE",
"469 1136 CURVE SMOOTH",
"469 1098 OFFCURVE",
"480 1072 OFFCURVE",
"501 1072 CURVE SMOOTH",
"504 1072 OFFCURVE",
"508 1073 OFFCURVE",
"511 1074 CURVE"
);
},
{
closed = 1;
nodes = (
"66 1160 LINE",
"173 1160 LINE",
"173 1147 LINE",
"66 1147 LINE"
);
},
{
closed = 1;
nodes = (
"66 1110 LINE",
"173 1110 LINE",
"173 1097 LINE",
"66 1097 LINE"
);
}
);
width = 0;
}
);
unicode = 0027;
},
{
glyphname = semicolon;
lastChange = "2015-08-07 07:40:10 +0000";
layers = (
{
layerId = "4084567E-8F17-43C6-B459-5B57676AC7A4";
name = Regular;
paths = (
{
closed = 1;
nodes = (
"229 -288 LINE",
"229 -295 LINE",
"193 -295 LINE",
"190 -311 LINE",
"171 -380 OFFCURVE",
"155 -419 OFFCURVE",
"115 -441 CURVE",
"100 -450 OFFCURVE",
"73 -450 OFFCURVE",
"66 -436 CURVE",
"63 -431 OFFCURVE",
"61 -427 OFFCURVE",
"61 -422 CURVE SMOOTH",
"61 -409 OFFCURVE",
"74 -399 OFFCURVE",
"85 -400 CURVE SMOOTH",
"95 -401 OFFCURVE",
"100 -406 OFFCURVE",
"100 -415 CURVE SMOOTH",
"100 -424 OFFCURVE",
"97 -430 OFFCURVE",
"88 -433 CURVE",
"81 -433 OFFCURVE",
"85 -442 OFFCURVE",
"93 -440 CURVE",
"98 -440 OFFCURVE",
"104 -435 OFFCURVE",
"111 -425 CURVE SMOOTH",
"128 -400 OFFCURVE",
"138 -364 OFFCURVE",
"150 -318 CURVE",
"152 -308 OFFCURVE",
"155 -300 OFFCURVE",
"155 -295 CURVE",
"129 -295 LINE",
"129 -288 LINE",
"156 -288 LINE",
"156 -285 OFFCURVE",
"158 -279 OFFCURVE",
"161 -271 CURVE",
"171 -247 OFFCURVE",
"188 -225 OFFCURVE",
"218 -217 CURVE",
"245 -211 OFFCURVE",
"270 -220 OFFCURVE",
"270 -243 CURVE SMOOTH",
"270 -256 OFFCURVE",
"263 -263 OFFCURVE",
"254 -263 CURVE SMOOTH",
"245 -263 OFFCURVE",
"240 -257 OFFCURVE",
"240 -249 CURVE SMOOTH",
"240 -241 OFFCURVE",
"245 -235 OFFCURVE",
"254 -234 CURVE",
"259 -234 OFFCURVE",
"260 -232 OFFCURVE",
"261 -232 CURVE",
"262 -227 OFFCURVE",
"258 -223 OFFCURVE",
"248 -223 CURVE SMOOTH",
"216 -223 OFFCURVE",
"200 -253 OFFCURVE",
"196 -288 CURVE"
);
}
);
width = 0;
}
);
unicode = 003B;
},
{
glyphname = slash;
lastChange = "2015-08-07 07:40:10 +0000";
layers = (
{
layerId = "4084567E-8F17-43C6-B459-5B57676AC7A4";
name = Regular;
paths = (
{
closed = 1;
nodes = (
"856 -269 LINE",
"856 -248 LINE",
"10 -317 LINE",
"10 -325 LINE",
"856 -376 LINE",
"856 -356 LINE",
"21 -321 LINE"
);
}
);
width = 0;
}
);
unicode = 002F;
},
{
glyphname = underscore;
lastChange = "2015-08-07 07:40:10 +0000";
layers = (
{
layerId = "4084567E-8F17-43C6-B459-5B57676AC7A4";
name = Regular;
paths = (
{
closed = 1;
nodes = (
"157 500 OFFCURVE",
"182 524 OFFCURVE",
"190 546 CURVE",
"270 546 LINE",
"270 551 LINE",
"192 551 LINE",
"195 561 OFFCURVE",
"194 571 OFFCURVE",
"191 579 CURVE SMOOTH",
"181 608 OFFCURVE",
"150 611 OFFCURVE",
"127 611 CURVE SMOOTH",
"80 610 OFFCURVE",
"36 584 OFFCURVE",
"27 551 CURVE",
"0 551 LINE",
"0 546 LINE",
"26 546 LINE",
"26 427 LINE",
"0 427 LINE",
"0 422 LINE",
"26 422 LINE",
"27 303 LINE",
"0 303 LINE",
"0 298 LINE",
"27 298 LINE",
"27 178 LINE",
"0 178 LINE",
"0 173 LINE",
"27 173 LINE",
"27 114 LINE",
"46 114 LINE",
"46 125 LINE",
"49 145 OFFCURVE",
"66 160 OFFCURVE",
"79 173 CURVE",
"270 173 LINE",
"270 178 LINE",
"83 178 LINE",
"111 213 OFFCURVE",
"129 254 OFFCURVE",
"135 298 CURVE",
"270 298 LINE",
"270 303 LINE",
"136 303 LINE",
"140 341 OFFCURVE",
"134 382 OFFCURVE",
"116 422 CURVE",
"270 422 LINE",
"270 427 LINE",
"113 427 LINE",
"110 433 OFFCURVE",
"107 440 OFFCURVE",
"103 446 CURVE",
"90 446 LINE",
"93 440 OFFCURVE",
"95 433 OFFCURVE",
"97 427 CURVE",
"46 427 LINE",
"46 499 LINE",
"51 492 OFFCURVE",
"79 483 OFFCURVE",
"109 490 CURVE SMOOTH"
);
},
{
closed = 1;
nodes = (
"112 381 OFFCURVE",
"116 338 OFFCURVE",
"107 303 CURVE",
"46 303 LINE",
"46 422 LINE",
"99 422 LINE"
);
},
{
closed = 1;
nodes = (
"46 298 LINE",
"105 298 LINE",
"97 267 OFFCURVE",
"77 243 OFFCURVE",
"46 233 CURVE"
);
},
{
closed = 1;
nodes = (
"270 49 LINE",
"270 54 LINE",
"0 54 LINE",
"0 49 LINE"
);
}
);
width = 270;
}
);
unicode = 005F;
},
{
glyphname = braceleft;
lastChange = "2015-08-07 07:40:10 +0000";
layers = (
{
layerId = "4084567E-8F17-43C6-B459-5B57676AC7A4";
name = Regular;
paths = (
{
closed = 1;
nodes = (
"110 625 LINE",
"87 619 LINE",
"87 677 LINE",
"74 674 LINE",
"74 616 LINE",
"39 607 LINE",
"39 664 LINE",
"24 660 LINE",
"24 603 LINE",
"0 597 LINE",
"0 565 LINE",
"24 571 LINE",
"24 551 LINE",
"0 551 LINE",
"0 546 LINE",
"24 546 LINE",
"24 513 LINE",
"0 507 LINE",
"0 475 LINE",
"24 481 LINE",
"24 427 LINE",
"39 431 LINE",
"39 485 LINE",
"74 494 LINE",
"74 441 LINE",
"87 445 LINE",
"87 498 LINE",
"110 504 LINE",
"110 535 LINE",
"87 529 LINE",
"87 546 LINE",
"110 546 LINE",
"110 551 LINE",
"87 551 LINE",
"87 587 LINE",
"110 593 LINE"
);
},
{
closed = 1;
nodes = (
"38 574 LINE",
"74 583 LINE",
"74 551 LINE",
"38 551 LINE"
);
},
{
closed = 1;
nodes = (
"38 516 LINE",
"38 546 LINE",
"74 546 LINE",
"74 525 LINE"
);
},
{
closed = 1;
nodes = (
"110 422 LINE",
"110 427 LINE",
"0 427 LINE",
"0 422 LINE"
);
},
{
closed = 1;
nodes = (
"110 298 LINE",
"110 303 LINE",
"0 303 LINE",
"0 298 LINE"
);
},
{
closed = 1;
nodes = (
"110 173 LINE",
"110 178 LINE",
"0 178 LINE",
"0 173 LINE"
);
},
{
closed = 1;
nodes = (
"110 49 LINE",
"110 54 LINE",
"0 54 LINE",
"0 49 LINE"
);
}
);
width = 110;
}
);
unicode = 007B;
},
{
glyphname = braceright;
lastChange = "2015-08-07 07:40:10 +0000";
layers = (
{
layerId = "4084567E-8F17-43C6-B459-5B57676AC7A4";
name = Regular;
paths = (
{
closed = 1;
nodes = (
"110 683 LINE",
"87 677 LINE",
"87 735 LINE",
"74 732 LINE",
"74 674 LINE",
"39 665 LINE",
"39 722 LINE",
"24 718 LINE",
"24 661 LINE",
"0 655 LINE",
"0 623 LINE",
"24 629 LINE",
"24 571 LINE",
"0 565 LINE",
"0 533 LINE",
"24 539 LINE",
"24 485 LINE",
"39 489 LINE",
"39 543 LINE",
"51 546 LINE",
"74 546 LINE",
"74 499 LINE",
"87 503 LINE",
"87 546 LINE",
"110 546 LINE",
"110 551 LINE",
"87 551 LINE",
"87 556 LINE",
"110 562 LINE",
"110 593 LINE",
"87 587 LINE",
"87 645 LINE",
"110 651 LINE"
);
},
{
closed = 1;
nodes = (
"74 641 LINE",
"74 583 LINE",
"38 574 LINE",
"38 632 LINE"
);
},
{
closed = 1;
nodes = (
"110 422 LINE",
"110 427 LINE",
"0 427 LINE",
"0 422 LINE"
);
},
{
closed = 1;
nodes = (
"110 298 LINE",
"110 303 LINE",
"0 303 LINE",
"0 298 LINE"
);
},
{
closed = 1;
nodes = (
"110 173 LINE",
"110 178 LINE",
"0 178 LINE",
"0 173 LINE"
);
},
{
closed = 1;
nodes = (
"110 49 LINE",
"110 54 LINE",
"0 54 LINE",
"0 49 LINE"
);
}
);
width = 110;
}
);
unicode = 007D;
},
{
glyphname = bracketleft;
lastChange = "2015-08-07 07:40:10 +0000";
layers = (
{
layerId = "4084567E-8F17-43C6-B459-5B57676AC7A4";
name = Regular;
paths = (
{
closed = 1;
nodes = (
"108 556 OFFCURVE",
"109 562 OFFCURVE",
"109 568 CURVE SMOOTH",
"109 591 OFFCURVE",
"93 601 OFFCURVE",
"74 601 CURVE SMOOTH",
"59 601 OFFCURVE",
"47 596 OFFCURVE",
"36 586 CURVE",
"36 727 LINE",
"21 727 LINE",
"21 551 LINE",
"0 551 LINE",
"0 546 LINE",
"21 546 LINE",
"21 468 LINE",
"29 478 OFFCURVE",
"40 487 OFFCURVE",
"57 502 CURVE SMOOTH",
"80 521 OFFCURVE",
"95 533 OFFCURVE",
"103 546 CURVE",
"110 546 LINE",
"110 551 LINE",
"105 551 LINE"
);
},
{
closed = 1;
nodes = (
"47 581 OFFCURVE",
"55 584 OFFCURVE",
"66 584 CURVE SMOOTH",
"77 584 OFFCURVE",
"88 576 OFFCURVE",
"88 563 CURVE SMOOTH",
"88 559 OFFCURVE",
"87 555 OFFCURVE",
"84 551 CURVE",
"36 551 LINE",
"36 569 LINE"
);
},
{
closed = 1;
nodes = (
"36 546 LINE",
"81 546 LINE",
"71 530 OFFCURVE",
"50 511 OFFCURVE",
"36 500 CURVE"
);
},
{
closed = 1;
nodes = (
"110 422 LINE",
"110 427 LINE",
"0 427 LINE",
"0 422 LINE"
);
},
{
closed = 1;
nodes = (
"110 298 LINE",
"110 303 LINE",
"0 303 LINE",
"0 298 LINE"
);
},
{
closed = 1;
nodes = (
"110 173 LINE",
"110 178 LINE",
"0 178 LINE",
"0 173 LINE"
);
},
{
closed = 1;
nodes = (
"110 49 LINE",
"110 54 LINE",
"0 54 LINE",
"0 49 LINE"
);
}
);
width = 110;
}
);
unicode = 005B;
},
{
glyphname = bracketright;
lastChange = "2015-08-07 07:40:10 +0000";
layers = (
{
layerId = "4084567E-8F17-43C6-B459-5B57676AC7A4";
name = Regular;
paths = (
{
closed = 1;
nodes = (
"57 571 LINE",
"93 600 OFFCURVE",
"109 614 OFFCURVE",
"109 637 CURVE SMOOTH",
"109 660 OFFCURVE",
"93 670 OFFCURVE",
"74 670 CURVE SMOOTH",
"59 670 OFFCURVE",
"47 665 OFFCURVE",
"36 655 CURVE",
"36 796 LINE",
"21 796 LINE",
"21 551 LINE",
"0 551 LINE",
"0 546 LINE",
"21 546 LINE",
"21 537 LINE",
"23 540 OFFCURVE",
"26 543 OFFCURVE",
"29 546 CURVE",
"110 546 LINE",
"110 551 LINE",
"34 551 LINE"
);
},
{
closed = 1;
nodes = (
"47 650 OFFCURVE",
"55 653 OFFCURVE",
"66 653 CURVE SMOOTH",
"77 653 OFFCURVE",
"88 645 OFFCURVE",
"88 632 CURVE SMOOTH",
"88 614 OFFCURVE",
"55 584 OFFCURVE",
"36 569 CURVE",
"36 638 LINE"
);
},
{
closed = 1;
nodes = (
"110 422 LINE",
"110 427 LINE",
"0 427 LINE",
"0 422 LINE"
);
},
{
closed = 1;
nodes = (
"110 298 LINE",
"110 303 LINE",
"0 303 LINE",
"0 298 LINE"
);
},
{
closed = 1;
nodes = (
"110 173 LINE",
"110 178 LINE",
"0 178 LINE",
"0 173 LINE"
);
},
{
closed = 1;
nodes = (
"110 49 LINE",
"110 54 LINE",
"0 54 LINE",
"0 49 LINE"
);
}
);
width = 110;
}
);
unicode = 005D;
},
{
glyphname = parenleft;
lastChange = "2015-08-07 07:40:10 +0000";
layers = (
{
layerId = "4084567E-8F17-43C6-B459-5B57676AC7A4";
name = Regular;
paths = (
{
closed = 1;
nodes = (
"0 546 LINE",
"270 546 LINE",
"270 551 LINE",
"0 551 LINE"
);
},
{
closed = 1;
nodes = (
"178 484 OFFCURVE",
"147 487 OFFCURVE",
"124 487 CURVE SMOOTH",
"77 486 OFFCURVE",
"33 460 OFFCURVE",
"24 427 CURVE",
"0 427 LINE",
"0 422 LINE",
"23 422 LINE",
"23 303 LINE",
"0 303 LINE",
"0 298 LINE",
"23 298 LINE",
"24 178 LINE",
"0 178 LINE",
"0 173 LINE",
"24 173 LINE",
"24 54 LINE",
"0 54 LINE",
"0 49 LINE",
"24 49 LINE",
"24 -10 LINE",
"43 -10 LINE",
"43 1 LINE",
"46 21 OFFCURVE",
"63 36 OFFCURVE",
"76 49 CURVE",
"270 49 LINE",
"270 54 LINE",
"80 54 LINE",
"107 89 OFFCURVE",
"126 129 OFFCURVE",
"132 173 CURVE",
"270 173 LINE",
"270 178 LINE",
"133 178 LINE",
"137 217 OFFCURVE",
"131 257 OFFCURVE",
"113 298 CURVE",
"270 298 LINE",
"270 303 LINE",
"110 303 LINE",
"107 309 OFFCURVE",
"104 316 OFFCURVE",
"100 322 CURVE",
"87 322 LINE",
"90 316 OFFCURVE",
"92 309 OFFCURVE",
"94 303 CURVE",
"43 303 LINE",
"43 375 LINE",
"48 368 OFFCURVE",
"76 359 OFFCURVE",
"106 366 CURVE SMOOTH",
"154 376 OFFCURVE",
"179 400 OFFCURVE",
"187 422 CURVE",
"270 422 LINE",
"270 427 LINE",
"189 427 LINE",
"192 437 OFFCURVE",
"191 447 OFFCURVE",
"188 455 CURVE SMOOTH"
);
},
{
closed = 1;
nodes = (
"109 256 OFFCURVE",
"113 213 OFFCURVE",
"104 178 CURVE",
"43 178 LINE",
"43 298 LINE",
"96 298 LINE"
);
},
{
closed = 1;
nodes = (
"43 173 LINE",
"102 173 LINE",
"93 143 OFFCURVE",
"74 119 OFFCURVE",
"43 109 CURVE"
);
}
);
width = 270;
}
);
unicode = 0028;
},
{
glyphname = parenright;
lastChange = "2015-08-07 07:40:10 +0000";
layers = (
{
layerId = "4084567E-8F17-43C6-B459-5B57676AC7A4";
name = Regular;
paths = (
{
closed = 1;
nodes = (
"0 551 LINE",
"0 546 LINE",
"108 546 LINE",
"68 539 OFFCURVE",
"33 514 OFFCURVE",
"28 484 CURVE",
"28 427 LINE",
"0 427 LINE",
"0 422 LINE",
"28 422 LINE",
"28 303 LINE",
"0 303 LINE",
"0 298 LINE",
"28 298 LINE",
"29 178 LINE",
"0 178 LINE",
"0 173 LINE",
"29 173 LINE",
"29 54 LINE",
"0 54 LINE",
"0 49 LINE",
"270 49 LINE",
"270 54 LINE",
"48 54 LINE",
"48 62 LINE",
"51 84 OFFCURVE",
"73 100 OFFCURVE",
"85 115 CURVE SMOOTH",
"99 133 OFFCURVE",
"111 152 OFFCURVE",
"120 173 CURVE",
"270 173 LINE",
"270 178 LINE",
"122 178 LINE",
"137 215 OFFCURVE",
"143 256 OFFCURVE",
"136 298 CURVE",
"270 298 LINE",
"270 303 LINE",
"135 303 LINE",
"131 329 OFFCURVE",
"121 356 OFFCURVE",
"105 383 CURVE",
"92 383 LINE",
"103 357 OFFCURVE",
"110 329 OFFCURVE",
"113 303 CURVE",
"48 303 LINE",
"48 422 LINE",
"270 422 LINE",
"270 427 LINE",
"111 427 LINE",
"186 443 OFFCURVE",
"203 491 OFFCURVE",
"193 516 CURVE SMOOTH",
"186 535 OFFCURVE",
"171 543 OFFCURVE",
"154 546 CURVE",
"270 546 LINE",
"270 551 LINE"
);
},
{
closed = 1;
nodes = (
"48 436 LINE",
"50 433 OFFCURVE",
"57 429 OFFCURVE",
"67 427 CURVE",
"48 427 LINE"
);
},
{
closed = 1;
nodes = (
"117 247 OFFCURVE",
"103 200 OFFCURVE",
"66 178 CURVE",
"48 178 LINE",
"48 298 LINE",
"113 298 LINE"
);
},
{
closed = 1;
nodes = (
"48 173 LINE",
"56 173 LINE",
"48 170 LINE"
);
}
);
width = 270;
}
);
unicode = 0029;
},
{
glyphname = emdash;
lastChange = "2015-08-07 07:40:10 +0000";
layers = (
{
layerId = "4084567E-8F17-43C6-B459-5B57676AC7A4";
name = Regular;
paths = (
{
closed = 1;
nodes = (
"212 555 LINE",
"207 585 OFFCURVE",
"170 614 OFFCURVE",
"122 610 CURVE SMOOTH",
"59 605 OFFCURVE",
"37 576 OFFCURVE",
"34 551 CURVE",
"0 551 LINE",
"0 546 LINE",
"34 546 LINE",
"34 538 LINE",
"37 510 OFFCURVE",
"70 485 OFFCURVE",
"120 485 CURVE SMOOTH",
"179 485 OFFCURVE",
"210 514 OFFCURVE",
"212 546 CURVE",
"270 546 LINE",
"270 551 LINE",
"212 551 LINE"
);
},
{
closed = 1;
nodes = (
"134 606 OFFCURVE",
"153 580 OFFCURVE",
"158 551 CURVE",
"89 551 LINE",
"88 571 OFFCURVE",
"94 590 OFFCURVE",
"110 597 CURVE"
);
},
{
closed = 1;
nodes = (
"112 489 OFFCURVE",
"94 517 OFFCURVE",
"90 546 CURVE",
"159 546 LINE",
"162 524 OFFCURVE",
"156 501 OFFCURVE",
"137 495 CURVE"
);
},
{
closed = 1;
nodes = (
"270 422 LINE",
"270 427 LINE",
"0 427 LINE",
"0 422 LINE"
);
},
{
closed = 1;
nodes = (
"270 298 LINE",
"270 303 LINE",
"0 303 LINE",
"0 298 LINE"
);
},
{
closed = 1;
nodes = (
"270 173 LINE",
"270 178 LINE",
"0 178 LINE",
"0 173 LINE"
);
},
{
closed = 1;
nodes = (
"270 49 LINE",
"270 54 LINE",
"0 54 LINE",
"0 49 LINE"
);
}
);
width = 270;
}
);
unicode = 2014;
},
{
glyphname = endash;
lastChange = "2015-08-07 07:40:10 +0000";
layers = (
{
layerId = "4084567E-8F17-43C6-B459-5B57676AC7A4";
name = Regular;
paths = (
{
closed = 1;
nodes = (
"160 500 OFFCURVE",
"185 524 OFFCURVE",
"193 546 CURVE",
"270 546 LINE",
"270 551 LINE",
"195 551 LINE",
"198 561 OFFCURVE",
"197 571 OFFCURVE",
"194 579 CURVE SMOOTH",
"184 608 OFFCURVE",
"153 611 OFFCURVE",
"130 611 CURVE SMOOTH",
"83 610 OFFCURVE",
"39 584 OFFCURVE",
"30 551 CURVE",
"0 551 LINE",
"0 546 LINE",
"29 546 LINE",
"29 427 LINE",
"0 427 LINE",
"0 422 LINE",
"29 422 LINE",
"30 303 LINE",
"0 303 LINE",
"0 298 LINE",
"30 298 LINE",
"30 178 LINE",
"0 178 LINE",
"0 173 LINE",
"30 173 LINE",
"30 114 LINE",
"49 114 LINE",
"49 173 LINE",
"270 173 LINE",
"270 178 LINE",
"49 178 LINE",
"49 298 LINE",
"270 298 LINE",
"270 303 LINE",
"49 303 LINE",
"50 422 LINE",
"270 422 LINE",
"270 427 LINE",
"50 427 LINE",
"50 499 LINE",
"55 492 OFFCURVE",
"82 483 OFFCURVE",
"112 490 CURVE SMOOTH"
);
},
{
closed = 1;
nodes = (
"183 573 OFFCURVE",
"179 562 OFFCURVE",
"169 551 CURVE",
"62 551 LINE",
"95 582 OFFCURVE",
"162 610 OFFCURVE",
"180 582 CURVE"
);
},
{
closed = 1;
nodes = (
"134 515 OFFCURVE",
"70 487 OFFCURVE",
"48 508 CURVE SMOOTH",
"38 518 OFFCURVE",
"44 532 OFFCURVE",
"57 546 CURVE",
"164 546 LINE"
);
},
{
closed = 1;
nodes = (
"270 49 LINE",
"270 54 LINE",
"0 54 LINE",
"0 49 LINE"
);
}
);
width = 270;
}
);
unicode = 2013;
},
{
glyphname = hyphen;
lastChange = "2015-08-07 07:40:10 +0000";
layers = (
{
layerId = "4084567E-8F17-43C6-B459-5B57676AC7A4";
name = Regular;
paths = (
{
closed = 1;
nodes = (
"156 500 OFFCURVE",
"181 524 OFFCURVE",
"189 546 CURVE",
"270 546 LINE",
"270 551 LINE",
"191 551 LINE",
"194 561 OFFCURVE",
"193 571 OFFCURVE",
"190 579 CURVE SMOOTH",
"180 608 OFFCURVE",
"149 611 OFFCURVE",
"126 611 CURVE SMOOTH",
"79 610 OFFCURVE",
"35 584 OFFCURVE",
"26 551 CURVE",
"0 551 LINE",
"0 546 LINE",
"25 546 LINE",
"25 427 LINE",
"0 427 LINE",
"0 422 LINE",
"25 422 LINE",
"26 303 LINE",
"0 303 LINE",
"0 298 LINE",
"26 298 LINE",
"26 178 LINE",
"0 178 LINE",
"0 173 LINE",
"26 173 LINE",
"26 114 LINE",
"45 114 LINE",
"45 173 LINE",
"270 173 LINE",
"270 178 LINE",
"45 178 LINE",
"45 298 LINE",
"270 298 LINE",
"270 303 LINE",
"45 303 LINE",
"46 422 LINE",
"270 422 LINE",
"270 427 LINE",
"46 427 LINE",
"46 499 LINE",
"51 492 OFFCURVE",
"78 483 OFFCURVE",
"108 490 CURVE SMOOTH"
);
},
{
closed = 1;
nodes = (
"270 49 LINE",
"270 54 LINE",
"0 54 LINE",
"0 49 LINE"
);
}
);
width = 270;
}
);
unicode = 002D;
},
{
glyphname = guillemetleft;
lastChange = "2015-08-07 07:40:10 +0000";
layers = (
{
layerId = "4084567E-8F17-43C6-B459-5B57676AC7A4";
name = Regular;
paths = (
{
closed = 1;
nodes = (
"0 546 LINE",
"270 546 LINE",
"270 551 LINE",
"0 551 LINE"
);
},
{
closed = 1;
nodes = (
"270 422 LINE",
"270 427 LINE",
"0 427 LINE",
"0 422 LINE"
);
},
{
closed = 1;
nodes = (
"68 364 LINE",
"68 303 LINE",
"0 303 LINE",
"0 298 LINE",
"270 298 LINE",
"270 303 LINE",
"208 303 LINE",
"208 364 LINE"
);
},
{
closed = 1;
nodes = (
"270 173 LINE",
"270 178 LINE",
"0 178 LINE",
"0 173 LINE"
);
},
{
closed = 1;
nodes = (
"270 49 LINE",
"270 54 LINE",
"0 54 LINE",
"0 49 LINE"
);
}
);
width = 270;
}
);
unicode = 00AB;
},
{
glyphname = guillemetright;
lastChange = "2015-08-07 07:40:10 +0000";
layers = (
{
layerId = "4084567E-8F17-43C6-B459-5B57676AC7A4";
name = Regular;
paths = (
{
closed = 1;
nodes = (
"0 546 LINE",
"270 546 LINE",
"270 551 LINE",
"0 551 LINE"
);
},
{
closed = 1;
nodes = (
"65 422 LINE",
"65 361 LINE",
"205 361 LINE",
"205 422 LINE",
"270 422 LINE",
"270 427 LINE",
"0 427 LINE",
"0 422 LINE"
);
},
{
closed = 1;
nodes = (
"270 298 LINE",
"270 303 LINE",
"0 303 LINE",
"0 298 LINE"
);
},
{
closed = 1;
nodes = (
"270 173 LINE",
"270 178 LINE",
"0 178 LINE",
"0 173 LINE"
);
},
{
closed = 1;
nodes = (
"270 49 LINE",
"270 54 LINE",
"0 54 LINE",
"0 49 LINE"
);
}
);
width = 270;
}
);
unicode = 00BB;
},
{
glyphname = guilsinglleft;
lastChange = "2015-08-07 07:40:10 +0000";
layers = (
{
layerId = "4084567E-8F17-43C6-B459-5B57676AC7A4";
name = Regular;
paths = (
{
closed = 1;
nodes = (
"0 546 LINE",
"270 546 LINE",
"270 551 LINE",
"0 551 LINE"
);
},
{
closed = 1;
nodes = (
"270 422 LINE",
"270 427 LINE",
"0 427 LINE",
"0 422 LINE"
);
},
{
closed = 1;
nodes = (
"270 298 LINE",
"270 303 LINE",
"0 303 LINE",
"0 298 LINE"
);
},
{
closed = 1;
nodes = (
"270 173 LINE",
"270 178 LINE",
"0 178 LINE",
"0 173 LINE"
);
},
{
closed = 1;
nodes = (
"213 89 OFFCURVE",
"176 118 OFFCURVE",
"128 114 CURVE SMOOTH",
"64 109 OFFCURVE",
"43 79 OFFCURVE",
"40 54 CURVE",
"0 54 LINE",
"0 49 LINE",
"40 49 LINE",
"40 42 LINE",
"43 14 OFFCURVE",
"76 -11 OFFCURVE",
"126 -11 CURVE SMOOTH",
"184 -11 OFFCURVE",
"216 18 OFFCURVE",
"218 49 CURVE",
"270 49 LINE",
"270 54 LINE",
"218 54 LINE",
"218 59 LINE"
);
},
{
closed = 1;
nodes = (
"140 110 OFFCURVE",
"159 83 OFFCURVE",
"164 54 CURVE",
"95 54 LINE",
"94 74 OFFCURVE",
"100 93 OFFCURVE",
"116 101 CURVE"
);
},
{
closed = 1;
nodes = (
"119 -7 OFFCURVE",
"100 21 OFFCURVE",
"96 49 CURVE",
"165 49 LINE",
"167 27 OFFCURVE",
"161 5 OFFCURVE",
"143 -1 CURVE"
);
}
);
width = 270;
}
);
unicode = 2039;
},
{
glyphname = guilsinglright;
lastChange = "2015-08-07 07:40:10 +0000";
layers = (
{
layerId = "4084567E-8F17-43C6-B459-5B57676AC7A4";
name = Regular;
paths = (
{
closed = 1;
nodes = (
"0 546 LINE",
"270 546 LINE",
"270 551 LINE",
"0 551 LINE"
);
},
{
closed = 1;
nodes = (
"270 422 LINE",
"270 427 LINE",
"0 427 LINE",
"0 422 LINE"
);
},
{
closed = 1;
nodes = (
"270 298 LINE",
"270 303 LINE",
"0 303 LINE",
"0 298 LINE"
);
},
{
closed = 1;
nodes = (
"106 173 LINE",
"51 162 OFFCURVE",
"37 128 OFFCURVE",
"40 104 CURVE SMOOTH",
"42 82 OFFCURVE",
"64 61 OFFCURVE",
"97 54 CURVE",
"0 54 LINE",
"0 49 LINE",
"270 49 LINE",
"270 54 LINE",
"157 54 LINE",
"200 63 OFFCURVE",
"221 92 OFFCURVE",
"218 121 CURVE",
"214 143 OFFCURVE",
"193 165 OFFCURVE",
"163 173 CURVE",
"270 173 LINE",
"270 178 LINE",
"0 178 LINE",
"0 173 LINE"
);
},
{
closed = 1;
nodes = (
"100 51 OFFCURVE",
"75 144 OFFCURVE",
"116 163 CURVE",
"160 180 OFFCURVE",
"187 76 OFFCURVE",
"143 61 CURVE"
);
}
);
width = 270;
}
);
unicode = 203A;
},
{
glyphname = quotedblbase;
lastChange = "2015-08-07 07:40:10 +0000";
layers = (
{
layerId = "4084567E-8F17-43C6-B459-5B57676AC7A4";
name = Regular;
paths = (
{
closed = 1;
nodes = (
"0 546 LINE",
"50 546 LINE",
"50 551 LINE",
"0 551 LINE"
);
},
{
closed = 1;
nodes = (
"50 422 LINE",
"50 427 LINE",
"0 427 LINE",
"0 422 LINE"
);
},
{
closed = 1;
nodes = (
"50 298 LINE",
"50 303 LINE",
"0 303 LINE",
"0 298 LINE"
);
},
{
closed = 1;
nodes = (
"50 173 LINE",
"50 178 LINE",
"0 178 LINE",
"0 173 LINE"
);
},
{
closed = 1;
nodes = (
"50 49 LINE",
"50 54 LINE",
"0 54 LINE",
"0 49 LINE"
);
},
{
closed = 1;
nodes = (
"11 8 OFFCURVE",
"0 -5 OFFCURVE",
"0 -18 CURVE SMOOTH",
"0 -30 OFFCURVE",
"11 -41 OFFCURVE",
"26 -41 CURVE SMOOTH",
"38 -41 OFFCURVE",
"49 -30 OFFCURVE",
"49 -18 CURVE SMOOTH",
"49 -5 OFFCURVE",
"38 8 OFFCURVE",
"26 8 CURVE SMOOTH"
);
}
);
width = 50;
}
);
unicode = 201E;
},
{
glyphname = quotedblleft;
lastChange = "2015-08-07 07:40:10 +0000";
layers = (
{
layerId = "4084567E-8F17-43C6-B459-5B57676AC7A4";
name = Regular;
paths = (
{
closed = 1;
nodes = (
"110 551 LINE",
"101 551 LINE",
"101 630 LINE",
"23 606 LINE",
"23 694 LINE",
"6 689 LINE",
"6 551 LINE",
"0 551 LINE",
"0 546 LINE",
"6 546 LINE",
"6 465 LINE",
"83 492 LINE",
"83 427 LINE",
"0 427 LINE",
"0 422 LINE",
"83 422 LINE",
"83 401 LINE",
"101 406 LINE",
"101 422 LINE",
"110 422 LINE",
"110 427 LINE",
"101 427 LINE",
"101 546 LINE",
"110 546 LINE"
);
},
{
closed = 1;
nodes = (
"83 596 LINE",
"83 551 LINE",
"23 551 LINE",
"23 572 LINE"
);
},
{
closed = 1;
nodes = (
"23 503 LINE",
"23 546 LINE",
"83 546 LINE",
"83 524 LINE"
);
},
{
closed = 1;
nodes = (
"110 298 LINE",
"110 303 LINE",
"0 303 LINE",
"0 298 LINE"
);
},
{
closed = 1;
nodes = (
"110 173 LINE",
"110 178 LINE",
"0 178 LINE",
"0 173 LINE"
);
},
{
closed = 1;
nodes = (
"110 49 LINE",
"110 54 LINE",
"0 54 LINE",
"0 49 LINE"
);
}
);
width = 110;
}
);
unicode = 201C;
},
{
glyphname = quotedblright;
lastChange = "2015-08-07 07:40:10 +0000";
layers = (
{
layerId = "4084567E-8F17-43C6-B459-5B57676AC7A4";
name = Regular;
paths = (
{
closed = 1;
nodes = (
"37 716 OFFCURVE",
"48 727 OFFCURVE",
"48 739 CURVE SMOOTH",
"48 752 OFFCURVE",
"37 765 OFFCURVE",
"25 765 CURVE SMOOTH",
"10 765 OFFCURVE",
"-1 752 OFFCURVE",
"-1 739 CURVE SMOOTH",
"-1 727 OFFCURVE",
"10 716 OFFCURVE",
"25 716 CURVE SMOOTH"
);
},
{
closed = 1;
nodes = (
"0 546 LINE",
"50 546 LINE",
"50 551 LINE",
"0 551 LINE"
);
},
{
closed = 1;
nodes = (
"50 422 LINE",
"50 427 LINE",
"0 427 LINE",
"0 422 LINE"
);
},
{
closed = 1;
nodes = (
"50 298 LINE",
"50 303 LINE",
"0 303 LINE",
"0 298 LINE"
);
},
{
closed = 1;
nodes = (
"50 173 LINE",
"50 178 LINE",
"0 178 LINE",
"0 173 LINE"
);
},
{
closed = 1;
nodes = (
"50 49 LINE",
"50 54 LINE",
"0 54 LINE",
"0 49 LINE"
);
}
);
width = 50;
}
);
unicode = 201D;
},
{
glyphname = quoteleft;
lastChange = "2015-08-07 07:40:10 +0000";
layers = (
{
layerId = "4084567E-8F17-43C6-B459-5B57676AC7A4";
name = Regular;
paths = (
{
closed = 1;
nodes = (
"101 692 LINE",
"23 668 LINE",
"23 756 LINE",
"6 751 LINE",
"6 551 LINE",
"0 551 LINE",
"0 546 LINE",
"6 546 LINE",
"6 527 LINE",
"60 546 LINE",
"83 546 LINE",
"83 463 LINE",
"101 468 LINE",
"101 546 LINE",
"110 546 LINE",
"110 551 LINE",
"101 551 LINE"
);
},
{
closed = 1;
nodes = (
"83 658 LINE",
"83 586 LINE",
"23 565 LINE",
"23 634 LINE"
);
},
{
closed = 1;
nodes = (
"83 554 LINE",
"83 551 LINE",
"74 551 LINE"
);
},
{
closed = 1;
nodes = (
"110 422 LINE",
"110 427 LINE",
"0 427 LINE",
"0 422 LINE"
);
},
{
closed = 1;
nodes = (
"110 298 LINE",
"110 303 LINE",
"0 303 LINE",
"0 298 LINE"
);
},
{
closed = 1;
nodes = (
"110 173 LINE",
"110 178 LINE",
"0 178 LINE",
"0 173 LINE"
);
},
{
closed = 1;
nodes = (
"110 49 LINE",
"110 54 LINE",
"0 54 LINE",
"0 49 LINE"
);
}
);
width = 110;
}
);
unicode = 2018;
},
{
glyphname = quoteright;
lastChange = "2015-08-07 07:40:10 +0000";
layers = (
{
layerId = "4084567E-8F17-43C6-B459-5B57676AC7A4";
name = Regular;
paths = (
{
closed = 1;
nodes = (
"37 823 OFFCURVE",
"48 834 OFFCURVE",
"48 846 CURVE SMOOTH",
"48 859 OFFCURVE",
"37 872 OFFCURVE",
"25 872 CURVE SMOOTH",
"10 872 OFFCURVE",
"-1 859 OFFCURVE",
"-1 846 CURVE SMOOTH",
"-1 834 OFFCURVE",
"10 823 OFFCURVE",
"25 823 CURVE SMOOTH"
);
},
{
closed = 1;
nodes = (
"0 546 LINE",
"50 546 LINE",
"50 551 LINE",
"0 551 LINE"
);
},
{
closed = 1;
nodes = (
"50 422 LINE",
"50 427 LINE",
"0 427 LINE",
"0 422 LINE"
);
},
{
closed = 1;
nodes = (
"50 298 LINE",
"50 303 LINE",
"0 303 LINE",
"0 298 LINE"
);
},
{
closed = 1;
nodes = (
"50 173 LINE",
"50 178 LINE",
"0 178 LINE",
"0 173 LINE"
);
},
{
closed = 1;
nodes = (
"50 49 LINE",
"50 54 LINE",
"0 54 LINE",
"0 49 LINE"
);
}
);
width = 50;
}
);
unicode = 2019;
},
{
glyphname = quotesinglbase;
lastChange = "2015-08-07 07:40:10 +0000";
layers = (
{
layerId = "4084567E-8F17-43C6-B459-5B57676AC7A4";
name = Regular;
paths = (
{
closed = 1;
nodes = (
"0 551 LINE",
"0 546 LINE",
"107 546 LINE",
"46 536 OFFCURVE",
"32 501 OFFCURVE",
"35 476 CURVE SMOOTH",
"37 455 OFFCURVE",
"57 435 OFFCURVE",
"88 427 CURVE",
"0 427 LINE",
"0 422 LINE",
"270 422 LINE",
"270 427 LINE",
"156 427 LINE",
"196 437 OFFCURVE",
"216 465 OFFCURVE",
"213 493 CURVE",
"209 516 OFFCURVE",
"186 539 OFFCURVE",
"154 546 CURVE",
"270 546 LINE",
"270 551 LINE"
);
},
{
closed = 1;
nodes = (
"95 423 OFFCURVE",
"70 516 OFFCURVE",
"111 535 CURVE",
"155 552 OFFCURVE",
"182 448 OFFCURVE",
"138 433 CURVE"
);
},
{
closed = 1;
nodes = (
"270 298 LINE",
"270 303 LINE",
"0 303 LINE",
"0 298 LINE"
);
},
{
closed = 1;
nodes = (
"270 173 LINE",
"270 178 LINE",
"0 178 LINE",
"0 173 LINE"
);
},
{
closed = 1;
nodes = (
"270 49 LINE",
"270 54 LINE",
"0 54 LINE",
"0 49 LINE"
);
}
);
width = 270;
}
);
unicode = 201A;
},
{
glyphname = space;
lastChange = "2015-08-07 07:40:10 +0000";
layers = (
{
layerId = "4084567E-8F17-43C6-B459-5B57676AC7A4";
name = Regular;
paths = (
{
closed = 1;
nodes = (
"0 546 LINE",
"135 546 LINE",
"135 551 LINE",
"0 551 LINE"
);
},
{
closed = 1;
nodes = (
"135 422 LINE",
"135 427 LINE",
"0 427 LINE",
"0 422 LINE"
);
},
{
closed = 1;
nodes = (
"135 298 LINE",
"135 303 LINE",
"0 303 LINE",
"0 298 LINE"
);
},
{
closed = 1;
nodes = (
"135 173 LINE",
"135 178 LINE",
"0 178 LINE",
"0 173 LINE"
);
},
{
closed = 1;
nodes = (
"135 49 LINE",
"135 54 LINE",
"0 54 LINE",
"0 49 LINE"
);
}
);
width = 135;
}
);
unicode = 0020;
},
{
glyphname = cent;
lastChange = "2015-08-07 07:40:10 +0000";
layers = (
{
layerId = "4084567E-8F17-43C6-B459-5B57676AC7A4";
name = Regular;
paths = (
{
closed = 1;
nodes = (
"270 551 LINE",
"0 551 LINE",
"0 546 LINE",
"192 546 LINE",
"192 427 LINE",
"0 427 LINE",
"0 422 LINE",
"192 422 LINE",
"192 303 LINE",
"0 303 LINE",
"0 298 LINE",
"192 298 LINE",
"192 178 LINE",
"0 178 LINE",
"0 173 LINE",
"130 173 LINE",
"55 157 OFFCURVE",
"36 108 OFFCURVE",
"46 83 CURVE SMOOTH",
"53 65 OFFCURVE",
"69 57 OFFCURVE",
"85 54 CURVE",
"0 54 LINE",
"0 49 LINE",
"270 49 LINE",
"270 54 LINE",
"134 54 LINE",
"173 61 OFFCURVE",
"206 85 OFFCURVE",
"211 114 CURVE",
"211 173 LINE",
"270 173 LINE",
"270 178 LINE",
"211 178 LINE",
"211 298 LINE",
"270 298 LINE",
"270 303 LINE",
"211 303 LINE",
"211 422 LINE",
"270 422 LINE",
"270 427 LINE",
"211 427 LINE",
"211 546 LINE",
"270 546 LINE"
);
},
{
closed = 1;
nodes = (
"189 166 OFFCURVE",
"180 170 OFFCURVE",
"167 173 CURVE",
"192 173 LINE",
"192 162 LINE"
);
},
{
closed = 1;
nodes = (
"47 114 OFFCURVE",
"163 178 OFFCURVE",
"192 149 CURVE SMOOTH",
"224 115 OFFCURVE",
"85 36 OFFCURVE",
"59 78 CURVE"
);
}
);
width = 270;
}
);
unicode = 00A2;
},
{
glyphname = dollar;
lastChange = "2015-08-07 07:40:10 +0000";
layers = (
{
layerId = "4084567E-8F17-43C6-B459-5B57676AC7A4";
name = Regular;
paths = (
{
closed = 1;
nodes = (
"0 551 LINE",
"0 546 LINE",
"192 546 LINE",
"192 427 LINE",
"0 427 LINE",
"0 422 LINE",
"192 422 LINE",
"192 303 LINE",
"0 303 LINE",
"0 298 LINE",
"192 298 LINE",
"192 178 LINE",
"0 178 LINE",
"0 173 LINE",
"130 173 LINE",
"55 157 OFFCURVE",
"36 108 OFFCURVE",
"46 83 CURVE SMOOTH",
"53 65 OFFCURVE",
"69 57 OFFCURVE",
"85 54 CURVE",
"0 54 LINE",
"0 49 LINE",
"304 49 LINE",
"304 54 LINE",
"134 54 LINE",
"173 61 OFFCURVE",
"206 85 OFFCURVE",
"211 114 CURVE",
"211 173 LINE",
"304 173 LINE",
"304 178 LINE",
"211 178 LINE",
"211 298 LINE",
"277 298 LINE",
"274 271 OFFCURVE",
"267 242 OFFCURVE",
"256 215 CURVE",
"269 215 LINE",
"285 243 OFFCURVE",
"295 271 OFFCURVE",
"300 298 CURVE",
"304 298 LINE",
"304 303 LINE",
"301 303 LINE",
"307 345 OFFCURVE",
"301 385 OFFCURVE",
"285 422 CURVE",
"304 422 LINE",
"304 427 LINE",
"283 427 LINE",
"274 447 OFFCURVE",
"263 466 OFFCURVE",
"249 483 CURVE",
"236 500 OFFCURVE",
"216 519 OFFCURVE",
"211 546 CURVE",
"304 546 LINE",
"304 551 LINE"
);
},
{
closed = 1;
nodes = (
"211 303 LINE",
"211 422 LINE",
"225 422 LINE",
"265 401 OFFCURVE",
"280 355 OFFCURVE",
"277 303 CURVE"
);
},
{
closed = 1;
nodes = (
"189 166 OFFCURVE",
"180 170 OFFCURVE",
"167 173 CURVE",
"192 173 LINE",
"192 162 LINE"
);
}
);
width = 304;
}
);
unicode = 0024;
},
{
glyphname = euro;
lastChange = "2015-08-07 07:40:10 +0000";
layers = (
{
layerId = "4084567E-8F17-43C6-B459-5B57676AC7A4";
name = Regular;
paths = (
{
closed = 1;
nodes = (
"0 546 LINE",
"270 546 LINE",
"270 551 LINE",
"0 551 LINE"
);
},
{
closed = 1;
nodes = (
"270 422 LINE",
"270 427 LINE",
"0 427 LINE",
"0 422 LINE"
);
},
{
closed = 1;
nodes = (
"270 298 LINE",
"270 303 LINE",
"0 303 LINE",
"0 298 LINE"
);
},
{
closed = 1;
nodes = (
"270 173 LINE",
"270 178 LINE",
"0 178 LINE",
"0 173 LINE"
);
},
{
closed = 1;
nodes = (
"112 49 LINE",
"51 39 OFFCURVE",
"37 4 OFFCURVE",
"40 -21 CURVE SMOOTH",
"43 -49 OFFCURVE",
"76 -74 OFFCURVE",
"126 -74 CURVE SMOOTH",
"190 -74 OFFCURVE",
"222 -39 OFFCURVE",
"218 -4 CURVE",
"214 19 OFFCURVE",
"191 42 OFFCURVE",
"159 49 CURVE",
"270 49 LINE",
"270 54 LINE",
"0 54 LINE",
"0 49 LINE"
);
},
{
closed = 1;
nodes = (
"100 -74 OFFCURVE",
"75 19 OFFCURVE",
"116 38 CURVE",
"160 55 OFFCURVE",
"187 -49 OFFCURVE",
"143 -64 CURVE"
);
}
);
width = 270;
}
);
unicode = 20AC;
},
{
glyphname = florin;
lastChange = "2015-08-07 07:40:10 +0000";
layers = (
{
layerId = "4084567E-8F17-43C6-B459-5B57676AC7A4";
name = Regular;
paths = (
{
closed = 1;
nodes = (
"270 551 LINE",
"58 551 LINE",
"58 672 LINE",
"256 672 LINE",
"256 677 LINE",
"120 677 LINE",
"195 693 OFFCURVE",
"212 741 OFFCURVE",
"202 766 CURVE",
"192 795 OFFCURVE",
"161 798 OFFCURVE",
"138 798 CURVE SMOOTH",
"89 797 OFFCURVE",
"43 769 OFFCURVE",
"37 734 CURVE",
"37 677 LINE",
"0 677 LINE",
"0 672 LINE",
"37 672 LINE",
"37 551 LINE",
"0 551 LINE",
"0 546 LINE",
"37 546 LINE",
"38 427 LINE",
"0 427 LINE",
"0 422 LINE",
"38 422 LINE",
"38 303 LINE",
"0 303 LINE",
"0 298 LINE",
"270 298 LINE",
"270 303 LINE",
"57 303 LINE",
"57 422 LINE",
"270 422 LINE",
"270 427 LINE",
"57 427 LINE",
"58 546 LINE",
"270 546 LINE"
);
},
{
closed = 1;
nodes = (
"202 736 OFFCURVE",
"88 669 OFFCURVE",
"57 698 CURVE SMOOTH",
"25 730 OFFCURVE",
"162 814 OFFCURVE",
"189 772 CURVE"
);
},
{
closed = 1;
nodes = (
"60 683 OFFCURVE",
"67 679 OFFCURVE",
"76 677 CURVE",
"58 677 LINE",
"58 686 LINE"
);
},
{
closed = 1;
nodes = (
"270 173 LINE",
"270 178 LINE",
"0 178 LINE",
"0 173 LINE"
);
},
{
closed = 1;
nodes = (
"270 49 LINE",
"270 54 LINE",
"0 54 LINE",
"0 49 LINE"
);
}
);
width = 270;
}
);
unicode = 0192;
},
{
glyphname = sterling;
lastChange = "2015-08-07 07:40:10 +0000";
layers = (
{
layerId = "4084567E-8F17-43C6-B459-5B57676AC7A4";
name = Regular;
paths = (
{
closed = 1;
nodes = (
"0 546 LINE",
"270 546 LINE",
"270 551 LINE",
"0 551 LINE"
);
},
{
closed = 1;
nodes = (
"191 485 LINE",
"191 427 LINE",
"0 427 LINE",
"0 422 LINE",
"191 422 LINE",
"191 303 LINE",
"0 303 LINE",
"0 298 LINE",
"191 298 LINE",
"191 178 LINE",
"0 178 LINE",
"0 173 LINE",
"191 173 LINE",
"191 100 LINE",
"186 107 OFFCURVE",
"158 117 OFFCURVE",
"129 111 CURVE SMOOTH",
"81 101 OFFCURVE",
"55 77 OFFCURVE",
"46 54 CURVE",
"0 54 LINE",
"0 49 LINE",
"45 49 LINE",
"42 39 OFFCURVE",
"42 29 OFFCURVE",
"45 21 CURVE SMOOTH",
"56 -7 OFFCURVE",
"87 -10 OFFCURVE",
"110 -10 CURVE SMOOTH",
"158 -10 OFFCURVE",
"201 15 OFFCURVE",
"209 49 CURVE",
"270 49 LINE",
"270 54 LINE",
"210 54 LINE",
"210 173 LINE",
"270 173 LINE",
"270 178 LINE",
"210 178 LINE",
"210 298 LINE",
"270 298 LINE",
"270 303 LINE",
"210 303 LINE",
"210 422 LINE",
"270 422 LINE",
"270 427 LINE",
"210 427 LINE",
"210 485 LINE"
);
},
{
closed = 1;
nodes = (
"108 84 OFFCURVE",
"172 109 OFFCURVE",
"192 89 CURVE SMOOTH",
"201 80 OFFCURVE",
"197 67 OFFCURVE",
"185 54 CURVE",
"76 54 LINE"
);
},
{
closed = 1;
nodes = (
"56 27 OFFCURVE",
"61 38 OFFCURVE",
"71 49 CURVE",
"181 49 LINE",
"148 17 OFFCURVE",
"77 -11 OFFCURVE",
"59 18 CURVE"
);
}
);
width = 270;
}
);
unicode = 00A3;
},
{
glyphname = yen;
lastChange = "2015-08-07 07:40:10 +0000";
layers = (
{
layerId = "4084567E-8F17-43C6-B459-5B57676AC7A4";
name = Regular;
paths = (
{
closed = 1;
nodes = (
"0 546 LINE",
"110 546 LINE",
"110 551 LINE",
"0 551 LINE"
);
},
{
closed = 1;
nodes = (
"110 422 LINE",
"110 427 LINE",
"0 427 LINE",
"0 422 LINE"
);
},
{
closed = 1;
nodes = (
"53 303 LINE",
"24 303 LINE",
"24 382 LINE",
"7 377 LINE",
"7 303 LINE",
"0 303 LINE",
"0 298 LINE",
"7 298 LINE",
"7 178 LINE",
"0 178 LINE",
"0 173 LINE",
"7 173 LINE",
"7 153 LINE",
"64 173 LINE",
"84 173 LINE",
"84 89 LINE",
"102 94 LINE",
"102 173 LINE",
"110 173 LINE",
"110 178 LINE",
"102 178 LINE",
"102 298 LINE",
"110 298 LINE",
"110 303 LINE",
"102 303 LINE",
"102 318 LINE"
);
},
{
closed = 1;
nodes = (
"24 298 LINE",
"37 298 LINE",
"24 294 LINE"
);
},
{
closed = 1;
nodes = (
"84 284 LINE",
"84 212 LINE",
"24 191 LINE",
"24 260 LINE"
);
},
{
closed = 1;
nodes = (
"84 180 LINE",
"84 178 LINE",
"78 178 LINE"
);
},
{
closed = 1;
nodes = (
"110 49 LINE",
"110 54 LINE",
"0 54 LINE",
"0 49 LINE"
);
}
);
width = 110;
}
);
unicode = 00A5;
},
{
glyphname = approxequal;
lastChange = "2015-08-07 07:40:10 +0000";
layers = (
{
layerId = "4084567E-8F17-43C6-B459-5B57676AC7A4";
name = Regular;
paths = (
{
closed = 1;
nodes = (
"110 551 LINE",
"110 546 LINE",
"0 546 LINE",
"0 551 LINE"
);
},
{
closed = 1;
nodes = (
"110 427 LINE",
"110 422 LINE",
"0 422 LINE",
"0 427 LINE"
);
},
{
closed = 1;
nodes = (
"110 303 LINE",
"110 298 LINE",
"0 298 LINE",
"0 303 LINE"
);
},
{
closed = 1;
nodes = (
"110 178 LINE",
"110 173 LINE",
"0 173 LINE",
"0 178 LINE"
);
},
{
closed = 1;
nodes = (
"110 54 LINE",
"110 49 LINE",
"0 49 LINE",
"0 54 LINE"
);
},
{
closed = 1;
nodes = (
"6 -229 LINE",
"6 -5 LINE",
"23 0 LINE",
"23 -88 LINE",
"101 -64 LINE",
"101 -288 LINE",
"83 -293 LINE",
"83 -202 LINE"
);
},
{
closed = 1;
nodes = (
"23 -191 LINE",
"83 -170 LINE",
"83 -98 LINE",
"23 -122 LINE"
);
}
);
width = 110;
}
);
unicode = 2248;
},
{
glyphname = asciitilde;
lastChange = "2015-08-07 07:40:10 +0000";
layers = (
{
layerId = "4084567E-8F17-43C6-B459-5B57676AC7A4";
name = Regular;
paths = (
{
closed = 1;
nodes = (
"0 551 LINE",
"0 546 LINE",
"320 546 LINE",
"320 551 LINE"
);
},
{
closed = 1;
nodes = (
"6 436 OFFCURVE",
"7 431 OFFCURVE",
"8 427 CURVE",
"0 427 LINE",
"0 422 LINE",
"9 422 LINE",
"17 400 OFFCURVE",
"38 385 OFFCURVE",
"63 385 CURVE SMOOTH",
"86 385 OFFCURVE",
"104 403 OFFCURVE",
"109 422 CURVE",
"186 422 LINE",
"186 387 OFFCURVE",
"177 348 OFFCURVE",
"157 309 CURVE SMOOTH",
"154 303 LINE",
"0 303 LINE",
"0 298 LINE",
"151 298 LINE",
"122 246 OFFCURVE",
"97 219 OFFCURVE",
"42 178 CURVE",
"0 178 LINE",
"0 173 LINE",
"36 173 LINE",
"27 166 OFFCURVE",
"17 159 OFFCURVE",
"6 151 CURVE",
"10 139 LINE",
"30 150 OFFCURVE",
"49 162 OFFCURVE",
"67 173 CURVE",
"320 173 LINE",
"320 178 LINE",
"75 178 LINE",
"111 201 OFFCURVE",
"141 224 OFFCURVE",
"166 246 CURVE SMOOTH",
"181 260 OFFCURVE",
"196 278 OFFCURVE",
"208 298 CURVE",
"320 298 LINE",
"320 303 LINE",
"211 303 LINE",
"233 341 OFFCURVE",
"247 386 OFFCURVE",
"246 422 CURVE",
"320 422 LINE",
"320 427 LINE",
"246 427 LINE",
"242 499 OFFCURVE",
"190 546 OFFCURVE",
"121 546 CURVE SMOOTH",
"105 546 OFFCURVE",
"71 535 OFFCURVE",
"56 526 CURVE SMOOTH",
"26 508 OFFCURVE",
"6 474 OFFCURVE",
"6 440 CURVE SMOOTH"
);
},
{
closed = 1;
nodes = (
"180 474 OFFCURVE",
"185 452 OFFCURVE",
"186 427 CURVE",
"110 427 LINE",
"110 431 LINE SMOOTH",
"110 452 OFFCURVE",
"94 477 OFFCURVE",
"66 474 CURVE",
"55 472 OFFCURVE",
"48 471 OFFCURVE",
"47 468 CURVE",
"46 466 OFFCURVE",
"50 462 OFFCURVE",
"44 463 CURVE",
"40 464 OFFCURVE",
"35 474 OFFCURVE",
"35 482 CURVE SMOOTH",
"35 491 OFFCURVE",
"45 504 OFFCURVE",
"49 508 CURVE SMOOTH",
"57 516 OFFCURVE",
"83 530 OFFCURVE",
"106 532 CURVE SMOOTH",
"133 535 OFFCURVE",
"160 518 OFFCURVE",
"170 492 CURVE"
);
},
{
closed = 1;
nodes = (
"267 462 OFFCURVE",
"278 449 OFFCURVE",
"292 449 CURVE SMOOTH",
"306 449 OFFCURVE",
"316 462 OFFCURVE",
"316 476 CURVE SMOOTH",
"316 490 OFFCURVE",
"306 502 OFFCURVE",
"292 502 CURVE SMOOTH",
"278 502 OFFCURVE",
"267 490 OFFCURVE",
"267 476 CURVE SMOOTH"
);
},
{
closed = 1;
nodes = (
"267 376 OFFCURVE",
"278 364 OFFCURVE",
"292 364 CURVE SMOOTH",
"306 364 OFFCURVE",
"316 376 OFFCURVE",
"316 390 CURVE SMOOTH",
"316 403 OFFCURVE",
"306 418 OFFCURVE",
"292 418 CURVE SMOOTH",
"278 418 OFFCURVE",
"267 403 OFFCURVE",
"267 390 CURVE SMOOTH"
);
},
{
closed = 1;
nodes = (
"320 49 LINE",
"320 54 LINE",
"0 54 LINE",
"0 49 LINE"
);
}
);
width = 320;
}
);
unicode = 007E;
},
{
glyphname = divide;
lastChange = "2015-08-07 07:40:10 +0000";
layers = (
{
layerId = "4084567E-8F17-43C6-B459-5B57676AC7A4";
name = Regular;
paths = (
{
closed = 1;
nodes = (
"2276 -312 LINE",
"2276 -287 LINE",
"-24 -369 LINE",
"-24 -379 LINE",
"2276 -439 LINE",
"2276 -416 LINE",
"5 -374 LINE"
);
}
);
width = 0;
}
);
unicode = 00F7;
},
{
glyphname = equal;
lastChange = "2015-08-07 07:40:10 +0000";
layers = (
{
layerId = "4084567E-8F17-43C6-B459-5B57676AC7A4";
name = Regular;
paths = (
{
closed = 1;
nodes = (
"270 551 LINE",
"105 551 LINE",
"180 567 OFFCURVE",
"197 615 OFFCURVE",
"187 640 CURVE",
"177 669 OFFCURVE",
"146 672 OFFCURVE",
"123 672 CURVE SMOOTH",
"74 671 OFFCURVE",
"28 643 OFFCURVE",
"22 608 CURVE",
"22 551 LINE",
"0 551 LINE",
"0 546 LINE",
"22 546 LINE",
"22 427 LINE",
"0 427 LINE",
"0 422 LINE",
"22 422 LINE",
"23 303 LINE",
"0 303 LINE",
"0 298 LINE",
"23 298 LINE",
"23 178 LINE",
"0 178 LINE",
"0 173 LINE",
"270 173 LINE",
"270 178 LINE",
"42 178 LINE",
"42 298 LINE",
"270 298 LINE",
"270 303 LINE",
"42 303 LINE",
"43 422 LINE",
"270 422 LINE",
"270 427 LINE",
"43 427 LINE",
"43 546 LINE",
"270 546 LINE"
);
},
{
closed = 1;
nodes = (
"45 557 OFFCURVE",
"52 553 OFFCURVE",
"61 551 CURVE",
"43 551 LINE",
"43 560 LINE"
);
},
{
closed = 1;
nodes = (
"270 49 LINE",
"270 54 LINE",
"0 54 LINE",
"0 49 LINE"
);
}
);
width = 270;
}
);
unicode = 003D;
},
{
glyphname = greater;
lastChange = "2015-08-07 07:40:10 +0000";
layers = (
{
layerId = "4084567E-8F17-43C6-B459-5B57676AC7A4";
name = Regular;
paths = (
{
closed = 1;
nodes = (
"0 551 LINE",
"0 546 LINE",
"72 546 LINE",
"72 427 LINE",
"0 427 LINE",
"0 422 LINE",
"72 422 LINE",
"72 303 LINE",
"0 303 LINE",
"0 298 LINE",
"72 298 LINE",
"72 178 LINE",
"0 178 LINE",
"0 173 LINE",
"72 173 LINE",
"72 54 LINE",
"0 54 LINE",
"0 49 LINE",
"129 49 LINE",
"129 551 LINE"
);
},
{
closed = 1;
nodes = (
"81 427 LINE",
"81 546 LINE",
"104 546 LINE",
"104 427 LINE"
);
},
{
closed = 1;
nodes = (
"81 303 LINE",
"81 422 LINE",
"104 422 LINE",
"104 303 LINE"
);
},
{
closed = 1;
nodes = (
"58 370 OFFCURVE",
"47 382 OFFCURVE",
"34 382 CURVE SMOOTH",
"21 382 OFFCURVE",
"11 370 OFFCURVE",
"11 358 CURVE SMOOTH",
"11 345 OFFCURVE",
"21 335 OFFCURVE",
"34 335 CURVE SMOOTH",
"47 335 OFFCURVE",
"58 345 OFFCURVE",
"58 358 CURVE SMOOTH"
);
},
{
closed = 1;
nodes = (
"81 178 LINE",
"81 298 LINE",
"104 298 LINE",
"104 178 LINE"
);
},
{
closed = 1;
nodes = (
"58 249 OFFCURVE",
"47 260 OFFCURVE",
"34 260 CURVE SMOOTH",
"21 260 OFFCURVE",
"11 249 OFFCURVE",
"11 236 CURVE SMOOTH",
"11 224 OFFCURVE",
"21 213 OFFCURVE",
"34 213 CURVE SMOOTH",
"47 213 OFFCURVE",
"58 224 OFFCURVE",
"58 236 CURVE SMOOTH"
);
},
{
closed = 1;
nodes = (
"81 54 LINE",
"81 173 LINE",
"104 173 LINE",
"104 54 LINE"
);
}
);
width = 129;
}
);
unicode = 003E;
},
{
glyphname = greaterequal;
lastChange = "2015-08-07 07:40:10 +0000";
layers = (
{
layerId = "4084567E-8F17-43C6-B459-5B57676AC7A4";
name = Regular;
paths = (
{
closed = 1;
nodes = (
"0 551 LINE",
"0 -1151 LINE",
"57 -1151 LINE",
"57 551 LINE"
);
},
{
closed = 1;
nodes = (
"9 427 LINE",
"9 546 LINE",
"32 546 LINE",
"32 427 LINE"
);
},
{
closed = 1;
nodes = (
"9 303 LINE",
"9 422 LINE",
"32 422 LINE",
"32 303 LINE"
);
},
{
closed = 1;
nodes = (
"9 178 LINE",
"9 298 LINE",
"32 298 LINE",
"32 178 LINE"
);
},
{
closed = 1;
nodes = (
"9 54 LINE",
"9 173 LINE",
"32 173 LINE",
"32 54 LINE"
);
},
{
closed = 1;
nodes = (
"9 -649 LINE",
"9 49 LINE",
"32 49 LINE",
"32 -649 LINE"
);
},
{
closed = 1;
nodes = (
"9 -773 LINE",
"9 -654 LINE",
"32 -654 LINE",
"32 -773 LINE"
);
},
{
closed = 1;
nodes = (
"9 -897 LINE",
"9 -778 LINE",
"32 -778 LINE",
"32 -897 LINE"
);
},
{
closed = 1;
nodes = (
"9 -1022 LINE",
"9 -902 LINE",
"32 -902 LINE",
"32 -1022 LINE"
);
},
{
closed = 1;
nodes = (
"9 -1146 LINE",
"9 -1027 LINE",
"32 -1027 LINE",
"32 -1146 LINE"
);
}
);
width = 57;
}
);
unicode = 2265;
},
{
glyphname = increment;
lastChange = "2015-08-07 07:40:10 +0000";
layers = (
{
layerId = "4084567E-8F17-43C6-B459-5B57676AC7A4";
name = Regular;
paths = (
{
closed = 1;
nodes = (
"51 -296 LINE",
"51 -275 LINE",
"208 -338 LINE",
"208 -346 LINE",
"51 -403 LINE",
"51 -383 LINE",
"171 -342 LINE"
);
}
);
width = 0;
}
);
unicode = 2206;
},
{
glyphname = infinity;
lastChange = "2015-08-07 07:40:10 +0000";
layers = (
{
layerId = "4084567E-8F17-43C6-B459-5B57676AC7A4";
name = Regular;
paths = (
{
closed = 1;
nodes = (
"270 551 LINE",
"211 551 LINE",
"211 610 LINE",
"192 610 LINE",
"192 551 LINE",
"0 551 LINE",
"0 546 LINE",
"192 546 LINE",
"192 427 LINE",
"0 427 LINE",
"0 422 LINE",
"192 422 LINE",
"192 303 LINE",
"0 303 LINE",
"0 298 LINE",
"192 298 LINE",
"192 225 LINE",
"187 232 OFFCURVE",
"159 242 OFFCURVE",
"130 236 CURVE SMOOTH",
"81 226 OFFCURVE",
"56 201 OFFCURVE",
"47 178 CURVE",
"0 178 LINE",
"0 173 LINE",
"45 173 LINE",
"43 163 OFFCURVE",
"43 153 OFFCURVE",
"46 146 CURVE SMOOTH",
"57 118 OFFCURVE",
"88 115 OFFCURVE",
"111 115 CURVE SMOOTH",
"158 115 OFFCURVE",
"202 140 OFFCURVE",
"210 173 CURVE",
"270 173 LINE",
"270 178 LINE",
"211 178 LINE",
"211 298 LINE",
"270 298 LINE",
"270 303 LINE",
"211 303 LINE",
"211 422 LINE",
"270 422 LINE",
"270 427 LINE",
"211 427 LINE",
"211 546 LINE",
"270 546 LINE"
);
},
{
closed = 1;
nodes = (
"108 208 OFFCURVE",
"172 233 OFFCURVE",
"192 213 CURVE SMOOTH",
"201 204 OFFCURVE",
"197 191 OFFCURVE",
"185 178 CURVE",
"76 178 LINE"
);
},
{
closed = 1;
nodes = (
"56 151 OFFCURVE",
"61 162 OFFCURVE",
"71 173 CURVE",
"181 173 LINE",
"148 141 OFFCURVE",
"77 113 OFFCURVE",
"59 142 CURVE"
);
},
{
closed = 1;
nodes = (
"270 49 LINE",
"270 54 LINE",
"0 54 LINE",
"0 49 LINE"
);
}
);
width = 270;
}
);
unicode = 221E;
},
{
glyphname = integral;
lastChange = "2015-08-07 07:40:10 +0000";
layers = (
{
layerId = "4084567E-8F17-43C6-B459-5B57676AC7A4";
name = Regular;
paths = (
{
closed = 1;
nodes = (
"7 686 LINE",
"7 910 LINE",
"24 915 LINE",
"24 827 LINE",
"102 851 LINE",
"102 627 LINE",
"84 622 LINE",
"84 713 LINE"
);
},
{
closed = 1;
nodes = (
"24 724 LINE",
"84 745 LINE",
"84 817 LINE",
"24 793 LINE"
);
},
{
closed = 1;
nodes = (
"110 551 LINE",
"110 546 LINE",
"0 546 LINE",
"0 551 LINE"
);
},
{
closed = 1;
nodes = (
"110 427 LINE",
"110 422 LINE",
"0 422 LINE",
"0 427 LINE"
);
},
{
closed = 1;
nodes = (
"110 303 LINE",
"110 298 LINE",
"0 298 LINE",
"0 303 LINE"
);
},
{
closed = 1;
nodes = (
"110 178 LINE",
"110 173 LINE",
"0 173 LINE",
"0 178 LINE"
);
},
{
closed = 1;
nodes = (
"110 54 LINE",
"110 49 LINE",
"0 49 LINE",
"0 54 LINE"
);
}
);
width = 110;
}
);
unicode = 222B;
},
{
glyphname = less;
lastChange = "2015-08-07 07:40:10 +0000";
layers = (
{
layerId = "4084567E-8F17-43C6-B459-5B57676AC7A4";
name = Regular;
paths = (
{
closed = 1;
nodes = (
"129 551 LINE",
"0 551 LINE",
"0 49 LINE",
"129 49 LINE",
"129 54 LINE",
"59 54 LINE",
"59 173 LINE",
"129 173 LINE",
"129 178 LINE",
"59 178 LINE",
"59 298 LINE",
"129 298 LINE",
"129 303 LINE",
"59 303 LINE",
"59 422 LINE",
"129 422 LINE",
"129 427 LINE",
"59 427 LINE",
"59 546 LINE",
"129 546 LINE"
);
},
{
closed = 1;
nodes = (
"26 427 LINE",
"26 546 LINE",
"49 546 LINE",
"49 427 LINE"
);
},
{
closed = 1;
nodes = (
"26 303 LINE",
"26 422 LINE",
"49 422 LINE",
"49 303 LINE"
);
},
{
closed = 1;
nodes = (
"73 345 OFFCURVE",
"84 334 OFFCURVE",
"99 334 CURVE SMOOTH",
"111 334 OFFCURVE",
"122 345 OFFCURVE",
"122 357 CURVE SMOOTH",
"122 370 OFFCURVE",
"111 383 OFFCURVE",
"99 383 CURVE SMOOTH",
"84 383 OFFCURVE",
"73 370 OFFCURVE",
"73 357 CURVE SMOOTH"
);
},
{
closed = 1;
nodes = (
"26 178 LINE",
"26 298 LINE",
"49 298 LINE",
"49 178 LINE"
);
},
{
closed = 1;
nodes = (
"73 224 OFFCURVE",
"84 213 OFFCURVE",
"99 213 CURVE SMOOTH",
"111 213 OFFCURVE",
"122 224 OFFCURVE",
"122 236 CURVE SMOOTH",
"122 249 OFFCURVE",
"111 259 OFFCURVE",
"99 259 CURVE SMOOTH",
"84 259 OFFCURVE",
"73 249 OFFCURVE",
"73 236 CURVE SMOOTH"
);
},
{
closed = 1;
nodes = (
"26 54 LINE",
"26 173 LINE",
"49 173 LINE",
"49 54 LINE"
);
}
);
width = 129;
}
);
unicode = 003C;
},
{
glyphname = lessequal;
lastChange = "2015-08-07 07:40:10 +0000";
layers = (
{
layerId = "4084567E-8F17-43C6-B459-5B57676AC7A4";
name = Regular;
paths = (
{
closed = 1;
nodes = (
"5 551 LINE",
"3 -1151 LINE",
"-2 -1151 LINE",
"0 551 LINE"
);
}
);
width = 5;
}
);
unicode = 2264;
},
{
glyphname = logicalnot;
lastChange = "2015-08-07 07:40:10 +0000";
layers = (
{
layerId = "4084567E-8F17-43C6-B459-5B57676AC7A4";
name = Regular;
paths = (
{
closed = 1;
nodes = (
"0 546 LINE",
"220 546 LINE",
"220 551 LINE",
"0 551 LINE"
);
},
{
closed = 1;
nodes = (
"86 422 LINE",
"35 408 OFFCURVE",
"2 359 OFFCURVE",
"2 304 CURVE SMOOTH",
"2 303 LINE",
"0 303 LINE",
"0 298 LINE",
"2 298 LINE",
"5 234 OFFCURVE",
"54 179 OFFCURVE",
"120 179 CURVE SMOOTH",
"147 179 OFFCURVE",
"179 197 OFFCURVE",
"198 218 CURVE",
"206 228 OFFCURVE",
"216 255 OFFCURVE",
"216 268 CURVE",
"205 268 LINE",
"205 227 OFFCURVE",
"166 193 OFFCURVE",
"122 193 CURVE SMOOTH",
"106 193 OFFCURVE",
"93 200 OFFCURVE",
"84 210 CURVE SMOOTH",
"69 227 OFFCURVE",
"62 257 OFFCURVE",
"62 298 CURVE",
"220 298 LINE",
"220 303 LINE",
"62 303 LINE",
"62 387 OFFCURVE",
"88 415 OFFCURVE",
"133 415 CURVE SMOOTH",
"153 415 OFFCURVE",
"169 408 OFFCURVE",
"182 396 CURVE",
"185 394 OFFCURVE",
"186 390 OFFCURVE",
"186 389 CURVE SMOOTH",
"186 386 OFFCURVE",
"182 384 OFFCURVE",
"176 384 CURVE SMOOTH",
"156 384 OFFCURVE",
"134 371 OFFCURVE",
"134 353 CURVE SMOOTH",
"134 329 OFFCURVE",
"154 315 OFFCURVE",
"179 315 CURVE SMOOTH",
"196 315 OFFCURVE",
"220 335 OFFCURVE",
"220 353 CURVE SMOOTH",
"220 390 OFFCURVE",
"191 413 OFFCURVE",
"153 422 CURVE",
"220 422 LINE",
"220 427 LINE",
"0 427 LINE",
"0 422 LINE"
);
},
{
closed = 1;
nodes = (
"220 173 LINE",
"220 178 LINE",
"0 178 LINE",
"0 173 LINE"
);
},
{
closed = 1;
nodes = (
"220 49 LINE",
"220 54 LINE",
"0 54 LINE",
"0 49 LINE"
);
}
);
width = 220;
}
);
unicode = 00AC;
},
{
glyphname = micro;
lastChange = "2015-08-07 07:40:10 +0000";
layers = (
{
layerId = "4084567E-8F17-43C6-B459-5B57676AC7A4";
name = Regular;
paths = (
{
closed = 1;
nodes = (
"-111 -253 LINE SMOOTH",
"-87 -193 OFFCURVE",
"-82 -132 OFFCURVE",
"-87 -67 CURVE SMOOTH",
"-124 412 LINE SMOOTH",
"-133 523 OFFCURVE",
"-4 565 OFFCURVE",
"-11 549 CURVE",
"-11 549 OFFCURVE",
"-99 496 OFFCURVE",
"-92 420 CURVE SMOOTH",
"-51 -36 LINE SMOOTH",
"-43 -121 OFFCURVE",
"-57 -201 OFFCURVE",
"-98 -277 CURVE SMOOTH",
"-123 -324 LINE",
"-123 -326 LINE",
"-93 -386 LINE SMOOTH",
"-55 -460 OFFCURVE",
"-41 -535 OFFCURVE",
"-51 -617 CURVE SMOOTH",
"-93 -977 LINE SMOOTH",
"-100 -1039 OFFCURVE",
"-10 -1129 OFFCURVE",
"-17 -1133 CURVE",
"-27 -1138 LINE",
"-82 -1089 LINE SMOOTH",
"-146 -1032 OFFCURVE",
"-128 -961 OFFCURVE",
"-112 -818 CURVE SMOOTH",
"-86 -588 LINE SMOOTH",
"-79 -527 OFFCURVE",
"-86 -470 OFFCURVE",
"-107 -411 CURVE SMOOTH",
"-139 -325 LINE",
"-139 -323 LINE"
);
},
{
closed = 1;
nodes = (
"5 551 LINE",
"3 -1151 LINE",
"-2 -1151 LINE",
"-2 551 LINE"
);
}
);
width = 5;
}
);
unicode = 00B5;
},
{
glyphname = notequal;
lastChange = "2015-08-07 07:40:10 +0000";
layers = (
{
layerId = "4084567E-8F17-43C6-B459-5B57676AC7A4";
name = Regular;
paths = (
{
closed = 1;
nodes = (
"270 551 LINE",
"107 551 LINE",
"182 567 OFFCURVE",
"199 615 OFFCURVE",
"189 640 CURVE",
"179 669 OFFCURVE",
"148 672 OFFCURVE",
"125 672 CURVE SMOOTH",
"76 671 OFFCURVE",
"30 643 OFFCURVE",
"24 608 CURVE",
"24 551 LINE",
"0 551 LINE",
"0 546 LINE",
"24 546 LINE",
"24 427 LINE",
"0 427 LINE",
"0 422 LINE",
"24 422 LINE",
"25 303 LINE",
"0 303 LINE",
"0 298 LINE",
"25 298 LINE",
"25 178 LINE",
"0 178 LINE",
"0 173 LINE",
"270 173 LINE",
"270 178 LINE",
"44 178 LINE",
"44 298 LINE",
"270 298 LINE",
"270 303 LINE",
"44 303 LINE",
"45 422 LINE",
"270 422 LINE",
"270 427 LINE",
"45 427 LINE",
"45 546 LINE",
"270 546 LINE"
);
},
{
closed = 1;
nodes = (
"189 610 OFFCURVE",
"75 543 OFFCURVE",
"44 572 CURVE SMOOTH",
"12 604 OFFCURVE",
"149 688 OFFCURVE",
"176 646 CURVE"
);
},
{
closed = 1;
nodes = (
"47 557 OFFCURVE",
"54 553 OFFCURVE",
"63 551 CURVE",
"45 551 LINE",
"45 560 LINE"
);
},
{
closed = 1;
nodes = (
"270 49 LINE",
"270 54 LINE",
"0 54 LINE",
"0 49 LINE"
);
}
);
width = 270;
}
);
unicode = 2260;
},
{
glyphname = partialdiff;
lastChange = "2015-08-07 07:40:10 +0000";
layers = (
{
layerId = "4084567E-8F17-43C6-B459-5B57676AC7A4";
name = Regular;
paths = (
{
closed = 1;
nodes = (
"270 551 LINE",
"57 551 LINE",
"57 626 LINE",
"62 619 OFFCURVE",
"89 610 OFFCURVE",
"119 617 CURVE SMOOTH",
"167 627 OFFCURVE",
"191 650 OFFCURVE",
"200 672 CURVE",
"256 672 LINE",
"256 677 LINE",
"201 677 LINE",
"205 688 OFFCURVE",
"204 698 OFFCURVE",
"201 706 CURVE SMOOTH",
"191 735 OFFCURVE",
"160 738 OFFCURVE",
"137 738 CURVE SMOOTH",
"89 737 OFFCURVE",
"45 711 OFFCURVE",
"37 677 CURVE",
"0 677 LINE",
"0 672 LINE",
"36 672 LINE",
"36 551 LINE",
"0 551 LINE",
"0 546 LINE",
"36 546 LINE",
"37 427 LINE",
"0 427 LINE",
"0 422 LINE",
"37 422 LINE",
"37 303 LINE",
"0 303 LINE",
"0 298 LINE",
"37 298 LINE",
"37 241 LINE",
"56 241 LINE",
"56 298 LINE",
"270 298 LINE",
"270 303 LINE",
"56 303 LINE",
"56 422 LINE",
"270 422 LINE",
"270 427 LINE",
"56 427 LINE",
"57 546 LINE",
"270 546 LINE"
);
},
{
closed = 1;
nodes = (
"192 702 OFFCURVE",
"185 689 OFFCURVE",
"173 677 CURVE",
"66 677 LINE",
"98 710 OFFCURVE",
"169 741 OFFCURVE",
"188 712 CURVE"
);
},
{
closed = 1;
nodes = (
"136 643 OFFCURVE",
"77 618 OFFCURVE",
"56 638 CURVE SMOOTH",
"47 647 OFFCURVE",
"51 659 OFFCURVE",
"62 672 CURVE",
"168 672 LINE"
);
},
{
closed = 1;
nodes = (
"270 173 LINE",
"270 178 LINE",
"0 178 LINE",
"0 173 LINE"
);
},
{
closed = 1;
nodes = (
"270 49 LINE",
"270 54 LINE",
"0 54 LINE",
"0 49 LINE"
);
}
);
width = 270;
}
);
unicode = 2202;
},
{
glyphname = percent;
lastChange = "2015-08-07 07:40:10 +0000";
layers = (
{
layerId = "4084567E-8F17-43C6-B459-5B57676AC7A4";
name = Regular;
paths = (
{
closed = 1;
nodes = (
"304 551 LINE",
"245 551 LINE",
"232 567 OFFCURVE",
"215 585 OFFCURVE",
"211 610 CURVE",
"192 610 LINE",
"192 551 LINE",
"0 551 LINE",
"0 546 LINE",
"192 546 LINE",
"192 427 LINE",
"0 427 LINE",
"0 422 LINE",
"192 422 LINE",
"192 303 LINE",
"0 303 LINE",
"0 298 LINE",
"192 298 LINE",
"192 225 LINE",
"187 232 OFFCURVE",
"159 242 OFFCURVE",
"130 236 CURVE SMOOTH",
"81 226 OFFCURVE",
"56 201 OFFCURVE",
"47 178 CURVE",
"0 178 LINE",
"0 173 LINE",
"45 173 LINE",
"43 163 OFFCURVE",
"43 153 OFFCURVE",
"46 146 CURVE SMOOTH",
"57 118 OFFCURVE",
"88 115 OFFCURVE",
"111 115 CURVE SMOOTH",
"158 115 OFFCURVE",
"202 140 OFFCURVE",
"210 173 CURVE",
"304 173 LINE",
"304 178 LINE",
"211 178 LINE",
"211 298 LINE",
"264 298 LINE",
"256 278 LINE",
"269 278 LINE",
"280 298 LINE",
"304 298 LINE",
"304 303 LINE",
"282 303 LINE",
"300 343 OFFCURVE",
"306 384 OFFCURVE",
"302 422 CURVE",
"304 422 LINE",
"304 427 LINE",
"301 427 LINE",
"295 471 OFFCURVE",
"276 511 OFFCURVE",
"249 546 CURVE",
"304 546 LINE"
);
},
{
closed = 1;
nodes = (
"211 427 LINE",
"211 491 LINE",
"242 481 OFFCURVE",
"261 457 OFFCURVE",
"271 427 CURVE"
);
},
{
closed = 1;
nodes = (
"211 303 LINE",
"211 422 LINE",
"272 422 LINE",
"281 387 OFFCURVE",
"278 344 OFFCURVE",
"265 303 CURVE"
);
},
{
closed = 1;
nodes = (
"304 49 LINE",
"304 54 LINE",
"0 54 LINE",
"0 49 LINE"
);
}
);
width = 304;
}
);
unicode = 0025;
},
{
glyphname = perthousand;
lastChange = "2015-08-07 07:40:10 +0000";
layers = (
{
layerId = "4084567E-8F17-43C6-B459-5B57676AC7A4";
name = Regular;
paths = (
{
closed = 1;
nodes = (
"0 546 LINE",
"50 546 LINE",
"50 551 LINE",
"0 551 LINE"
);
},
{
closed = 1;
nodes = (
"50 422 LINE",
"50 427 LINE",
"0 427 LINE",
"0 422 LINE"
);
},
{
closed = 1;
nodes = (
"50 298 LINE",
"50 303 LINE",
"0 303 LINE",
"0 298 LINE"
);
},
{
closed = 1;
nodes = (
"50 173 LINE",
"50 178 LINE",
"0 178 LINE",
"0 173 LINE"
);
},
{
closed = 1;
nodes = (
"49 124 OFFCURVE",
"38 137 OFFCURVE",
"26 137 CURVE SMOOTH",
"11 137 OFFCURVE",
"0 124 OFFCURVE",
"0 111 CURVE SMOOTH",
"0 99 OFFCURVE",
"11 88 OFFCURVE",
"26 88 CURVE SMOOTH",
"38 88 OFFCURVE",
"49 99 OFFCURVE",
"49 111 CURVE SMOOTH"
);
},
{
closed = 1;
nodes = (
"50 49 LINE",
"50 54 LINE",
"0 54 LINE",
"0 49 LINE"
);
}
);
width = 50;
}
);
unicode = 2030;
},
{
glyphname = plus;
lastChange = "2015-08-07 07:40:10 +0000";
layers = (
{
layerId = "4084567E-8F17-43C6-B459-5B57676AC7A4";
name = Regular;
paths = (
{
closed = 1;
nodes = (
"270 546 LINE",
"270 551 LINE",
"111 551 LINE",
"186 567 OFFCURVE",
"203 615 OFFCURVE",
"193 640 CURVE",
"183 669 OFFCURVE",
"152 672 OFFCURVE",
"129 672 CURVE SMOOTH",
"80 671 OFFCURVE",
"34 643 OFFCURVE",
"28 608 CURVE",
"28 551 LINE",
"0 551 LINE",
"0 546 LINE",
"28 546 LINE",
"28 427 LINE",
"0 427 LINE",
"0 422 LINE",
"28 422 LINE",
"29 303 LINE",
"0 303 LINE",
"0 298 LINE",
"29 298 LINE",
"29 178 LINE",
"0 178 LINE",
"0 173 LINE",
"270 173 LINE",
"270 178 LINE",
"48 178 LINE",
"48 186 LINE",
"51 208 OFFCURVE",
"73 224 OFFCURVE",
"85 239 CURVE SMOOTH",
"99 257 OFFCURVE",
"111 277 OFFCURVE",
"120 298 CURVE",
"270 298 LINE",
"270 303 LINE",
"122 303 LINE",
"137 340 OFFCURVE",
"143 380 OFFCURVE",
"136 422 CURVE",
"270 422 LINE",
"270 427 LINE",
"135 427 LINE",
"131 453 OFFCURVE",
"121 480 OFFCURVE",
"105 507 CURVE",
"92 507 LINE",
"103 481 OFFCURVE",
"110 453 OFFCURVE",
"113 427 CURVE",
"48 427 LINE",
"48 546 LINE"
);
},
{
closed = 1;
nodes = (
"50 557 OFFCURVE",
"57 553 OFFCURVE",
"67 551 CURVE",
"48 551 LINE",
"48 560 LINE"
);
},
{
closed = 1;
nodes = (
"117 371 OFFCURVE",
"104 326 OFFCURVE",
"67 303 CURVE",
"48 303 LINE",
"48 422 LINE",
"113 422 LINE"
);
},
{
closed = 1;
nodes = (
"48 298 LINE",
"58 298 LINE",
"55 297 OFFCURVE",
"52 295 OFFCURVE",
"48 294 CURVE"
);
},
{
closed = 1;
nodes = (
"270 49 LINE",
"270 54 LINE",
"0 54 LINE",
"0 49 LINE"
);
}
);
width = 270;
}
);
unicode = 002B;
},
{
glyphname = plusminus;
lastChange = "2015-08-07 07:40:10 +0000";
layers = (
{
layerId = "4084567E-8F17-43C6-B459-5B57676AC7A4";
name = Regular;
paths = (
{
closed = 1;
nodes = (
"194 560 OFFCURVE",
"215 589 OFFCURVE",
"212 618 CURVE",
"207 648 OFFCURVE",
"170 677 OFFCURVE",
"122 673 CURVE SMOOTH",
"48 667 OFFCURVE",
"31 628 OFFCURVE",
"34 601 CURVE SMOOTH",
"36 579 OFFCURVE",
"58 558 OFFCURVE",
"91 551 CURVE",
"0 551 LINE",
"0 546 LINE",
"270 546 LINE",
"270 551 LINE",
"151 551 LINE"
);
},
{
closed = 1;
nodes = (
"154 677 OFFCURVE",
"181 573 OFFCURVE",
"137 558 CURVE",
"94 548 OFFCURVE",
"69 641 OFFCURVE",
"110 660 CURVE"
);
},
{
closed = 1;
nodes = (
"270 422 LINE",
"270 427 LINE",
"0 427 LINE",
"0 422 LINE"
);
},
{
closed = 1;
nodes = (
"270 298 LINE",
"270 303 LINE",
"0 303 LINE",
"0 298 LINE"
);
},
{
closed = 1;
nodes = (
"270 173 LINE",
"270 178 LINE",
"0 178 LINE",
"0 173 LINE"
);
},
{
closed = 1;
nodes = (
"270 49 LINE",
"270 54 LINE",
"0 54 LINE",
"0 49 LINE"
);
}
);
width = 270;
}
);
unicode = 00B1;
},
{
glyphname = product;
lastChange = "2015-08-07 07:40:10 +0000";
layers = (
{
layerId = "4084567E-8F17-43C6-B459-5B57676AC7A4";
name = Regular;
paths = (
{
closed = 1;
nodes = (
"38 593 OFFCURVE",
"49 604 OFFCURVE",
"49 616 CURVE SMOOTH",
"49 629 OFFCURVE",
"38 642 OFFCURVE",
"26 642 CURVE SMOOTH",
"11 642 OFFCURVE",
"0 629 OFFCURVE",
"0 616 CURVE SMOOTH",
"0 604 OFFCURVE",
"11 593 OFFCURVE",
"26 593 CURVE SMOOTH"
);
},
{
closed = 1;
nodes = (
"0 546 LINE",
"50 546 LINE",
"50 551 LINE",
"0 551 LINE"
);
},
{
closed = 1;
nodes = (
"50 422 LINE",
"50 427 LINE",
"0 427 LINE",
"0 422 LINE"
);
},
{
closed = 1;
nodes = (
"50 298 LINE",
"50 303 LINE",
"0 303 LINE",
"0 298 LINE"
);
},
{
closed = 1;
nodes = (
"50 173 LINE",
"50 178 LINE",
"0 178 LINE",
"0 173 LINE"
);
},
{
closed = 1;
nodes = (
"50 49 LINE",
"50 54 LINE",
"0 54 LINE",
"0 49 LINE"
);
}
);
width = 50;
}
);
unicode = 220F;
},
{
glyphname = radical;
lastChange = "2015-08-07 07:40:10 +0000";
layers = (
{
layerId = "4084567E-8F17-43C6-B459-5B57676AC7A4";
name = Regular;
paths = (
{
closed = 1;
nodes = (
"7 640 LINE",
"7 864 LINE",
"24 869 LINE",
"24 781 LINE",
"102 805 LINE",
"102 581 LINE",
"84 576 LINE",
"84 667 LINE"
);
},
{
closed = 1;
nodes = (
"24 678 LINE",
"84 699 LINE",
"84 771 LINE",
"24 747 LINE"
);
},
{
closed = 1;
nodes = (
"110 551 LINE",
"110 546 LINE",
"0 546 LINE",
"0 551 LINE"
);
},
{
closed = 1;
nodes = (
"110 427 LINE",
"110 422 LINE",
"0 422 LINE",
"0 427 LINE"
);
},
{
closed = 1;
nodes = (
"110 303 LINE",
"110 298 LINE",
"0 298 LINE",
"0 303 LINE"
);
},
{
closed = 1;
nodes = (
"110 178 LINE",
"110 173 LINE",
"0 173 LINE",
"0 178 LINE"
);
},
{
closed = 1;
nodes = (
"110 54 LINE",
"110 49 LINE",
"0 49 LINE",
"0 54 LINE"
);
}
);
width = 110;
}
);
unicode = 221A;
},
{
glyphname = summation;
lastChange = "2015-08-07 07:40:10 +0000";
layers = (
{
layerId = "4084567E-8F17-43C6-B459-5B57676AC7A4";
name = Regular;
paths = (
{
closed = 1;
nodes = (
"0 546 LINE",
"110 546 LINE",
"110 551 LINE",
"0 551 LINE"
);
},
{
closed = 1;
nodes = (
"110 422 LINE",
"110 427 LINE",
"0 427 LINE",
"0 422 LINE"
);
},
{
closed = 1;
nodes = (
"110 298 LINE",
"110 303 LINE",
"0 303 LINE",
"0 298 LINE"
);
},
{
closed = 1;
nodes = (
"110 173 LINE",
"110 178 LINE",
"0 178 LINE",
"0 173 LINE"
);
},
{
closed = 1;
nodes = (
"62 54 LINE",
"23 54 LINE",
"23 130 LINE",
"6 125 LINE",
"6 54 LINE",
"0 54 LINE",
"0 49 LINE",
"6 49 LINE",
"6 -99 LINE",
"83 -72 LINE",
"83 -163 LINE",
"101 -158 LINE",
"101 49 LINE",
"110 49 LINE",
"110 54 LINE",
"101 54 LINE",
"101 66 LINE"
);
},
{
closed = 1;
nodes = (
"23 49 LINE",
"46 49 LINE",
"23 42 LINE"
);
},
{
closed = 1;
nodes = (
"23 -61 LINE",
"23 8 LINE",
"83 32 LINE",
"83 -40 LINE"
);
}
);
width = 110;
}
);
unicode = 2211;
},
{
glyphname = lozenge;
lastChange = "2015-08-07 07:40:10 +0000";
layers = (
{
layerId = "4084567E-8F17-43C6-B459-5B57676AC7A4";
name = Regular;
paths = (
{
closed = 1;
nodes = (
"62 668 OFFCURVE",
"64 668 OFFCURVE",
"65 669 CURVE",
"71 665 OFFCURVE",
"74 659 OFFCURVE",
"74 652 CURVE SMOOTH",
"74 642 OFFCURVE",
"71 640 OFFCURVE",
"64 632 CURVE",
"59 624 OFFCURVE",
"52 620 OFFCURVE",
"43 616 CURVE",
"43 601 LINE",
"62 607 OFFCURVE",
"77 615 OFFCURVE",
"89 630 CURVE",
"100 645 OFFCURVE",
"105 662 OFFCURVE",
"105 680 CURVE SMOOTH",
"105 703 OFFCURVE",
"89 723 OFFCURVE",
"64 723 CURVE SMOOTH",
"53 723 OFFCURVE",
"44 720 OFFCURVE",
"37 714 CURVE SMOOTH",
"31 709 OFFCURVE",
"28 703 OFFCURVE",
"28 695 CURVE SMOOTH",
"28 678 OFFCURVE",
"39 665 OFFCURVE",
"58 668 CURVE"
);
},
{
closed = 1;
nodes = (
"0 546 LINE",
"135 546 LINE",
"135 551 LINE",
"0 551 LINE"
);
},
{
closed = 1;
nodes = (
"135 422 LINE",
"135 427 LINE",
"0 427 LINE",
"0 422 LINE"
);
},
{
closed = 1;
nodes = (
"135 298 LINE",
"135 303 LINE",
"0 303 LINE",
"0 298 LINE"
);
},
{
closed = 1;
nodes = (
"135 173 LINE",
"135 178 LINE",
"0 178 LINE",
"0 173 LINE"
);
},
{
closed = 1;
nodes = (
"135 49 LINE",
"135 54 LINE",
"0 54 LINE",
"0 49 LINE"
);
}
);
width = 135;
}
);
unicode = 25CA;
},
{
glyphname = apple;
lastChange = "2015-08-07 07:40:10 +0000";
layers = (
{
layerId = "4084567E-8F17-43C6-B459-5B57676AC7A4";
name = Regular;
paths = (
{
closed = 1;
nodes = (
"0 551 LINE",
"0 546 LINE",
"59 546 LINE",
"30 539 OFFCURVE",
"6 517 OFFCURVE",
"6 486 CURVE SMOOTH",
"6 469 OFFCURVE",
"20 454 OFFCURVE",
"38 454 CURVE SMOOTH",
"55 454 OFFCURVE",
"70 469 OFFCURVE",
"70 486 CURVE SMOOTH",
"70 505 OFFCURVE",
"57 516 OFFCURVE",
"38 516 CURVE SMOOTH",
"35 516 OFFCURVE",
"34 517 OFFCURVE",
"34 519 CURVE SMOOTH",
"34 526 OFFCURVE",
"49 533 OFFCURVE",
"58 533 CURVE SMOOTH",
"101 533 OFFCURVE",
"121 514 OFFCURVE",
"121 481 CURVE SMOOTH",
"121 470 OFFCURVE",
"103 447 OFFCURVE",
"85 427 CURVE",
"0 427 LINE",
"0 422 LINE",
"80 422 LINE",
"69 410 OFFCURVE",
"58 399 OFFCURVE",
"51 392 CURVE SMOOTH",
"32 373 OFFCURVE",
"18 357 OFFCURVE",
"13 342 CURVE",
"6 328 OFFCURVE",
"4 322 OFFCURVE",
"1 303 CURVE",
"0 303 LINE",
"0 298 LINE",
"174 298 LINE",
"174 303 LINE",
"12 303 LINE",
"18 326 OFFCURVE",
"20 336 OFFCURVE",
"45 336 CURVE SMOOTH",
"77 336 OFFCURVE",
"90 303 OFFCURVE",
"121 303 CURVE SMOOTH",
"155 303 OFFCURVE",
"173 326 OFFCURVE",
"173 368 CURVE",
"167 368 LINE",
"167 365 LINE SMOOTH",
"167 345 OFFCURVE",
"160 338 OFFCURVE",
"142 338 CURVE SMOOTH",
"139 338 OFFCURVE",
"137 338 OFFCURVE",
"132 342 CURVE",
"107 364 OFFCURVE",
"98 367 OFFCURVE",
"80 367 CURVE SMOOTH",
"67 367 OFFCURVE",
"53 364 OFFCURVE",
"35 355 CURVE",
"61 393 OFFCURVE",
"75 402 OFFCURVE",
"109 422 CURVE",
"174 422 LINE",
"174 427 LINE",
"119 427 LINE",
"146 442 OFFCURVE",
"164 456 OFFCURVE",
"164 484 CURVE SMOOTH",
"164 519 OFFCURVE",
"135 540 OFFCURVE",
"99 546 CURVE",
"174 546 LINE",
"174 551 LINE"
);
},
{
closed = 1;
nodes = (
"6 219 OFFCURVE",
"20 204 OFFCURVE",
"38 204 CURVE SMOOTH",
"55 204 OFFCURVE",
"70 219 OFFCURVE",
"70 236 CURVE SMOOTH",
"70 255 OFFCURVE",
"57 266 OFFCURVE",
"38 266 CURVE SMOOTH",
"35 266 OFFCURVE",
"34 267 OFFCURVE",
"34 269 CURVE SMOOTH",
"34 276 OFFCURVE",
"49 283 OFFCURVE",
"58 283 CURVE SMOOTH",
"101 283 OFFCURVE",
"121 264 OFFCURVE",
"121 231 CURVE SMOOTH",
"121 220 OFFCURVE",
"104 198 OFFCURVE",
"86 178 CURVE",
"0 178 LINE",
"0 173 LINE",
"81 173 LINE",
"70 161 OFFCURVE",
"59 150 OFFCURVE",
"51 142 CURVE SMOOTH",
"32 123 OFFCURVE",
"18 107 OFFCURVE",
"13 92 CURVE",
"6 78 OFFCURVE",
"4 72 OFFCURVE",
"1 54 CURVE",
"0 54 LINE",
"0 49 LINE",
"174 49 LINE",
"174 54 LINE",
"133 54 LINE",
"159 59 OFFCURVE",
"173 81 OFFCURVE",
"173 118 CURVE",
"167 118 LINE",
"167 115 LINE SMOOTH",
"167 95 OFFCURVE",
"160 88 OFFCURVE",
"142 88 CURVE SMOOTH",
"139 88 OFFCURVE",
"137 88 OFFCURVE",
"132 92 CURVE",
"107 114 OFFCURVE",
"98 117 OFFCURVE",
"80 117 CURVE SMOOTH",
"67 117 OFFCURVE",
"53 114 OFFCURVE",
"35 105 CURVE",
"62 143 OFFCURVE",
"76 153 OFFCURVE",
"111 173 CURVE",
"174 173 LINE",
"174 178 LINE",
"121 178 LINE",
"147 192 OFFCURVE",
"164 207 OFFCURVE",
"164 234 CURVE SMOOTH",
"164 276 OFFCURVE",
"121 298 OFFCURVE",
"76 298 CURVE SMOOTH",
"41 298 OFFCURVE",
"6 273 OFFCURVE",
"6 236 CURVE SMOOTH"
);
},
{
closed = 1;
nodes = (
"74 86 OFFCURVE",
"87 60 OFFCURVE",
"112 54 CURVE",
"12 54 LINE",
"18 76 OFFCURVE",
"20 86 OFFCURVE",
"45 86 CURVE SMOOTH"
);
}
);
width = 174;
}
);
unicode = F8FF;
},
